<mxfile host="app.diagrams.net" agent="Mozilla/5.0 (Windows NT 10.0; Win64; x64) AppleWebKit/537.36 (KHTML, like Gecko) Chrome/136.0.0.0 Safari/537.36" version="26.3.0">
  <diagram name="Page-1" id="oYU89lAQlBujMoXO6MIs">
    <mxGraphModel dx="8628" dy="4014" grid="1" gridSize="10" guides="1" tooltips="1" connect="1" arrows="1" fold="1" page="1" pageScale="1" pageWidth="827" pageHeight="1169" math="0" shadow="0">
      <root>
        <mxCell id="0" />
        <mxCell id="1" parent="0" />
        <mxCell id="iHgnJFZeqUVyhQBtMsIq-1" value="" style="endArrow=open;endFill=1;endSize=12;html=1;rounded=0;entryX=0.5;entryY=0;entryDx=0;entryDy=0;exitX=0.576;exitY=1.021;exitDx=0;exitDy=0;exitPerimeter=0;" edge="1" parent="1" source="iHgnJFZeqUVyhQBtMsIq-316" target="iHgnJFZeqUVyhQBtMsIq-392">
          <mxGeometry width="160" relative="1" as="geometry">
            <mxPoint x="-5520" y="-1520" as="sourcePoint" />
            <mxPoint x="-5380" y="-1940" as="targetPoint" />
            <Array as="points" />
          </mxGeometry>
        </mxCell>
        <mxCell id="iHgnJFZeqUVyhQBtMsIq-2" value="" style="endArrow=open;endFill=1;endSize=12;html=1;rounded=0;exitX=1;exitY=0.5;exitDx=0;exitDy=0;entryX=0;entryY=0.5;entryDx=0;entryDy=0;" edge="1" parent="1" source="iHgnJFZeqUVyhQBtMsIq-43" target="iHgnJFZeqUVyhQBtMsIq-6">
          <mxGeometry width="160" relative="1" as="geometry">
            <mxPoint x="-6263" y="-3087" as="sourcePoint" />
            <mxPoint x="-6353" y="-2777" as="targetPoint" />
          </mxGeometry>
        </mxCell>
        <mxCell id="iHgnJFZeqUVyhQBtMsIq-3" value="" style="endArrow=open;endFill=1;endSize=12;html=1;rounded=0;exitX=0.602;exitY=1.013;exitDx=0;exitDy=0;entryX=0;entryY=0.25;entryDx=0;entryDy=0;exitPerimeter=0;" edge="1" parent="1" source="iHgnJFZeqUVyhQBtMsIq-161" target="iHgnJFZeqUVyhQBtMsIq-181">
          <mxGeometry width="160" relative="1" as="geometry">
            <mxPoint x="-5091" y="-2822" as="sourcePoint" />
            <mxPoint x="-5085" y="-2649" as="targetPoint" />
            <Array as="points" />
          </mxGeometry>
        </mxCell>
        <mxCell id="iHgnJFZeqUVyhQBtMsIq-4" value="&amp;lt;&amp;lt;Controller&amp;gt;&amp;gt;&lt;div&gt;RiddleController&lt;/div&gt;" style="swimlane;fontStyle=1;align=center;verticalAlign=top;childLayout=stackLayout;horizontal=1;startSize=39;horizontalStack=0;resizeParent=1;resizeParentMax=0;resizeLast=0;collapsible=1;marginBottom=0;whiteSpace=wrap;html=1;fillColor=#FF6666;" vertex="1" parent="1">
          <mxGeometry x="-6353" y="-2838" width="303" height="333" as="geometry" />
        </mxCell>
        <mxCell id="iHgnJFZeqUVyhQBtMsIq-5" value="" style="line;strokeWidth=1;fillColor=none;align=left;verticalAlign=middle;spacingTop=-1;spacingLeft=3;spacingRight=3;rotatable=0;labelPosition=right;points=[];portConstraint=eastwest;strokeColor=inherit;" vertex="1" parent="iHgnJFZeqUVyhQBtMsIq-4">
          <mxGeometry y="39" width="303" height="8" as="geometry" />
        </mxCell>
        <mxCell id="iHgnJFZeqUVyhQBtMsIq-6" value="+ answer_riddle() :&amp;nbsp; Answer" style="text;strokeColor=none;fillColor=none;align=left;verticalAlign=top;spacingLeft=4;spacingRight=4;overflow=hidden;rotatable=0;points=[[0,0.5],[1,0.5]];portConstraint=eastwest;whiteSpace=wrap;html=1;" vertex="1" parent="iHgnJFZeqUVyhQBtMsIq-4">
          <mxGeometry y="47" width="303" height="26" as="geometry" />
        </mxCell>
        <mxCell id="iHgnJFZeqUVyhQBtMsIq-7" value="+choose_riddle _option() : RiddleType" style="text;strokeColor=none;fillColor=none;align=left;verticalAlign=top;spacingLeft=4;spacingRight=4;overflow=hidden;rotatable=0;points=[[0,0.5],[1,0.5]];portConstraint=eastwest;whiteSpace=wrap;html=1;" vertex="1" parent="iHgnJFZeqUVyhQBtMsIq-4">
          <mxGeometry y="73" width="303" height="26" as="geometry" />
        </mxCell>
        <mxCell id="iHgnJFZeqUVyhQBtMsIq-8" value="+show_fail_message() : void" style="text;strokeColor=none;fillColor=none;align=left;verticalAlign=top;spacingLeft=4;spacingRight=4;overflow=hidden;rotatable=0;points=[[0,0.5],[1,0.5]];portConstraint=eastwest;whiteSpace=wrap;html=1;" vertex="1" parent="iHgnJFZeqUVyhQBtMsIq-4">
          <mxGeometry y="99" width="303" height="26" as="geometry" />
        </mxCell>
        <mxCell id="iHgnJFZeqUVyhQBtMsIq-9" value="+show_success_message() : void" style="text;strokeColor=none;fillColor=none;align=left;verticalAlign=top;spacingLeft=4;spacingRight=4;overflow=hidden;rotatable=0;points=[[0,0.5],[1,0.5]];portConstraint=eastwest;whiteSpace=wrap;html=1;" vertex="1" parent="iHgnJFZeqUVyhQBtMsIq-4">
          <mxGeometry y="125" width="303" height="26" as="geometry" />
        </mxCell>
        <mxCell id="iHgnJFZeqUVyhQBtMsIq-10" value="+show_final_message(): void" style="text;strokeColor=none;fillColor=none;align=left;verticalAlign=top;spacingLeft=4;spacingRight=4;overflow=hidden;rotatable=0;points=[[0,0.5],[1,0.5]];portConstraint=eastwest;whiteSpace=wrap;html=1;" vertex="1" parent="iHgnJFZeqUVyhQBtMsIq-4">
          <mxGeometry y="151" width="303" height="26" as="geometry" />
        </mxCell>
        <mxCell id="iHgnJFZeqUVyhQBtMsIq-11" value="+create_custom_riddle() : Riddle" style="text;strokeColor=none;fillColor=none;align=left;verticalAlign=top;spacingLeft=4;spacingRight=4;overflow=hidden;rotatable=0;points=[[0,0.5],[1,0.5]];portConstraint=eastwest;whiteSpace=wrap;html=1;" vertex="1" parent="iHgnJFZeqUVyhQBtMsIq-4">
          <mxGeometry y="177" width="303" height="26" as="geometry" />
        </mxCell>
        <mxCell id="iHgnJFZeqUVyhQBtMsIq-12" value="+request_riddles_from_database() : List&amp;lt;Riddle&amp;gt;" style="text;strokeColor=none;fillColor=none;align=left;verticalAlign=top;spacingLeft=4;spacingRight=4;overflow=hidden;rotatable=0;points=[[0,0.5],[1,0.5]];portConstraint=eastwest;whiteSpace=wrap;html=1;" vertex="1" parent="iHgnJFZeqUVyhQBtMsIq-4">
          <mxGeometry y="203" width="303" height="26" as="geometry" />
        </mxCell>
        <mxCell id="iHgnJFZeqUVyhQBtMsIq-13" value="+show_riddles(): void" style="text;strokeColor=none;fillColor=none;align=left;verticalAlign=top;spacingLeft=4;spacingRight=4;overflow=hidden;rotatable=0;points=[[0,0.5],[1,0.5]];portConstraint=eastwest;whiteSpace=wrap;html=1;" vertex="1" parent="iHgnJFZeqUVyhQBtMsIq-4">
          <mxGeometry y="229" width="303" height="26" as="geometry" />
        </mxCell>
        <mxCell id="iHgnJFZeqUVyhQBtMsIq-14" value="&lt;p style=&quot;margin: 0in; font-size: 9pt;&quot;&gt;+&lt;span style=&quot;font-size: 9pt; background-color: transparent; color: light-dark(rgb(0, 0, 0), rgb(255, 255, 255));&quot;&gt;is_final_riddle(): boolean&lt;/span&gt;&lt;/p&gt;" style="text;strokeColor=none;fillColor=none;align=left;verticalAlign=top;spacingLeft=4;spacingRight=4;overflow=hidden;rotatable=0;points=[[0,0.5],[1,0.5]];portConstraint=eastwest;whiteSpace=wrap;html=1;" vertex="1" parent="iHgnJFZeqUVyhQBtMsIq-4">
          <mxGeometry y="255" width="303" height="26" as="geometry" />
        </mxCell>
        <mxCell id="iHgnJFZeqUVyhQBtMsIq-15" value="&lt;p style=&quot;margin: 0in; font-size: 9pt;&quot;&gt;+upload_image(): void&lt;/p&gt;" style="text;strokeColor=none;fillColor=none;align=left;verticalAlign=top;spacingLeft=4;spacingRight=4;overflow=hidden;rotatable=0;points=[[0,0.5],[1,0.5]];portConstraint=eastwest;whiteSpace=wrap;html=1;" vertex="1" parent="iHgnJFZeqUVyhQBtMsIq-4">
          <mxGeometry y="281" width="303" height="26" as="geometry" />
        </mxCell>
        <mxCell id="iHgnJFZeqUVyhQBtMsIq-16" value="&lt;p style=&quot;margin: 0in; font-size: 9pt;&quot;&gt;+set_story()&lt;/p&gt;" style="text;strokeColor=none;fillColor=none;align=left;verticalAlign=top;spacingLeft=4;spacingRight=4;overflow=hidden;rotatable=0;points=[[0,0.5],[1,0.5]];portConstraint=eastwest;whiteSpace=wrap;html=1;" vertex="1" parent="iHgnJFZeqUVyhQBtMsIq-4">
          <mxGeometry y="307" width="303" height="26" as="geometry" />
        </mxCell>
        <mxCell id="iHgnJFZeqUVyhQBtMsIq-17" value="&amp;lt;&amp;lt;Boundary&amp;gt;&amp;gt;&lt;div&gt;CreateRiddlesDialog&lt;/div&gt;" style="swimlane;fontStyle=1;align=center;verticalAlign=top;childLayout=stackLayout;horizontal=1;startSize=41;horizontalStack=0;resizeParent=1;resizeParentMax=0;resizeLast=0;collapsible=1;marginBottom=0;whiteSpace=wrap;html=1;fillColor=#CCCCFF;" vertex="1" parent="1">
          <mxGeometry x="-7143" y="-3437" width="210" height="647" as="geometry" />
        </mxCell>
        <mxCell id="iHgnJFZeqUVyhQBtMsIq-18" value="+btnReturnHome: button" style="text;strokeColor=none;fillColor=none;align=left;verticalAlign=top;spacingLeft=4;spacingRight=4;overflow=hidden;rotatable=0;points=[[0,0.5],[1,0.5]];portConstraint=eastwest;whiteSpace=wrap;html=1;" vertex="1" parent="iHgnJFZeqUVyhQBtMsIq-17">
          <mxGeometry y="41" width="210" height="26" as="geometry" />
        </mxCell>
        <mxCell id="iHgnJFZeqUVyhQBtMsIq-19" value="+btnLogout: button" style="text;strokeColor=none;fillColor=none;align=left;verticalAlign=top;spacingLeft=4;spacingRight=4;overflow=hidden;rotatable=0;points=[[0,0.5],[1,0.5]];portConstraint=eastwest;whiteSpace=wrap;html=1;" vertex="1" parent="iHgnJFZeqUVyhQBtMsIq-17">
          <mxGeometry y="67" width="210" height="26" as="geometry" />
        </mxCell>
        <mxCell id="iHgnJFZeqUVyhQBtMsIq-20" value="+btnSettings: button" style="text;strokeColor=none;fillColor=none;align=left;verticalAlign=top;spacingLeft=4;spacingRight=4;overflow=hidden;rotatable=0;points=[[0,0.5],[1,0.5]];portConstraint=eastwest;whiteSpace=wrap;html=1;" vertex="1" parent="iHgnJFZeqUVyhQBtMsIq-17">
          <mxGeometry y="93" width="210" height="26" as="geometry" />
        </mxCell>
        <mxCell id="iHgnJFZeqUVyhQBtMsIq-21" value="&lt;div&gt;+btnSubmit: button&lt;/div&gt;" style="text;strokeColor=none;fillColor=none;align=left;verticalAlign=top;spacingLeft=4;spacingRight=4;overflow=hidden;rotatable=0;points=[[0,0.5],[1,0.5]];portConstraint=eastwest;whiteSpace=wrap;html=1;" vertex="1" parent="iHgnJFZeqUVyhQBtMsIq-17">
          <mxGeometry y="119" width="210" height="26" as="geometry" />
        </mxCell>
        <mxCell id="iHgnJFZeqUVyhQBtMsIq-22" value="&lt;div&gt;+lblRiddleTitle1: label&lt;/div&gt;" style="text;strokeColor=none;fillColor=none;align=left;verticalAlign=top;spacingLeft=4;spacingRight=4;overflow=hidden;rotatable=0;points=[[0,0.5],[1,0.5]];portConstraint=eastwest;whiteSpace=wrap;html=1;" vertex="1" parent="iHgnJFZeqUVyhQBtMsIq-17">
          <mxGeometry y="145" width="210" height="26" as="geometry" />
        </mxCell>
        <mxCell id="iHgnJFZeqUVyhQBtMsIq-23" value="&lt;div&gt;+lblRiddleTitle2: label&lt;/div&gt;" style="text;strokeColor=none;fillColor=none;align=left;verticalAlign=top;spacingLeft=4;spacingRight=4;overflow=hidden;rotatable=0;points=[[0,0.5],[1,0.5]];portConstraint=eastwest;whiteSpace=wrap;html=1;" vertex="1" parent="iHgnJFZeqUVyhQBtMsIq-17">
          <mxGeometry y="171" width="210" height="26" as="geometry" />
        </mxCell>
        <mxCell id="iHgnJFZeqUVyhQBtMsIq-24" value="&lt;div&gt;+lblRiddleTitle3: label&lt;/div&gt;" style="text;strokeColor=none;fillColor=none;align=left;verticalAlign=top;spacingLeft=4;spacingRight=4;overflow=hidden;rotatable=0;points=[[0,0.5],[1,0.5]];portConstraint=eastwest;whiteSpace=wrap;html=1;" vertex="1" parent="iHgnJFZeqUVyhQBtMsIq-17">
          <mxGeometry y="197" width="210" height="26" as="geometry" />
        </mxCell>
        <mxCell id="iHgnJFZeqUVyhQBtMsIq-25" value="&lt;div&gt;+btnRiddleInput1: button&lt;/div&gt;" style="text;strokeColor=none;fillColor=none;align=left;verticalAlign=top;spacingLeft=4;spacingRight=4;overflow=hidden;rotatable=0;points=[[0,0.5],[1,0.5]];portConstraint=eastwest;whiteSpace=wrap;html=1;" vertex="1" parent="iHgnJFZeqUVyhQBtMsIq-17">
          <mxGeometry y="223" width="210" height="26" as="geometry" />
        </mxCell>
        <mxCell id="iHgnJFZeqUVyhQBtMsIq-26" value="&lt;div&gt;+btnRiddleInput2: button&lt;/div&gt;" style="text;strokeColor=none;fillColor=none;align=left;verticalAlign=top;spacingLeft=4;spacingRight=4;overflow=hidden;rotatable=0;points=[[0,0.5],[1,0.5]];portConstraint=eastwest;whiteSpace=wrap;html=1;" vertex="1" parent="iHgnJFZeqUVyhQBtMsIq-17">
          <mxGeometry y="249" width="210" height="26" as="geometry" />
        </mxCell>
        <mxCell id="iHgnJFZeqUVyhQBtMsIq-27" value="&lt;div&gt;+btnRiddleInput3: button&lt;/div&gt;" style="text;strokeColor=none;fillColor=none;align=left;verticalAlign=top;spacingLeft=4;spacingRight=4;overflow=hidden;rotatable=0;points=[[0,0.5],[1,0.5]];portConstraint=eastwest;whiteSpace=wrap;html=1;" vertex="1" parent="iHgnJFZeqUVyhQBtMsIq-17">
          <mxGeometry y="275" width="210" height="26" as="geometry" />
        </mxCell>
        <mxCell id="iHgnJFZeqUVyhQBtMsIq-28" value="&lt;div&gt;+btnRiddleImageInput1: button&lt;/div&gt;" style="text;strokeColor=none;fillColor=none;align=left;verticalAlign=top;spacingLeft=4;spacingRight=4;overflow=hidden;rotatable=0;points=[[0,0.5],[1,0.5]];portConstraint=eastwest;whiteSpace=wrap;html=1;" vertex="1" parent="iHgnJFZeqUVyhQBtMsIq-17">
          <mxGeometry y="301" width="210" height="26" as="geometry" />
        </mxCell>
        <mxCell id="iHgnJFZeqUVyhQBtMsIq-29" value="&lt;div&gt;+btnRiddleImageInput2: button&lt;/div&gt;" style="text;strokeColor=none;fillColor=none;align=left;verticalAlign=top;spacingLeft=4;spacingRight=4;overflow=hidden;rotatable=0;points=[[0,0.5],[1,0.5]];portConstraint=eastwest;whiteSpace=wrap;html=1;" vertex="1" parent="iHgnJFZeqUVyhQBtMsIq-17">
          <mxGeometry y="327" width="210" height="26" as="geometry" />
        </mxCell>
        <mxCell id="iHgnJFZeqUVyhQBtMsIq-30" value="&lt;div&gt;+btnRiddleImageInput3: button&lt;/div&gt;" style="text;strokeColor=none;fillColor=none;align=left;verticalAlign=top;spacingLeft=4;spacingRight=4;overflow=hidden;rotatable=0;points=[[0,0.5],[1,0.5]];portConstraint=eastwest;whiteSpace=wrap;html=1;" vertex="1" parent="iHgnJFZeqUVyhQBtMsIq-17">
          <mxGeometry y="353" width="210" height="26" as="geometry" />
        </mxCell>
        <mxCell id="iHgnJFZeqUVyhQBtMsIq-31" value="" style="line;strokeWidth=1;fillColor=none;align=left;verticalAlign=middle;spacingTop=-1;spacingLeft=3;spacingRight=3;rotatable=0;labelPosition=right;points=[];portConstraint=eastwest;strokeColor=inherit;" vertex="1" parent="iHgnJFZeqUVyhQBtMsIq-17">
          <mxGeometry y="379" width="210" height="8" as="geometry" />
        </mxCell>
        <mxCell id="iHgnJFZeqUVyhQBtMsIq-32" value="+btnReturnHomePress(): void" style="text;strokeColor=none;fillColor=none;align=left;verticalAlign=top;spacingLeft=4;spacingRight=4;overflow=hidden;rotatable=0;points=[[0,0.5],[1,0.5]];portConstraint=eastwest;whiteSpace=wrap;html=1;" vertex="1" parent="iHgnJFZeqUVyhQBtMsIq-17">
          <mxGeometry y="387" width="210" height="26" as="geometry" />
        </mxCell>
        <mxCell id="iHgnJFZeqUVyhQBtMsIq-33" value="+btnLogoutPress(): void" style="text;strokeColor=none;fillColor=none;align=left;verticalAlign=top;spacingLeft=4;spacingRight=4;overflow=hidden;rotatable=0;points=[[0,0.5],[1,0.5]];portConstraint=eastwest;whiteSpace=wrap;html=1;" vertex="1" parent="iHgnJFZeqUVyhQBtMsIq-17">
          <mxGeometry y="413" width="210" height="26" as="geometry" />
        </mxCell>
        <mxCell id="iHgnJFZeqUVyhQBtMsIq-34" value="+btnSettingsPress(): void" style="text;strokeColor=none;fillColor=none;align=left;verticalAlign=top;spacingLeft=4;spacingRight=4;overflow=hidden;rotatable=0;points=[[0,0.5],[1,0.5]];portConstraint=eastwest;whiteSpace=wrap;html=1;" vertex="1" parent="iHgnJFZeqUVyhQBtMsIq-17">
          <mxGeometry y="439" width="210" height="26" as="geometry" />
        </mxCell>
        <mxCell id="iHgnJFZeqUVyhQBtMsIq-35" value="+btnSubmitPress(): void" style="text;strokeColor=none;fillColor=none;align=left;verticalAlign=top;spacingLeft=4;spacingRight=4;overflow=hidden;rotatable=0;points=[[0,0.5],[1,0.5]];portConstraint=eastwest;whiteSpace=wrap;html=1;" vertex="1" parent="iHgnJFZeqUVyhQBtMsIq-17">
          <mxGeometry y="465" width="210" height="26" as="geometry" />
        </mxCell>
        <mxCell id="iHgnJFZeqUVyhQBtMsIq-36" value="+btnRiddleInput1Press(): void" style="text;strokeColor=none;fillColor=none;align=left;verticalAlign=top;spacingLeft=4;spacingRight=4;overflow=hidden;rotatable=0;points=[[0,0.5],[1,0.5]];portConstraint=eastwest;whiteSpace=wrap;html=1;" vertex="1" parent="iHgnJFZeqUVyhQBtMsIq-17">
          <mxGeometry y="491" width="210" height="26" as="geometry" />
        </mxCell>
        <mxCell id="iHgnJFZeqUVyhQBtMsIq-37" value="+btnRiddleInput2Press(): void" style="text;strokeColor=none;fillColor=none;align=left;verticalAlign=top;spacingLeft=4;spacingRight=4;overflow=hidden;rotatable=0;points=[[0,0.5],[1,0.5]];portConstraint=eastwest;whiteSpace=wrap;html=1;" vertex="1" parent="iHgnJFZeqUVyhQBtMsIq-17">
          <mxGeometry y="517" width="210" height="26" as="geometry" />
        </mxCell>
        <mxCell id="iHgnJFZeqUVyhQBtMsIq-38" value="+btnRiddleInput3Press(): void" style="text;strokeColor=none;fillColor=none;align=left;verticalAlign=top;spacingLeft=4;spacingRight=4;overflow=hidden;rotatable=0;points=[[0,0.5],[1,0.5]];portConstraint=eastwest;whiteSpace=wrap;html=1;" vertex="1" parent="iHgnJFZeqUVyhQBtMsIq-17">
          <mxGeometry y="543" width="210" height="26" as="geometry" />
        </mxCell>
        <mxCell id="iHgnJFZeqUVyhQBtMsIq-39" value="&lt;div&gt;+btnUploadImage1Press(): void&lt;/div&gt;" style="text;strokeColor=none;fillColor=#FFFFFF;align=left;verticalAlign=top;spacingLeft=4;spacingRight=4;overflow=hidden;rotatable=0;points=[[0,0.5],[1,0.5]];portConstraint=eastwest;whiteSpace=wrap;html=1;" vertex="1" parent="iHgnJFZeqUVyhQBtMsIq-17">
          <mxGeometry y="569" width="210" height="26" as="geometry" />
        </mxCell>
        <mxCell id="iHgnJFZeqUVyhQBtMsIq-40" value="&lt;div&gt;+btnUploadImage2Press(): void&lt;/div&gt;" style="text;strokeColor=none;fillColor=none;align=left;verticalAlign=top;spacingLeft=4;spacingRight=4;overflow=hidden;rotatable=0;points=[[0,0.5],[1,0.5]];portConstraint=eastwest;whiteSpace=wrap;html=1;" vertex="1" parent="iHgnJFZeqUVyhQBtMsIq-17">
          <mxGeometry y="595" width="210" height="26" as="geometry" />
        </mxCell>
        <mxCell id="iHgnJFZeqUVyhQBtMsIq-41" value="&lt;div&gt;+btnUploadImage3Press(): void&lt;/div&gt;" style="text;strokeColor=none;fillColor=none;align=left;verticalAlign=top;spacingLeft=4;spacingRight=4;overflow=hidden;rotatable=0;points=[[0,0.5],[1,0.5]];portConstraint=eastwest;whiteSpace=wrap;html=1;" vertex="1" parent="iHgnJFZeqUVyhQBtMsIq-17">
          <mxGeometry y="621" width="210" height="26" as="geometry" />
        </mxCell>
        <mxCell id="iHgnJFZeqUVyhQBtMsIq-42" value="&amp;lt;&amp;lt;Boundary&amp;gt;&amp;gt;&lt;div&gt;RiddleOptionsDialog&lt;/div&gt;" style="swimlane;fontStyle=1;align=center;verticalAlign=top;childLayout=stackLayout;horizontal=1;startSize=41;horizontalStack=0;resizeParent=1;resizeParentMax=0;resizeLast=0;collapsible=1;marginBottom=0;whiteSpace=wrap;html=1;fillColor=#CCCCFF;" vertex="1" parent="1">
          <mxGeometry x="-7173" y="-2553" width="210" height="387" as="geometry" />
        </mxCell>
        <mxCell id="iHgnJFZeqUVyhQBtMsIq-43" value="+btnReturnHome: button" style="text;strokeColor=none;fillColor=none;align=left;verticalAlign=top;spacingLeft=4;spacingRight=4;overflow=hidden;rotatable=0;points=[[0,0.5],[1,0.5]];portConstraint=eastwest;whiteSpace=wrap;html=1;" vertex="1" parent="iHgnJFZeqUVyhQBtMsIq-42">
          <mxGeometry y="41" width="210" height="26" as="geometry" />
        </mxCell>
        <mxCell id="iHgnJFZeqUVyhQBtMsIq-44" value="+btnLogout: button" style="text;strokeColor=none;fillColor=none;align=left;verticalAlign=top;spacingLeft=4;spacingRight=4;overflow=hidden;rotatable=0;points=[[0,0.5],[1,0.5]];portConstraint=eastwest;whiteSpace=wrap;html=1;" vertex="1" parent="iHgnJFZeqUVyhQBtMsIq-42">
          <mxGeometry y="67" width="210" height="26" as="geometry" />
        </mxCell>
        <mxCell id="iHgnJFZeqUVyhQBtMsIq-45" value="+btnSettings: button" style="text;strokeColor=none;fillColor=none;align=left;verticalAlign=top;spacingLeft=4;spacingRight=4;overflow=hidden;rotatable=0;points=[[0,0.5],[1,0.5]];portConstraint=eastwest;whiteSpace=wrap;html=1;" vertex="1" parent="iHgnJFZeqUVyhQBtMsIq-42">
          <mxGeometry y="93" width="210" height="26" as="geometry" />
        </mxCell>
        <mxCell id="iHgnJFZeqUVyhQBtMsIq-46" value="&lt;div&gt;+lblRiddleOptions: label&lt;/div&gt;" style="text;strokeColor=none;fillColor=none;align=left;verticalAlign=top;spacingLeft=4;spacingRight=4;overflow=hidden;rotatable=0;points=[[0,0.5],[1,0.5]];portConstraint=eastwest;whiteSpace=wrap;html=1;" vertex="1" parent="iHgnJFZeqUVyhQBtMsIq-42">
          <mxGeometry y="119" width="210" height="26" as="geometry" />
        </mxCell>
        <mxCell id="iHgnJFZeqUVyhQBtMsIq-47" value="&lt;div&gt;+btnChooseDefault: button&lt;/div&gt;" style="text;strokeColor=none;fillColor=none;align=left;verticalAlign=top;spacingLeft=4;spacingRight=4;overflow=hidden;rotatable=0;points=[[0,0.5],[1,0.5]];portConstraint=eastwest;whiteSpace=wrap;html=1;" vertex="1" parent="iHgnJFZeqUVyhQBtMsIq-42">
          <mxGeometry y="145" width="210" height="26" as="geometry" />
        </mxCell>
        <mxCell id="iHgnJFZeqUVyhQBtMsIq-48" value="&lt;div&gt;+btnCreateRiddles: button&lt;/div&gt;" style="text;strokeColor=none;fillColor=none;align=left;verticalAlign=top;spacingLeft=4;spacingRight=4;overflow=hidden;rotatable=0;points=[[0,0.5],[1,0.5]];portConstraint=eastwest;whiteSpace=wrap;html=1;" vertex="1" parent="iHgnJFZeqUVyhQBtMsIq-42">
          <mxGeometry y="171" width="210" height="26" as="geometry" />
        </mxCell>
        <mxCell id="iHgnJFZeqUVyhQBtMsIq-49" value="&lt;div&gt;+btnChooseDatabase: button&lt;/div&gt;" style="text;strokeColor=none;fillColor=none;align=left;verticalAlign=top;spacingLeft=4;spacingRight=4;overflow=hidden;rotatable=0;points=[[0,0.5],[1,0.5]];portConstraint=eastwest;whiteSpace=wrap;html=1;" vertex="1" parent="iHgnJFZeqUVyhQBtMsIq-42">
          <mxGeometry y="197" width="210" height="26" as="geometry" />
        </mxCell>
        <mxCell id="iHgnJFZeqUVyhQBtMsIq-50" value="" style="line;strokeWidth=1;fillColor=none;align=left;verticalAlign=middle;spacingTop=-1;spacingLeft=3;spacingRight=3;rotatable=0;labelPosition=right;points=[];portConstraint=eastwest;strokeColor=inherit;" vertex="1" parent="iHgnJFZeqUVyhQBtMsIq-42">
          <mxGeometry y="223" width="210" height="8" as="geometry" />
        </mxCell>
        <mxCell id="iHgnJFZeqUVyhQBtMsIq-51" value="+btnReturnHomePress(): void" style="text;strokeColor=none;fillColor=none;align=left;verticalAlign=top;spacingLeft=4;spacingRight=4;overflow=hidden;rotatable=0;points=[[0,0.5],[1,0.5]];portConstraint=eastwest;whiteSpace=wrap;html=1;" vertex="1" parent="iHgnJFZeqUVyhQBtMsIq-42">
          <mxGeometry y="231" width="210" height="26" as="geometry" />
        </mxCell>
        <mxCell id="iHgnJFZeqUVyhQBtMsIq-52" value="+btnLogoutPress(): void" style="text;strokeColor=none;fillColor=none;align=left;verticalAlign=top;spacingLeft=4;spacingRight=4;overflow=hidden;rotatable=0;points=[[0,0.5],[1,0.5]];portConstraint=eastwest;whiteSpace=wrap;html=1;" vertex="1" parent="iHgnJFZeqUVyhQBtMsIq-42">
          <mxGeometry y="257" width="210" height="26" as="geometry" />
        </mxCell>
        <mxCell id="iHgnJFZeqUVyhQBtMsIq-53" value="+btnSettingsPress(): void" style="text;strokeColor=none;fillColor=none;align=left;verticalAlign=top;spacingLeft=4;spacingRight=4;overflow=hidden;rotatable=0;points=[[0,0.5],[1,0.5]];portConstraint=eastwest;whiteSpace=wrap;html=1;" vertex="1" parent="iHgnJFZeqUVyhQBtMsIq-42">
          <mxGeometry y="283" width="210" height="26" as="geometry" />
        </mxCell>
        <mxCell id="iHgnJFZeqUVyhQBtMsIq-54" value="+btnChooseDefaultPress(): void" style="text;strokeColor=none;fillColor=none;align=left;verticalAlign=top;spacingLeft=4;spacingRight=4;overflow=hidden;rotatable=0;points=[[0,0.5],[1,0.5]];portConstraint=eastwest;whiteSpace=wrap;html=1;" vertex="1" parent="iHgnJFZeqUVyhQBtMsIq-42">
          <mxGeometry y="309" width="210" height="26" as="geometry" />
        </mxCell>
        <mxCell id="iHgnJFZeqUVyhQBtMsIq-55" value="+btnCreateRiddlePress(): void" style="text;strokeColor=none;fillColor=none;align=left;verticalAlign=top;spacingLeft=4;spacingRight=4;overflow=hidden;rotatable=0;points=[[0,0.5],[1,0.5]];portConstraint=eastwest;whiteSpace=wrap;html=1;" vertex="1" parent="iHgnJFZeqUVyhQBtMsIq-42">
          <mxGeometry y="335" width="210" height="26" as="geometry" />
        </mxCell>
        <mxCell id="iHgnJFZeqUVyhQBtMsIq-56" value="+btnChooseDatabasePress(): void" style="text;strokeColor=none;fillColor=none;align=left;verticalAlign=top;spacingLeft=4;spacingRight=4;overflow=hidden;rotatable=0;points=[[0,0.5],[1,0.5]];portConstraint=eastwest;whiteSpace=wrap;html=1;" vertex="1" parent="iHgnJFZeqUVyhQBtMsIq-42">
          <mxGeometry y="361" width="210" height="26" as="geometry" />
        </mxCell>
        <mxCell id="iHgnJFZeqUVyhQBtMsIq-57" value="&amp;lt;&amp;lt;Boundary&amp;gt;&amp;gt;&lt;div&gt;AnwerRiddleDialog&lt;/div&gt;" style="swimlane;fontStyle=1;align=center;verticalAlign=top;childLayout=stackLayout;horizontal=1;startSize=41;horizontalStack=0;resizeParent=1;resizeParentMax=0;resizeLast=0;collapsible=1;marginBottom=0;whiteSpace=wrap;html=1;fillColor=#CCCCFF;" vertex="1" parent="1">
          <mxGeometry x="-6889" y="-2459" width="210" height="307" as="geometry" />
        </mxCell>
        <mxCell id="iHgnJFZeqUVyhQBtMsIq-58" value="&lt;div&gt;+btnReturnHome: button&lt;/div&gt;" style="text;strokeColor=none;fillColor=none;align=left;verticalAlign=top;spacingLeft=4;spacingRight=4;overflow=hidden;rotatable=0;points=[[0,0.5],[1,0.5]];portConstraint=eastwest;whiteSpace=wrap;html=1;" vertex="1" parent="iHgnJFZeqUVyhQBtMsIq-57">
          <mxGeometry y="41" width="210" height="24" as="geometry" />
        </mxCell>
        <mxCell id="iHgnJFZeqUVyhQBtMsIq-59" value="&lt;div&gt;+txtRiddleContent: text&lt;/div&gt;" style="text;strokeColor=none;fillColor=none;align=left;verticalAlign=top;spacingLeft=4;spacingRight=4;overflow=hidden;rotatable=0;points=[[0,0.5],[1,0.5]];portConstraint=eastwest;whiteSpace=wrap;html=1;" vertex="1" parent="iHgnJFZeqUVyhQBtMsIq-57">
          <mxGeometry y="65" width="210" height="26" as="geometry" />
        </mxCell>
        <mxCell id="iHgnJFZeqUVyhQBtMsIq-60" value="&lt;div&gt;+lblRiddleName: label&lt;/div&gt;" style="text;strokeColor=none;fillColor=none;align=left;verticalAlign=top;spacingLeft=4;spacingRight=4;overflow=hidden;rotatable=0;points=[[0,0.5],[1,0.5]];portConstraint=eastwest;whiteSpace=wrap;html=1;" vertex="1" parent="iHgnJFZeqUVyhQBtMsIq-57">
          <mxGeometry y="91" width="210" height="26" as="geometry" />
        </mxCell>
        <mxCell id="iHgnJFZeqUVyhQBtMsIq-61" value="&lt;div&gt;+imgRiddleImage: image&lt;/div&gt;" style="text;strokeColor=none;fillColor=none;align=left;verticalAlign=top;spacingLeft=4;spacingRight=4;overflow=hidden;rotatable=0;points=[[0,0.5],[1,0.5]];portConstraint=eastwest;whiteSpace=wrap;html=1;" vertex="1" parent="iHgnJFZeqUVyhQBtMsIq-57">
          <mxGeometry y="117" width="210" height="26" as="geometry" />
        </mxCell>
        <mxCell id="iHgnJFZeqUVyhQBtMsIq-62" value="&lt;div&gt;+btnRiddleAnswerInput: button&lt;/div&gt;" style="text;strokeColor=none;fillColor=none;align=left;verticalAlign=top;spacingLeft=4;spacingRight=4;overflow=hidden;rotatable=0;points=[[0,0.5],[1,0.5]];portConstraint=eastwest;whiteSpace=wrap;html=1;" vertex="1" parent="iHgnJFZeqUVyhQBtMsIq-57">
          <mxGeometry y="143" width="210" height="26" as="geometry" />
        </mxCell>
        <mxCell id="iHgnJFZeqUVyhQBtMsIq-63" value="&lt;div&gt;+btnEnter: button&lt;/div&gt;" style="text;strokeColor=none;fillColor=none;align=left;verticalAlign=top;spacingLeft=4;spacingRight=4;overflow=hidden;rotatable=0;points=[[0,0.5],[1,0.5]];portConstraint=eastwest;whiteSpace=wrap;html=1;" vertex="1" parent="iHgnJFZeqUVyhQBtMsIq-57">
          <mxGeometry y="169" width="210" height="26" as="geometry" />
        </mxCell>
        <mxCell id="iHgnJFZeqUVyhQBtMsIq-64" value="&lt;div&gt;+lblSubmitAnswer: label&lt;/div&gt;" style="text;strokeColor=none;fillColor=none;align=left;verticalAlign=top;spacingLeft=4;spacingRight=4;overflow=hidden;rotatable=0;points=[[0,0.5],[1,0.5]];portConstraint=eastwest;whiteSpace=wrap;html=1;" vertex="1" parent="iHgnJFZeqUVyhQBtMsIq-57">
          <mxGeometry y="195" width="210" height="26" as="geometry" />
        </mxCell>
        <mxCell id="iHgnJFZeqUVyhQBtMsIq-65" value="" style="line;strokeWidth=1;fillColor=none;align=left;verticalAlign=middle;spacingTop=-1;spacingLeft=3;spacingRight=3;rotatable=0;labelPosition=right;points=[];portConstraint=eastwest;strokeColor=inherit;" vertex="1" parent="iHgnJFZeqUVyhQBtMsIq-57">
          <mxGeometry y="221" width="210" height="8" as="geometry" />
        </mxCell>
        <mxCell id="iHgnJFZeqUVyhQBtMsIq-66" value="+btnReturnHomePress(): void" style="text;strokeColor=none;fillColor=none;align=left;verticalAlign=top;spacingLeft=4;spacingRight=4;overflow=hidden;rotatable=0;points=[[0,0.5],[1,0.5]];portConstraint=eastwest;whiteSpace=wrap;html=1;" vertex="1" parent="iHgnJFZeqUVyhQBtMsIq-57">
          <mxGeometry y="229" width="210" height="26" as="geometry" />
        </mxCell>
        <mxCell id="iHgnJFZeqUVyhQBtMsIq-67" value="+btnRiddleAnswerInputPress(): void" style="text;strokeColor=none;fillColor=none;align=left;verticalAlign=top;spacingLeft=4;spacingRight=4;overflow=hidden;rotatable=0;points=[[0,0.5],[1,0.5]];portConstraint=eastwest;whiteSpace=wrap;html=1;" vertex="1" parent="iHgnJFZeqUVyhQBtMsIq-57">
          <mxGeometry y="255" width="210" height="26" as="geometry" />
        </mxCell>
        <mxCell id="iHgnJFZeqUVyhQBtMsIq-68" value="+btnEnterPress(): void" style="text;strokeColor=none;fillColor=none;align=left;verticalAlign=top;spacingLeft=4;spacingRight=4;overflow=hidden;rotatable=0;points=[[0,0.5],[1,0.5]];portConstraint=eastwest;whiteSpace=wrap;html=1;" vertex="1" parent="iHgnJFZeqUVyhQBtMsIq-57">
          <mxGeometry y="281" width="210" height="26" as="geometry" />
        </mxCell>
        <mxCell id="iHgnJFZeqUVyhQBtMsIq-69" value="&amp;lt;&amp;lt;Boundary&amp;gt;&amp;gt;&lt;div&gt;FinalCongratulationsUI&lt;/div&gt;" style="swimlane;fontStyle=1;align=center;verticalAlign=top;childLayout=stackLayout;horizontal=1;startSize=41;horizontalStack=0;resizeParent=1;resizeParentMax=0;resizeLast=0;collapsible=1;marginBottom=0;whiteSpace=wrap;html=1;fillColor=#CCCCFF;" vertex="1" parent="1">
          <mxGeometry x="-7153" y="-2761" width="270" height="151" as="geometry" />
        </mxCell>
        <mxCell id="iHgnJFZeqUVyhQBtMsIq-70" value="&lt;div&gt;+btnReturnHome: button&lt;/div&gt;" style="text;strokeColor=none;fillColor=none;align=left;verticalAlign=top;spacingLeft=4;spacingRight=4;overflow=hidden;rotatable=0;points=[[0,0.5],[1,0.5]];portConstraint=eastwest;whiteSpace=wrap;html=1;" vertex="1" parent="iHgnJFZeqUVyhQBtMsIq-69">
          <mxGeometry y="41" width="270" height="24" as="geometry" />
        </mxCell>
        <mxCell id="iHgnJFZeqUVyhQBtMsIq-71" value="&lt;div&gt;+lblCongratulations: label&lt;/div&gt;" style="text;strokeColor=none;fillColor=none;align=left;verticalAlign=top;spacingLeft=4;spacingRight=4;overflow=hidden;rotatable=0;points=[[0,0.5],[1,0.5]];portConstraint=eastwest;whiteSpace=wrap;html=1;" vertex="1" parent="iHgnJFZeqUVyhQBtMsIq-69">
          <mxGeometry y="65" width="270" height="26" as="geometry" />
        </mxCell>
        <mxCell id="iHgnJFZeqUVyhQBtMsIq-72" value="&lt;div&gt;+lblYouHaveReachedTheEndOfTheStory: label&lt;/div&gt;" style="text;strokeColor=none;fillColor=none;align=left;verticalAlign=top;spacingLeft=4;spacingRight=4;overflow=hidden;rotatable=0;points=[[0,0.5],[1,0.5]];portConstraint=eastwest;whiteSpace=wrap;html=1;" vertex="1" parent="iHgnJFZeqUVyhQBtMsIq-69">
          <mxGeometry y="91" width="270" height="26" as="geometry" />
        </mxCell>
        <mxCell id="iHgnJFZeqUVyhQBtMsIq-73" value="" style="line;strokeWidth=1;fillColor=none;align=left;verticalAlign=middle;spacingTop=-1;spacingLeft=3;spacingRight=3;rotatable=0;labelPosition=right;points=[];portConstraint=eastwest;strokeColor=inherit;" vertex="1" parent="iHgnJFZeqUVyhQBtMsIq-69">
          <mxGeometry y="117" width="270" height="8" as="geometry" />
        </mxCell>
        <mxCell id="iHgnJFZeqUVyhQBtMsIq-74" value="+btnReturnHomePress(): void" style="text;strokeColor=none;fillColor=none;align=left;verticalAlign=top;spacingLeft=4;spacingRight=4;overflow=hidden;rotatable=0;points=[[0,0.5],[1,0.5]];portConstraint=eastwest;whiteSpace=wrap;html=1;" vertex="1" parent="iHgnJFZeqUVyhQBtMsIq-69">
          <mxGeometry y="125" width="270" height="26" as="geometry" />
        </mxCell>
        <mxCell id="iHgnJFZeqUVyhQBtMsIq-75" value="&amp;lt;&amp;lt;Boundary&amp;gt;&amp;gt;&lt;div&gt;ChooseDatabaseRiddleDialog&lt;/div&gt;" style="swimlane;fontStyle=1;align=center;verticalAlign=top;childLayout=stackLayout;horizontal=1;startSize=41;horizontalStack=0;resizeParent=1;resizeParentMax=0;resizeLast=0;collapsible=1;marginBottom=0;whiteSpace=wrap;html=1;fillColor=#CCCCFF;" vertex="1" parent="1">
          <mxGeometry x="-7443" y="-3037" width="210" height="517" as="geometry" />
        </mxCell>
        <mxCell id="iHgnJFZeqUVyhQBtMsIq-76" value="+btnReturnHome: button" style="text;strokeColor=none;fillColor=none;align=left;verticalAlign=top;spacingLeft=4;spacingRight=4;overflow=hidden;rotatable=0;points=[[0,0.5],[1,0.5]];portConstraint=eastwest;whiteSpace=wrap;html=1;" vertex="1" parent="iHgnJFZeqUVyhQBtMsIq-75">
          <mxGeometry y="41" width="210" height="26" as="geometry" />
        </mxCell>
        <mxCell id="iHgnJFZeqUVyhQBtMsIq-77" value="+btnLogout: button" style="text;strokeColor=none;fillColor=none;align=left;verticalAlign=top;spacingLeft=4;spacingRight=4;overflow=hidden;rotatable=0;points=[[0,0.5],[1,0.5]];portConstraint=eastwest;whiteSpace=wrap;html=1;" vertex="1" parent="iHgnJFZeqUVyhQBtMsIq-75">
          <mxGeometry y="67" width="210" height="26" as="geometry" />
        </mxCell>
        <mxCell id="iHgnJFZeqUVyhQBtMsIq-78" value="+btnSettings: button" style="text;strokeColor=none;fillColor=none;align=left;verticalAlign=top;spacingLeft=4;spacingRight=4;overflow=hidden;rotatable=0;points=[[0,0.5],[1,0.5]];portConstraint=eastwest;whiteSpace=wrap;html=1;" vertex="1" parent="iHgnJFZeqUVyhQBtMsIq-75">
          <mxGeometry y="93" width="210" height="26" as="geometry" />
        </mxCell>
        <mxCell id="iHgnJFZeqUVyhQBtMsIq-79" value="&lt;div&gt;+btnSubmit: button&lt;/div&gt;" style="text;strokeColor=none;fillColor=none;align=left;verticalAlign=top;spacingLeft=4;spacingRight=4;overflow=hidden;rotatable=0;points=[[0,0.5],[1,0.5]];portConstraint=eastwest;whiteSpace=wrap;html=1;" vertex="1" parent="iHgnJFZeqUVyhQBtMsIq-75">
          <mxGeometry y="119" width="210" height="26" as="geometry" />
        </mxCell>
        <mxCell id="iHgnJFZeqUVyhQBtMsIq-80" value="&lt;div&gt;+btnDownArrow: button&lt;/div&gt;" style="text;strokeColor=none;fillColor=none;align=left;verticalAlign=top;spacingLeft=4;spacingRight=4;overflow=hidden;rotatable=0;points=[[0,0.5],[1,0.5]];portConstraint=eastwest;whiteSpace=wrap;html=1;" vertex="1" parent="iHgnJFZeqUVyhQBtMsIq-75">
          <mxGeometry y="145" width="210" height="26" as="geometry" />
        </mxCell>
        <mxCell id="iHgnJFZeqUVyhQBtMsIq-81" value="&lt;div&gt;+lblRiddleTitle1: label&lt;/div&gt;" style="text;strokeColor=none;fillColor=none;align=left;verticalAlign=top;spacingLeft=4;spacingRight=4;overflow=hidden;rotatable=0;points=[[0,0.5],[1,0.5]];portConstraint=eastwest;whiteSpace=wrap;html=1;" vertex="1" parent="iHgnJFZeqUVyhQBtMsIq-75">
          <mxGeometry y="171" width="210" height="26" as="geometry" />
        </mxCell>
        <mxCell id="iHgnJFZeqUVyhQBtMsIq-82" value="&lt;div&gt;+lblRiddleTitle2: label&lt;/div&gt;" style="text;strokeColor=none;fillColor=none;align=left;verticalAlign=top;spacingLeft=4;spacingRight=4;overflow=hidden;rotatable=0;points=[[0,0.5],[1,0.5]];portConstraint=eastwest;whiteSpace=wrap;html=1;" vertex="1" parent="iHgnJFZeqUVyhQBtMsIq-75">
          <mxGeometry y="197" width="210" height="26" as="geometry" />
        </mxCell>
        <mxCell id="iHgnJFZeqUVyhQBtMsIq-83" value="&lt;div&gt;+lblRiddleTitle3: label&lt;/div&gt;" style="text;strokeColor=none;fillColor=none;align=left;verticalAlign=top;spacingLeft=4;spacingRight=4;overflow=hidden;rotatable=0;points=[[0,0.5],[1,0.5]];portConstraint=eastwest;whiteSpace=wrap;html=1;" vertex="1" parent="iHgnJFZeqUVyhQBtMsIq-75">
          <mxGeometry y="223" width="210" height="26" as="geometry" />
        </mxCell>
        <mxCell id="iHgnJFZeqUVyhQBtMsIq-84" value="&lt;div&gt;+txtRiddleContent1: text&lt;/div&gt;" style="text;strokeColor=none;fillColor=none;align=left;verticalAlign=top;spacingLeft=4;spacingRight=4;overflow=hidden;rotatable=0;points=[[0,0.5],[1,0.5]];portConstraint=eastwest;whiteSpace=wrap;html=1;" vertex="1" parent="iHgnJFZeqUVyhQBtMsIq-75">
          <mxGeometry y="249" width="210" height="26" as="geometry" />
        </mxCell>
        <mxCell id="iHgnJFZeqUVyhQBtMsIq-85" value="&lt;div&gt;+txtRiddleContent2: text&lt;/div&gt;" style="text;strokeColor=none;fillColor=none;align=left;verticalAlign=top;spacingLeft=4;spacingRight=4;overflow=hidden;rotatable=0;points=[[0,0.5],[1,0.5]];portConstraint=eastwest;whiteSpace=wrap;html=1;" vertex="1" parent="iHgnJFZeqUVyhQBtMsIq-75">
          <mxGeometry y="275" width="210" height="26" as="geometry" />
        </mxCell>
        <mxCell id="iHgnJFZeqUVyhQBtMsIq-86" value="&lt;div&gt;+txtRiddleContent3: text&lt;/div&gt;" style="text;strokeColor=none;fillColor=none;align=left;verticalAlign=top;spacingLeft=4;spacingRight=4;overflow=hidden;rotatable=0;points=[[0,0.5],[1,0.5]];portConstraint=eastwest;whiteSpace=wrap;html=1;" vertex="1" parent="iHgnJFZeqUVyhQBtMsIq-75">
          <mxGeometry y="301" width="210" height="26" as="geometry" />
        </mxCell>
        <mxCell id="iHgnJFZeqUVyhQBtMsIq-87" value="&lt;div&gt;+btnExpand: button&lt;/div&gt;" style="text;strokeColor=none;fillColor=none;align=left;verticalAlign=top;spacingLeft=4;spacingRight=4;overflow=hidden;rotatable=0;points=[[0,0.5],[1,0.5]];portConstraint=eastwest;whiteSpace=wrap;html=1;" vertex="1" parent="iHgnJFZeqUVyhQBtMsIq-75">
          <mxGeometry y="327" width="210" height="26" as="geometry" />
        </mxCell>
        <mxCell id="iHgnJFZeqUVyhQBtMsIq-88" value="" style="line;strokeWidth=1;fillColor=none;align=left;verticalAlign=middle;spacingTop=-1;spacingLeft=3;spacingRight=3;rotatable=0;labelPosition=right;points=[];portConstraint=eastwest;strokeColor=inherit;" vertex="1" parent="iHgnJFZeqUVyhQBtMsIq-75">
          <mxGeometry y="353" width="210" height="8" as="geometry" />
        </mxCell>
        <mxCell id="iHgnJFZeqUVyhQBtMsIq-89" value="+btnReturnHomePress(): void" style="text;strokeColor=none;fillColor=none;align=left;verticalAlign=top;spacingLeft=4;spacingRight=4;overflow=hidden;rotatable=0;points=[[0,0.5],[1,0.5]];portConstraint=eastwest;whiteSpace=wrap;html=1;" vertex="1" parent="iHgnJFZeqUVyhQBtMsIq-75">
          <mxGeometry y="361" width="210" height="26" as="geometry" />
        </mxCell>
        <mxCell id="iHgnJFZeqUVyhQBtMsIq-90" value="+btnLogoutPress(): void" style="text;strokeColor=none;fillColor=none;align=left;verticalAlign=top;spacingLeft=4;spacingRight=4;overflow=hidden;rotatable=0;points=[[0,0.5],[1,0.5]];portConstraint=eastwest;whiteSpace=wrap;html=1;" vertex="1" parent="iHgnJFZeqUVyhQBtMsIq-75">
          <mxGeometry y="387" width="210" height="26" as="geometry" />
        </mxCell>
        <mxCell id="iHgnJFZeqUVyhQBtMsIq-91" value="+btnSettingsPress(): void" style="text;strokeColor=none;fillColor=none;align=left;verticalAlign=top;spacingLeft=4;spacingRight=4;overflow=hidden;rotatable=0;points=[[0,0.5],[1,0.5]];portConstraint=eastwest;whiteSpace=wrap;html=1;" vertex="1" parent="iHgnJFZeqUVyhQBtMsIq-75">
          <mxGeometry y="413" width="210" height="26" as="geometry" />
        </mxCell>
        <mxCell id="iHgnJFZeqUVyhQBtMsIq-92" value="+btnSubmitPress(): void" style="text;strokeColor=none;fillColor=none;align=left;verticalAlign=top;spacingLeft=4;spacingRight=4;overflow=hidden;rotatable=0;points=[[0,0.5],[1,0.5]];portConstraint=eastwest;whiteSpace=wrap;html=1;" vertex="1" parent="iHgnJFZeqUVyhQBtMsIq-75">
          <mxGeometry y="439" width="210" height="26" as="geometry" />
        </mxCell>
        <mxCell id="iHgnJFZeqUVyhQBtMsIq-93" value="+btnDownArrowPress(): void" style="text;strokeColor=none;fillColor=none;align=left;verticalAlign=top;spacingLeft=4;spacingRight=4;overflow=hidden;rotatable=0;points=[[0,0.5],[1,0.5]];portConstraint=eastwest;whiteSpace=wrap;html=1;" vertex="1" parent="iHgnJFZeqUVyhQBtMsIq-75">
          <mxGeometry y="465" width="210" height="26" as="geometry" />
        </mxCell>
        <mxCell id="iHgnJFZeqUVyhQBtMsIq-94" value="+btnExpandPress(): void" style="text;strokeColor=none;fillColor=none;align=left;verticalAlign=top;spacingLeft=4;spacingRight=4;overflow=hidden;rotatable=0;points=[[0,0.5],[1,0.5]];portConstraint=eastwest;whiteSpace=wrap;html=1;" vertex="1" parent="iHgnJFZeqUVyhQBtMsIq-75">
          <mxGeometry y="491" width="210" height="26" as="geometry" />
        </mxCell>
        <mxCell id="iHgnJFZeqUVyhQBtMsIq-95" value="" style="endArrow=open;endFill=1;endSize=12;html=1;rounded=0;exitX=1;exitY=0.5;exitDx=0;exitDy=0;entryX=0;entryY=0.5;entryDx=0;entryDy=0;" edge="1" parent="1" source="iHgnJFZeqUVyhQBtMsIq-71" target="iHgnJFZeqUVyhQBtMsIq-6">
          <mxGeometry width="160" relative="1" as="geometry">
            <mxPoint x="-6223" y="-3317" as="sourcePoint" />
            <mxPoint x="-6144" y="-3145" as="targetPoint" />
          </mxGeometry>
        </mxCell>
        <mxCell id="iHgnJFZeqUVyhQBtMsIq-96" value="" style="endArrow=open;endFill=1;endSize=12;html=1;rounded=0;exitX=1;exitY=0.5;exitDx=0;exitDy=0;entryX=0;entryY=0.5;entryDx=0;entryDy=0;" edge="1" parent="1" source="iHgnJFZeqUVyhQBtMsIq-84" target="iHgnJFZeqUVyhQBtMsIq-6">
          <mxGeometry width="160" relative="1" as="geometry">
            <mxPoint x="-6213" y="-3307" as="sourcePoint" />
            <mxPoint x="-6134" y="-3135" as="targetPoint" />
          </mxGeometry>
        </mxCell>
        <mxCell id="iHgnJFZeqUVyhQBtMsIq-97" value="" style="endArrow=open;endFill=1;endSize=12;html=1;rounded=0;exitX=1;exitY=0.5;exitDx=0;exitDy=0;entryX=0;entryY=0.5;entryDx=0;entryDy=0;" edge="1" parent="1" source="iHgnJFZeqUVyhQBtMsIq-59" target="iHgnJFZeqUVyhQBtMsIq-6">
          <mxGeometry width="160" relative="1" as="geometry">
            <mxPoint x="-6203" y="-3297" as="sourcePoint" />
            <mxPoint x="-6353" y="-2767" as="targetPoint" />
          </mxGeometry>
        </mxCell>
        <mxCell id="iHgnJFZeqUVyhQBtMsIq-98" value="" style="endArrow=open;endFill=1;endSize=12;html=1;rounded=0;exitX=1;exitY=0.5;exitDx=0;exitDy=0;entryX=0;entryY=0.5;entryDx=0;entryDy=0;" edge="1" parent="1" source="iHgnJFZeqUVyhQBtMsIq-28" target="iHgnJFZeqUVyhQBtMsIq-6">
          <mxGeometry width="160" relative="1" as="geometry">
            <mxPoint x="-6183" y="-3277" as="sourcePoint" />
            <mxPoint x="-6313" y="-2867" as="targetPoint" />
          </mxGeometry>
        </mxCell>
        <mxCell id="iHgnJFZeqUVyhQBtMsIq-99" value="&amp;lt;&amp;lt;Entity&amp;gt;&amp;gt;&lt;div&gt;Riddle&lt;/div&gt;" style="swimlane;fontStyle=1;align=center;verticalAlign=top;childLayout=stackLayout;horizontal=1;startSize=41;horizontalStack=0;resizeParent=1;resizeParentMax=0;resizeLast=0;collapsible=1;marginBottom=0;whiteSpace=wrap;html=1;fillColor=#9AC7BF;" vertex="1" parent="1">
          <mxGeometry x="-6364.5" y="-2317" width="314.5" height="463" as="geometry" />
        </mxCell>
        <mxCell id="iHgnJFZeqUVyhQBtMsIq-100" value="+correct_answer: String&lt;div&gt;&lt;br&gt;&lt;/div&gt;" style="text;strokeColor=none;fillColor=none;align=left;verticalAlign=top;spacingLeft=4;spacingRight=4;overflow=hidden;rotatable=0;points=[[0,0.5],[1,0.5]];portConstraint=eastwest;whiteSpace=wrap;html=1;" vertex="1" parent="iHgnJFZeqUVyhQBtMsIq-99">
          <mxGeometry y="41" width="314.5" height="24" as="geometry" />
        </mxCell>
        <mxCell id="iHgnJFZeqUVyhQBtMsIq-101" value="+riddle_type: RiddleType&amp;nbsp;&lt;div&gt;&lt;br&gt;&lt;/div&gt;&lt;div&gt;&lt;br&gt;&lt;/div&gt;" style="text;strokeColor=none;fillColor=none;align=left;verticalAlign=top;spacingLeft=4;spacingRight=4;overflow=hidden;rotatable=0;points=[[0,0.5],[1,0.5]];portConstraint=eastwest;whiteSpace=wrap;html=1;" vertex="1" parent="iHgnJFZeqUVyhQBtMsIq-99">
          <mxGeometry y="65" width="314.5" height="26" as="geometry" />
        </mxCell>
        <mxCell id="iHgnJFZeqUVyhQBtMsIq-102" value="+answered : boolean&lt;div&gt;&lt;br&gt;&lt;/div&gt;&lt;div&gt;&lt;br&gt;&lt;/div&gt;" style="text;strokeColor=none;fillColor=none;align=left;verticalAlign=top;spacingLeft=4;spacingRight=4;overflow=hidden;rotatable=0;points=[[0,0.5],[1,0.5]];portConstraint=eastwest;whiteSpace=wrap;html=1;" vertex="1" parent="iHgnJFZeqUVyhQBtMsIq-99">
          <mxGeometry y="91" width="314.5" height="26" as="geometry" />
        </mxCell>
        <mxCell id="iHgnJFZeqUVyhQBtMsIq-103" value="+riddle_content : String&lt;div&gt;&lt;br&gt;&lt;/div&gt;" style="text;strokeColor=none;fillColor=none;align=left;verticalAlign=top;spacingLeft=4;spacingRight=4;overflow=hidden;rotatable=0;points=[[0,0.5],[1,0.5]];portConstraint=eastwest;whiteSpace=wrap;html=1;" vertex="1" parent="iHgnJFZeqUVyhQBtMsIq-99">
          <mxGeometry y="117" width="314.5" height="26" as="geometry" />
        </mxCell>
        <mxCell id="iHgnJFZeqUVyhQBtMsIq-104" value="+id: Integer&lt;div&gt;&lt;br&gt;&lt;/div&gt;" style="text;strokeColor=none;fillColor=none;align=left;verticalAlign=top;spacingLeft=4;spacingRight=4;overflow=hidden;rotatable=0;points=[[0,0.5],[1,0.5]];portConstraint=eastwest;whiteSpace=wrap;html=1;" vertex="1" parent="iHgnJFZeqUVyhQBtMsIq-99">
          <mxGeometry y="143" width="314.5" height="26" as="geometry" />
        </mxCell>
        <mxCell id="iHgnJFZeqUVyhQBtMsIq-105" value="" style="line;strokeWidth=1;fillColor=none;align=left;verticalAlign=middle;spacingTop=-1;spacingLeft=3;spacingRight=3;rotatable=0;labelPosition=right;points=[];portConstraint=eastwest;strokeColor=inherit;" vertex="1" parent="iHgnJFZeqUVyhQBtMsIq-99">
          <mxGeometry y="169" width="314.5" height="8" as="geometry" />
        </mxCell>
        <mxCell id="iHgnJFZeqUVyhQBtMsIq-106" value="+Riddle(): void" style="text;strokeColor=none;fillColor=none;align=left;verticalAlign=top;spacingLeft=4;spacingRight=4;overflow=hidden;rotatable=0;points=[[0,0.5],[1,0.5]];portConstraint=eastwest;whiteSpace=wrap;html=1;" vertex="1" parent="iHgnJFZeqUVyhQBtMsIq-99">
          <mxGeometry y="177" width="314.5" height="26" as="geometry" />
        </mxCell>
        <mxCell id="iHgnJFZeqUVyhQBtMsIq-107" value="+getCorrectAnswer(): String" style="text;strokeColor=none;fillColor=none;align=left;verticalAlign=top;spacingLeft=4;spacingRight=4;overflow=hidden;rotatable=0;points=[[0,0.5],[1,0.5]];portConstraint=eastwest;whiteSpace=wrap;html=1;" vertex="1" parent="iHgnJFZeqUVyhQBtMsIq-99">
          <mxGeometry y="203" width="314.5" height="26" as="geometry" />
        </mxCell>
        <mxCell id="iHgnJFZeqUVyhQBtMsIq-108" value="+setCorrectAnswer(correctAnswer: String): void" style="text;strokeColor=none;fillColor=none;align=left;verticalAlign=top;spacingLeft=4;spacingRight=4;overflow=hidden;rotatable=0;points=[[0,0.5],[1,0.5]];portConstraint=eastwest;whiteSpace=wrap;html=1;" vertex="1" parent="iHgnJFZeqUVyhQBtMsIq-99">
          <mxGeometry y="229" width="314.5" height="26" as="geometry" />
        </mxCell>
        <mxCell id="iHgnJFZeqUVyhQBtMsIq-109" value="+getRiddleType(): RiddleType&amp;nbsp;&lt;div&gt;&lt;br&gt;&lt;/div&gt;&lt;div&gt;&lt;br&gt;&lt;/div&gt;)" style="text;strokeColor=none;fillColor=none;align=left;verticalAlign=top;spacingLeft=4;spacingRight=4;overflow=hidden;rotatable=0;points=[[0,0.5],[1,0.5]];portConstraint=eastwest;whiteSpace=wrap;html=1;" vertex="1" parent="iHgnJFZeqUVyhQBtMsIq-99">
          <mxGeometry y="255" width="314.5" height="26" as="geometry" />
        </mxCell>
        <mxCell id="iHgnJFZeqUVyhQBtMsIq-110" value="+setRiddleType(riddleType: RiddleType): void&amp;nbsp;&lt;div&gt;&lt;br&gt;&lt;/div&gt;&lt;div&gt;&lt;br&gt;&lt;/div&gt;)" style="text;strokeColor=none;fillColor=none;align=left;verticalAlign=top;spacingLeft=4;spacingRight=4;overflow=hidden;rotatable=0;points=[[0,0.5],[1,0.5]];portConstraint=eastwest;whiteSpace=wrap;html=1;" vertex="1" parent="iHgnJFZeqUVyhQBtMsIq-99">
          <mxGeometry y="281" width="314.5" height="26" as="geometry" />
        </mxCell>
        <mxCell id="iHgnJFZeqUVyhQBtMsIq-111" value="+getAnswered(): Boolean" style="text;strokeColor=none;fillColor=none;align=left;verticalAlign=top;spacingLeft=4;spacingRight=4;overflow=hidden;rotatable=0;points=[[0,0.5],[1,0.5]];portConstraint=eastwest;whiteSpace=wrap;html=1;" vertex="1" parent="iHgnJFZeqUVyhQBtMsIq-99">
          <mxGeometry y="307" width="314.5" height="26" as="geometry" />
        </mxCell>
        <mxCell id="iHgnJFZeqUVyhQBtMsIq-112" value="+setAnswered(answered: Boolean): void" style="text;strokeColor=none;fillColor=none;align=left;verticalAlign=top;spacingLeft=4;spacingRight=4;overflow=hidden;rotatable=0;points=[[0,0.5],[1,0.5]];portConstraint=eastwest;whiteSpace=wrap;html=1;" vertex="1" parent="iHgnJFZeqUVyhQBtMsIq-99">
          <mxGeometry y="333" width="314.5" height="26" as="geometry" />
        </mxCell>
        <mxCell id="iHgnJFZeqUVyhQBtMsIq-113" value="+getRiddleContent(): String" style="text;strokeColor=none;fillColor=none;align=left;verticalAlign=top;spacingLeft=4;spacingRight=4;overflow=hidden;rotatable=0;points=[[0,0.5],[1,0.5]];portConstraint=eastwest;whiteSpace=wrap;html=1;" vertex="1" parent="iHgnJFZeqUVyhQBtMsIq-99">
          <mxGeometry y="359" width="314.5" height="26" as="geometry" />
        </mxCell>
        <mxCell id="iHgnJFZeqUVyhQBtMsIq-114" value="+setRiddleContent(riddleContent: String): void" style="text;strokeColor=none;fillColor=none;align=left;verticalAlign=top;spacingLeft=4;spacingRight=4;overflow=hidden;rotatable=0;points=[[0,0.5],[1,0.5]];portConstraint=eastwest;whiteSpace=wrap;html=1;" vertex="1" parent="iHgnJFZeqUVyhQBtMsIq-99">
          <mxGeometry y="385" width="314.5" height="26" as="geometry" />
        </mxCell>
        <mxCell id="iHgnJFZeqUVyhQBtMsIq-115" value="+getId(): Integer" style="text;strokeColor=none;fillColor=none;align=left;verticalAlign=top;spacingLeft=4;spacingRight=4;overflow=hidden;rotatable=0;points=[[0,0.5],[1,0.5]];portConstraint=eastwest;whiteSpace=wrap;html=1;" vertex="1" parent="iHgnJFZeqUVyhQBtMsIq-99">
          <mxGeometry y="411" width="314.5" height="26" as="geometry" />
        </mxCell>
        <mxCell id="iHgnJFZeqUVyhQBtMsIq-116" value="+setId(id: Integer): void" style="text;strokeColor=none;fillColor=none;align=left;verticalAlign=top;spacingLeft=4;spacingRight=4;overflow=hidden;rotatable=0;points=[[0,0.5],[1,0.5]];portConstraint=eastwest;whiteSpace=wrap;html=1;" vertex="1" parent="iHgnJFZeqUVyhQBtMsIq-99">
          <mxGeometry y="437" width="314.5" height="26" as="geometry" />
        </mxCell>
        <mxCell id="iHgnJFZeqUVyhQBtMsIq-117" value="&amp;lt;&amp;lt;enumeration&amp;gt;&amp;gt;&lt;div&gt;RiddleType&lt;/div&gt;" style="swimlane;fontStyle=1;align=center;verticalAlign=top;childLayout=stackLayout;horizontal=1;startSize=42;horizontalStack=0;resizeParent=1;resizeParentMax=0;resizeLast=0;collapsible=1;marginBottom=0;whiteSpace=wrap;html=1;fillColor=#A9C4EB;" vertex="1" parent="1">
          <mxGeometry x="-6552" y="-2007" width="129" height="136" as="geometry" />
        </mxCell>
        <mxCell id="iHgnJFZeqUVyhQBtMsIq-118" value="DEFAULT&lt;div&gt;&lt;br&gt;&lt;/div&gt;" style="text;strokeColor=none;fillColor=none;align=left;verticalAlign=top;spacingLeft=4;spacingRight=4;overflow=hidden;rotatable=0;points=[[0,0.5],[1,0.5]];portConstraint=eastwest;whiteSpace=wrap;html=1;" vertex="1" parent="iHgnJFZeqUVyhQBtMsIq-117">
          <mxGeometry y="42" width="129" height="31" as="geometry" />
        </mxCell>
        <mxCell id="iHgnJFZeqUVyhQBtMsIq-119" value="CUSTOM" style="text;strokeColor=none;fillColor=none;align=left;verticalAlign=top;spacingLeft=4;spacingRight=4;overflow=hidden;rotatable=0;points=[[0,0.5],[1,0.5]];portConstraint=eastwest;whiteSpace=wrap;html=1;" vertex="1" parent="iHgnJFZeqUVyhQBtMsIq-117">
          <mxGeometry y="73" width="129" height="28" as="geometry" />
        </mxCell>
        <mxCell id="iHgnJFZeqUVyhQBtMsIq-120" value="&lt;div&gt;DATABASE&lt;/div&gt;" style="text;strokeColor=none;fillColor=none;align=left;verticalAlign=top;spacingLeft=4;spacingRight=4;overflow=hidden;rotatable=0;points=[[0,0.5],[1,0.5]];portConstraint=eastwest;whiteSpace=wrap;html=1;" vertex="1" parent="iHgnJFZeqUVyhQBtMsIq-117">
          <mxGeometry y="101" width="129" height="27" as="geometry" />
        </mxCell>
        <mxCell id="iHgnJFZeqUVyhQBtMsIq-121" value="" style="line;strokeWidth=1;fillColor=none;align=left;verticalAlign=middle;spacingTop=-1;spacingLeft=3;spacingRight=3;rotatable=0;labelPosition=right;points=[];portConstraint=eastwest;strokeColor=inherit;" vertex="1" parent="iHgnJFZeqUVyhQBtMsIq-117">
          <mxGeometry y="128" width="129" height="8" as="geometry" />
        </mxCell>
        <mxCell id="iHgnJFZeqUVyhQBtMsIq-122" value="" style="endArrow=open;endFill=1;endSize=12;html=1;rounded=0;entryX=0.5;entryY=0;entryDx=0;entryDy=0;exitX=0.549;exitY=1.065;exitDx=0;exitDy=0;exitPerimeter=0;" edge="1" parent="1" source="iHgnJFZeqUVyhQBtMsIq-16" target="iHgnJFZeqUVyhQBtMsIq-129">
          <mxGeometry width="160" relative="1" as="geometry">
            <mxPoint x="-6190" y="-2507" as="sourcePoint" />
            <mxPoint x="-5953" y="-2189" as="targetPoint" />
            <Array as="points" />
          </mxGeometry>
        </mxCell>
        <mxCell id="iHgnJFZeqUVyhQBtMsIq-123" value="" style="endArrow=open;endFill=1;endSize=12;html=1;rounded=0;entryX=0.5;entryY=0;entryDx=0;entryDy=0;exitX=0.459;exitY=1.067;exitDx=0;exitDy=0;exitPerimeter=0;" edge="1" parent="1" source="iHgnJFZeqUVyhQBtMsIq-131" target="iHgnJFZeqUVyhQBtMsIq-132">
          <mxGeometry width="160" relative="1" as="geometry">
            <mxPoint x="-5873" y="-2603" as="sourcePoint" />
            <mxPoint x="-5873" y="-2535" as="targetPoint" />
            <Array as="points" />
          </mxGeometry>
        </mxCell>
        <mxCell id="iHgnJFZeqUVyhQBtMsIq-124" value="" style="endArrow=open;endFill=1;endSize=12;html=1;rounded=0;entryX=0.5;entryY=0;entryDx=0;entryDy=0;exitX=0.567;exitY=1;exitDx=0;exitDy=0;exitPerimeter=0;" edge="1" parent="1" source="iHgnJFZeqUVyhQBtMsIq-169" target="iHgnJFZeqUVyhQBtMsIq-4">
          <mxGeometry width="160" relative="1" as="geometry">
            <mxPoint x="-5863" y="-2593" as="sourcePoint" />
            <mxPoint x="-5863" y="-2525" as="targetPoint" />
            <Array as="points" />
          </mxGeometry>
        </mxCell>
        <mxCell id="iHgnJFZeqUVyhQBtMsIq-125" value="" style="endArrow=open;endFill=1;endSize=12;html=1;rounded=0;entryX=0.5;entryY=0;entryDx=0;entryDy=0;exitX=0.582;exitY=0.97;exitDx=0;exitDy=0;exitPerimeter=0;" edge="1" parent="1" source="iHgnJFZeqUVyhQBtMsIq-161" target="iHgnJFZeqUVyhQBtMsIq-4">
          <mxGeometry width="160" relative="1" as="geometry">
            <mxPoint x="-5853" y="-2583" as="sourcePoint" />
            <mxPoint x="-5853" y="-2515" as="targetPoint" />
            <Array as="points" />
          </mxGeometry>
        </mxCell>
        <mxCell id="iHgnJFZeqUVyhQBtMsIq-126" value="" style="endArrow=open;endFill=1;endSize=12;html=1;rounded=0;entryX=0.5;entryY=0;entryDx=0;entryDy=0;exitX=0.306;exitY=0.197;exitDx=0;exitDy=0;exitPerimeter=0;" edge="1" parent="1" source="iHgnJFZeqUVyhQBtMsIq-148" target="iHgnJFZeqUVyhQBtMsIq-170">
          <mxGeometry width="160" relative="1" as="geometry">
            <mxPoint x="-5843" y="-2573" as="sourcePoint" />
            <mxPoint x="-5843" y="-2505" as="targetPoint" />
            <Array as="points" />
          </mxGeometry>
        </mxCell>
        <mxCell id="iHgnJFZeqUVyhQBtMsIq-127" value="" style="endArrow=open;endFill=1;endSize=12;html=1;rounded=0;entryX=0.5;entryY=0;entryDx=0;entryDy=0;exitX=0.539;exitY=1.178;exitDx=0;exitDy=0;exitPerimeter=0;" edge="1" parent="1" source="iHgnJFZeqUVyhQBtMsIq-16" target="iHgnJFZeqUVyhQBtMsIq-99">
          <mxGeometry width="160" relative="1" as="geometry">
            <mxPoint x="-5903" y="-2207" as="sourcePoint" />
            <mxPoint x="-5903" y="-2139" as="targetPoint" />
            <Array as="points" />
          </mxGeometry>
        </mxCell>
        <mxCell id="iHgnJFZeqUVyhQBtMsIq-128" value="" style="endArrow=none;html=1;rounded=0;entryX=0;entryY=0.5;entryDx=0;entryDy=0;exitX=1;exitY=0.5;exitDx=0;exitDy=0;" edge="1" parent="1" source="iHgnJFZeqUVyhQBtMsIq-119" target="iHgnJFZeqUVyhQBtMsIq-114">
          <mxGeometry relative="1" as="geometry">
            <mxPoint x="-7073" y="-1850" as="sourcePoint" />
            <mxPoint x="-6971" y="-1939" as="targetPoint" />
            <Array as="points" />
          </mxGeometry>
        </mxCell>
        <mxCell id="iHgnJFZeqUVyhQBtMsIq-129" value="&amp;lt;&amp;lt;Controller&amp;gt;&amp;gt;&lt;div&gt;AnswerController&lt;/div&gt;" style="swimlane;fontStyle=1;align=center;verticalAlign=top;childLayout=stackLayout;horizontal=1;startSize=39;horizontalStack=0;resizeParent=1;resizeParentMax=0;resizeLast=0;collapsible=1;marginBottom=0;whiteSpace=wrap;html=1;fillColor=#FF6666;" vertex="1" parent="1">
          <mxGeometry x="-6050" y="-2437" width="310" height="73" as="geometry" />
        </mxCell>
        <mxCell id="iHgnJFZeqUVyhQBtMsIq-130" value="" style="line;strokeWidth=1;fillColor=none;align=left;verticalAlign=middle;spacingTop=-1;spacingLeft=3;spacingRight=3;rotatable=0;labelPosition=right;points=[];portConstraint=eastwest;strokeColor=inherit;" vertex="1" parent="iHgnJFZeqUVyhQBtMsIq-129">
          <mxGeometry y="39" width="310" height="8" as="geometry" />
        </mxCell>
        <mxCell id="iHgnJFZeqUVyhQBtMsIq-131" value="+check_answer(solver: SolverAccount): boolean" style="text;strokeColor=none;fillColor=none;align=left;verticalAlign=top;spacingLeft=4;spacingRight=4;overflow=hidden;rotatable=0;points=[[0,0.5],[1,0.5]];portConstraint=eastwest;whiteSpace=wrap;html=1;" vertex="1" parent="iHgnJFZeqUVyhQBtMsIq-129">
          <mxGeometry y="47" width="310" height="26" as="geometry" />
        </mxCell>
        <mxCell id="iHgnJFZeqUVyhQBtMsIq-132" value="&amp;lt;&amp;lt;Entity&amp;gt;&amp;gt;&lt;div&gt;Answer&lt;/div&gt;" style="swimlane;fontStyle=1;align=center;verticalAlign=top;childLayout=stackLayout;horizontal=1;startSize=46;horizontalStack=0;resizeParent=1;resizeParentMax=0;resizeLast=0;collapsible=1;marginBottom=0;whiteSpace=wrap;html=1;fillColor=#9AC7BF;" vertex="1" parent="1">
          <mxGeometry x="-6033" y="-2317" width="250" height="392" as="geometry">
            <mxRectangle x="-5247" y="-1075" width="93" height="46" as="alternateBounds" />
          </mxGeometry>
        </mxCell>
        <mxCell id="iHgnJFZeqUVyhQBtMsIq-133" value="+solver: SolverAccount" style="text;strokeColor=none;fillColor=none;align=left;verticalAlign=top;spacingLeft=4;spacingRight=4;overflow=hidden;rotatable=0;points=[[0,0.5],[1,0.5]];portConstraint=eastwest;whiteSpace=wrap;html=1;" vertex="1" parent="iHgnJFZeqUVyhQBtMsIq-132">
          <mxGeometry y="46" width="250" height="26" as="geometry" />
        </mxCell>
        <mxCell id="iHgnJFZeqUVyhQBtMsIq-134" value="+riddle: Riddle" style="text;strokeColor=none;fillColor=none;align=left;verticalAlign=top;spacingLeft=4;spacingRight=4;overflow=hidden;rotatable=0;points=[[0,0.5],[1,0.5]];portConstraint=eastwest;whiteSpace=wrap;html=1;" vertex="1" parent="iHgnJFZeqUVyhQBtMsIq-132">
          <mxGeometry y="72" width="250" height="26" as="geometry" />
        </mxCell>
        <mxCell id="iHgnJFZeqUVyhQBtMsIq-135" value="+answerText: String" style="text;strokeColor=none;fillColor=none;align=left;verticalAlign=top;spacingLeft=4;spacingRight=4;overflow=hidden;rotatable=0;points=[[0,0.5],[1,0.5]];portConstraint=eastwest;whiteSpace=wrap;html=1;" vertex="1" parent="iHgnJFZeqUVyhQBtMsIq-132">
          <mxGeometry y="98" width="250" height="26" as="geometry" />
        </mxCell>
        <mxCell id="iHgnJFZeqUVyhQBtMsIq-136" value="+isCorrect: Boolean" style="text;strokeColor=none;fillColor=none;align=left;verticalAlign=top;spacingLeft=4;spacingRight=4;overflow=hidden;rotatable=0;points=[[0,0.5],[1,0.5]];portConstraint=eastwest;whiteSpace=wrap;html=1;" vertex="1" parent="iHgnJFZeqUVyhQBtMsIq-132">
          <mxGeometry y="124" width="250" height="26" as="geometry" />
        </mxCell>
        <mxCell id="iHgnJFZeqUVyhQBtMsIq-137" value="" style="line;strokeWidth=1;fillColor=none;align=left;verticalAlign=middle;spacingTop=-1;spacingLeft=3;spacingRight=3;rotatable=0;labelPosition=right;points=[];portConstraint=eastwest;strokeColor=inherit;" vertex="1" parent="iHgnJFZeqUVyhQBtMsIq-132">
          <mxGeometry y="150" width="250" height="8" as="geometry" />
        </mxCell>
        <mxCell id="iHgnJFZeqUVyhQBtMsIq-138" value="+Answer(): void" style="text;strokeColor=none;fillColor=none;align=left;verticalAlign=top;spacingLeft=4;spacingRight=4;overflow=hidden;rotatable=0;points=[[0,0.5],[1,0.5]];portConstraint=eastwest;whiteSpace=wrap;html=1;" vertex="1" parent="iHgnJFZeqUVyhQBtMsIq-132">
          <mxGeometry y="158" width="250" height="26" as="geometry" />
        </mxCell>
        <mxCell id="iHgnJFZeqUVyhQBtMsIq-139" value="+getSolver(): SolverAccount" style="text;strokeColor=none;fillColor=none;align=left;verticalAlign=top;spacingLeft=4;spacingRight=4;overflow=hidden;rotatable=0;points=[[0,0.5],[1,0.5]];portConstraint=eastwest;whiteSpace=wrap;html=1;" vertex="1" parent="iHgnJFZeqUVyhQBtMsIq-132">
          <mxGeometry y="184" width="250" height="26" as="geometry" />
        </mxCell>
        <mxCell id="iHgnJFZeqUVyhQBtMsIq-140" value="+setSolver(solver: SolverAccount): void" style="text;strokeColor=none;fillColor=none;align=left;verticalAlign=top;spacingLeft=4;spacingRight=4;overflow=hidden;rotatable=0;points=[[0,0.5],[1,0.5]];portConstraint=eastwest;whiteSpace=wrap;html=1;" vertex="1" parent="iHgnJFZeqUVyhQBtMsIq-132">
          <mxGeometry y="210" width="250" height="26" as="geometry" />
        </mxCell>
        <mxCell id="iHgnJFZeqUVyhQBtMsIq-141" value="+getRiddle(): Riddle" style="text;strokeColor=none;fillColor=none;align=left;verticalAlign=top;spacingLeft=4;spacingRight=4;overflow=hidden;rotatable=0;points=[[0,0.5],[1,0.5]];portConstraint=eastwest;whiteSpace=wrap;html=1;" vertex="1" parent="iHgnJFZeqUVyhQBtMsIq-132">
          <mxGeometry y="236" width="250" height="26" as="geometry" />
        </mxCell>
        <mxCell id="iHgnJFZeqUVyhQBtMsIq-142" value="+setRiddle(riddle: Riddle ):void" style="text;strokeColor=none;fillColor=none;align=left;verticalAlign=top;spacingLeft=4;spacingRight=4;overflow=hidden;rotatable=0;points=[[0,0.5],[1,0.5]];portConstraint=eastwest;whiteSpace=wrap;html=1;" vertex="1" parent="iHgnJFZeqUVyhQBtMsIq-132">
          <mxGeometry y="262" width="250" height="26" as="geometry" />
        </mxCell>
        <mxCell id="iHgnJFZeqUVyhQBtMsIq-143" value="+getAnswerText(): String" style="text;strokeColor=none;fillColor=none;align=left;verticalAlign=top;spacingLeft=4;spacingRight=4;overflow=hidden;rotatable=0;points=[[0,0.5],[1,0.5]];portConstraint=eastwest;whiteSpace=wrap;html=1;" vertex="1" parent="iHgnJFZeqUVyhQBtMsIq-132">
          <mxGeometry y="288" width="250" height="26" as="geometry" />
        </mxCell>
        <mxCell id="iHgnJFZeqUVyhQBtMsIq-144" value="+setAnswerText(answerText: String): void" style="text;strokeColor=none;fillColor=none;align=left;verticalAlign=top;spacingLeft=4;spacingRight=4;overflow=hidden;rotatable=0;points=[[0,0.5],[1,0.5]];portConstraint=eastwest;whiteSpace=wrap;html=1;" vertex="1" parent="iHgnJFZeqUVyhQBtMsIq-132">
          <mxGeometry y="314" width="250" height="26" as="geometry" />
        </mxCell>
        <mxCell id="iHgnJFZeqUVyhQBtMsIq-145" value="+getIsCorrect(): Boolean" style="text;strokeColor=none;fillColor=none;align=left;verticalAlign=top;spacingLeft=4;spacingRight=4;overflow=hidden;rotatable=0;points=[[0,0.5],[1,0.5]];portConstraint=eastwest;whiteSpace=wrap;html=1;" vertex="1" parent="iHgnJFZeqUVyhQBtMsIq-132">
          <mxGeometry y="340" width="250" height="26" as="geometry" />
        </mxCell>
        <mxCell id="iHgnJFZeqUVyhQBtMsIq-146" value="+setIsCorrect(isCorrect: Boolean): void" style="text;strokeColor=none;fillColor=none;align=left;verticalAlign=top;spacingLeft=4;spacingRight=4;overflow=hidden;rotatable=0;points=[[0,0.5],[1,0.5]];portConstraint=eastwest;whiteSpace=wrap;html=1;" vertex="1" parent="iHgnJFZeqUVyhQBtMsIq-132">
          <mxGeometry y="366" width="250" height="26" as="geometry" />
        </mxCell>
        <mxCell id="iHgnJFZeqUVyhQBtMsIq-147" value="has" style="text;html=1;align=center;verticalAlign=middle;resizable=0;points=[];autosize=1;strokeColor=none;fillColor=none;" vertex="1" parent="1">
          <mxGeometry x="-6053" y="-2489" width="40" height="30" as="geometry" />
        </mxCell>
        <mxCell id="iHgnJFZeqUVyhQBtMsIq-148" value="1" style="text;html=1;align=center;verticalAlign=middle;resizable=0;points=[];autosize=1;strokeColor=none;fillColor=none;" vertex="1" parent="1">
          <mxGeometry x="-6198" y="-2509" width="30" height="30" as="geometry" />
        </mxCell>
        <mxCell id="iHgnJFZeqUVyhQBtMsIq-149" value="1" style="text;html=1;align=center;verticalAlign=middle;resizable=0;points=[];autosize=1;strokeColor=none;fillColor=none;" vertex="1" parent="1">
          <mxGeometry x="-5943" y="-2467" width="30" height="30" as="geometry" />
        </mxCell>
        <mxCell id="iHgnJFZeqUVyhQBtMsIq-150" value="1" style="text;html=1;align=center;verticalAlign=middle;resizable=0;points=[];autosize=1;strokeColor=none;fillColor=none;" vertex="1" parent="1">
          <mxGeometry x="-5918" y="-2369" width="30" height="30" as="geometry" />
        </mxCell>
        <mxCell id="iHgnJFZeqUVyhQBtMsIq-151" value="1..*" style="text;html=1;align=center;verticalAlign=middle;resizable=0;points=[];autosize=1;strokeColor=none;fillColor=none;" vertex="1" parent="1">
          <mxGeometry x="-5913" y="-2339" width="40" height="30" as="geometry" />
        </mxCell>
        <mxCell id="iHgnJFZeqUVyhQBtMsIq-152" value="&amp;lt;&amp;lt;Boundary&amp;gt;&amp;gt;&lt;div&gt;WrongAnswerPopUp&lt;/div&gt;" style="swimlane;fontStyle=1;align=center;verticalAlign=top;childLayout=stackLayout;horizontal=1;startSize=41;horizontalStack=0;resizeParent=1;resizeParentMax=0;resizeLast=0;collapsible=1;marginBottom=0;whiteSpace=wrap;html=1;fillColor=#CCCCFF;" vertex="1" parent="1">
          <mxGeometry x="-6353" y="-3217" width="210" height="255" as="geometry" />
        </mxCell>
        <mxCell id="iHgnJFZeqUVyhQBtMsIq-153" value="&lt;div&gt;+btnReturnHome: button&lt;/div&gt;" style="text;strokeColor=none;fillColor=none;align=left;verticalAlign=top;spacingLeft=4;spacingRight=4;overflow=hidden;rotatable=0;points=[[0,0.5],[1,0.5]];portConstraint=eastwest;whiteSpace=wrap;html=1;" vertex="1" parent="iHgnJFZeqUVyhQBtMsIq-152">
          <mxGeometry y="41" width="210" height="24" as="geometry" />
        </mxCell>
        <mxCell id="iHgnJFZeqUVyhQBtMsIq-154" value="&lt;div&gt;+lblOhNo: label&lt;/div&gt;" style="text;strokeColor=none;fillColor=none;align=left;verticalAlign=top;spacingLeft=4;spacingRight=4;overflow=hidden;rotatable=0;points=[[0,0.5],[1,0.5]];portConstraint=eastwest;whiteSpace=wrap;html=1;" vertex="1" parent="iHgnJFZeqUVyhQBtMsIq-152">
          <mxGeometry y="65" width="210" height="26" as="geometry" />
        </mxCell>
        <mxCell id="iHgnJFZeqUVyhQBtMsIq-155" value="&lt;div&gt;+lblWrongAnswer: label&lt;/div&gt;" style="text;strokeColor=none;fillColor=none;align=left;verticalAlign=top;spacingLeft=4;spacingRight=4;overflow=hidden;rotatable=0;points=[[0,0.5],[1,0.5]];portConstraint=eastwest;whiteSpace=wrap;html=1;" vertex="1" parent="iHgnJFZeqUVyhQBtMsIq-152">
          <mxGeometry y="91" width="210" height="26" as="geometry" />
        </mxCell>
        <mxCell id="iHgnJFZeqUVyhQBtMsIq-156" value="&lt;div&gt;+btnTryWithoutHint: button&lt;/div&gt;" style="text;strokeColor=none;fillColor=none;align=left;verticalAlign=top;spacingLeft=4;spacingRight=4;overflow=hidden;rotatable=0;points=[[0,0.5],[1,0.5]];portConstraint=eastwest;whiteSpace=wrap;html=1;" vertex="1" parent="iHgnJFZeqUVyhQBtMsIq-152">
          <mxGeometry y="117" width="210" height="26" as="geometry" />
        </mxCell>
        <mxCell id="iHgnJFZeqUVyhQBtMsIq-157" value="&lt;div&gt;+btnTryWithHint: button&lt;/div&gt;" style="text;strokeColor=none;fillColor=none;align=left;verticalAlign=top;spacingLeft=4;spacingRight=4;overflow=hidden;rotatable=0;points=[[0,0.5],[1,0.5]];portConstraint=eastwest;whiteSpace=wrap;html=1;" vertex="1" parent="iHgnJFZeqUVyhQBtMsIq-152">
          <mxGeometry y="143" width="210" height="26" as="geometry" />
        </mxCell>
        <mxCell id="iHgnJFZeqUVyhQBtMsIq-158" value="" style="line;strokeWidth=1;fillColor=none;align=left;verticalAlign=middle;spacingTop=-1;spacingLeft=3;spacingRight=3;rotatable=0;labelPosition=right;points=[];portConstraint=eastwest;strokeColor=inherit;" vertex="1" parent="iHgnJFZeqUVyhQBtMsIq-152">
          <mxGeometry y="169" width="210" height="8" as="geometry" />
        </mxCell>
        <mxCell id="iHgnJFZeqUVyhQBtMsIq-159" value="+btnReturnHomePress(): void" style="text;strokeColor=none;fillColor=none;align=left;verticalAlign=top;spacingLeft=4;spacingRight=4;overflow=hidden;rotatable=0;points=[[0,0.5],[1,0.5]];portConstraint=eastwest;whiteSpace=wrap;html=1;" vertex="1" parent="iHgnJFZeqUVyhQBtMsIq-152">
          <mxGeometry y="177" width="210" height="26" as="geometry" />
        </mxCell>
        <mxCell id="iHgnJFZeqUVyhQBtMsIq-160" value="+btnTryWithoutHintPress(): void" style="text;strokeColor=none;fillColor=none;align=left;verticalAlign=top;spacingLeft=4;spacingRight=4;overflow=hidden;rotatable=0;points=[[0,0.5],[1,0.5]];portConstraint=eastwest;whiteSpace=wrap;html=1;" vertex="1" parent="iHgnJFZeqUVyhQBtMsIq-152">
          <mxGeometry y="203" width="210" height="26" as="geometry" />
        </mxCell>
        <mxCell id="iHgnJFZeqUVyhQBtMsIq-161" value="+btnTryWithHintPress(): void" style="text;strokeColor=none;fillColor=none;align=left;verticalAlign=top;spacingLeft=4;spacingRight=4;overflow=hidden;rotatable=0;points=[[0,0.5],[1,0.5]];portConstraint=eastwest;whiteSpace=wrap;html=1;" vertex="1" parent="iHgnJFZeqUVyhQBtMsIq-152">
          <mxGeometry y="229" width="210" height="26" as="geometry" />
        </mxCell>
        <mxCell id="iHgnJFZeqUVyhQBtMsIq-162" value="&amp;lt;&amp;lt;Boundary&amp;gt;&amp;gt;&lt;div&gt;CorrectAnswerPopUp&lt;/div&gt;" style="swimlane;fontStyle=1;align=center;verticalAlign=top;childLayout=stackLayout;horizontal=1;startSize=41;horizontalStack=0;resizeParent=1;resizeParentMax=0;resizeLast=0;collapsible=1;marginBottom=0;whiteSpace=wrap;html=1;fillColor=#CCCCFF;" vertex="1" parent="1">
          <mxGeometry x="-6120" y="-3327" width="210" height="203" as="geometry" />
        </mxCell>
        <mxCell id="iHgnJFZeqUVyhQBtMsIq-163" value="&lt;div&gt;+btnReturnHome: button&lt;/div&gt;" style="text;strokeColor=none;fillColor=none;align=left;verticalAlign=top;spacingLeft=4;spacingRight=4;overflow=hidden;rotatable=0;points=[[0,0.5],[1,0.5]];portConstraint=eastwest;whiteSpace=wrap;html=1;" vertex="1" parent="iHgnJFZeqUVyhQBtMsIq-162">
          <mxGeometry y="41" width="210" height="24" as="geometry" />
        </mxCell>
        <mxCell id="iHgnJFZeqUVyhQBtMsIq-164" value="&lt;div&gt;+lblCongratulations: label&lt;/div&gt;" style="text;strokeColor=none;fillColor=none;align=left;verticalAlign=top;spacingLeft=4;spacingRight=4;overflow=hidden;rotatable=0;points=[[0,0.5],[1,0.5]];portConstraint=eastwest;whiteSpace=wrap;html=1;" vertex="1" parent="iHgnJFZeqUVyhQBtMsIq-162">
          <mxGeometry y="65" width="210" height="26" as="geometry" />
        </mxCell>
        <mxCell id="iHgnJFZeqUVyhQBtMsIq-165" value="&lt;div&gt;+lblYouSolvedRiddle: label&lt;/div&gt;" style="text;strokeColor=none;fillColor=none;align=left;verticalAlign=top;spacingLeft=4;spacingRight=4;overflow=hidden;rotatable=0;points=[[0,0.5],[1,0.5]];portConstraint=eastwest;whiteSpace=wrap;html=1;" vertex="1" parent="iHgnJFZeqUVyhQBtMsIq-162">
          <mxGeometry y="91" width="210" height="26" as="geometry" />
        </mxCell>
        <mxCell id="iHgnJFZeqUVyhQBtMsIq-166" value="&lt;div&gt;+btnContinueStory: button&lt;/div&gt;" style="text;strokeColor=none;fillColor=none;align=left;verticalAlign=top;spacingLeft=4;spacingRight=4;overflow=hidden;rotatable=0;points=[[0,0.5],[1,0.5]];portConstraint=eastwest;whiteSpace=wrap;html=1;" vertex="1" parent="iHgnJFZeqUVyhQBtMsIq-162">
          <mxGeometry y="117" width="210" height="26" as="geometry" />
        </mxCell>
        <mxCell id="iHgnJFZeqUVyhQBtMsIq-167" value="" style="line;strokeWidth=1;fillColor=none;align=left;verticalAlign=middle;spacingTop=-1;spacingLeft=3;spacingRight=3;rotatable=0;labelPosition=right;points=[];portConstraint=eastwest;strokeColor=inherit;" vertex="1" parent="iHgnJFZeqUVyhQBtMsIq-162">
          <mxGeometry y="143" width="210" height="8" as="geometry" />
        </mxCell>
        <mxCell id="iHgnJFZeqUVyhQBtMsIq-168" value="+btnReturnHomePress(): void" style="text;strokeColor=none;fillColor=none;align=left;verticalAlign=top;spacingLeft=4;spacingRight=4;overflow=hidden;rotatable=0;points=[[0,0.5],[1,0.5]];portConstraint=eastwest;whiteSpace=wrap;html=1;" vertex="1" parent="iHgnJFZeqUVyhQBtMsIq-162">
          <mxGeometry y="151" width="210" height="26" as="geometry" />
        </mxCell>
        <mxCell id="iHgnJFZeqUVyhQBtMsIq-169" value="+btnContinueStoryPress(): void" style="text;strokeColor=none;fillColor=none;align=left;verticalAlign=top;spacingLeft=4;spacingRight=4;overflow=hidden;rotatable=0;points=[[0,0.5],[1,0.5]];portConstraint=eastwest;whiteSpace=wrap;html=1;" vertex="1" parent="iHgnJFZeqUVyhQBtMsIq-162">
          <mxGeometry y="177" width="210" height="26" as="geometry" />
        </mxCell>
        <mxCell id="iHgnJFZeqUVyhQBtMsIq-170" value="RiddleDBProxy" style="swimlane;fontStyle=1;align=center;verticalAlign=top;childLayout=stackLayout;horizontal=1;startSize=26;horizontalStack=0;resizeParent=1;resizeParentMax=0;resizeLast=0;collapsible=1;marginBottom=0;whiteSpace=wrap;html=1;fillColor=#FFCE9F;" vertex="1" parent="1">
          <mxGeometry x="-6393" y="-2387" width="160" height="34" as="geometry" />
        </mxCell>
        <mxCell id="iHgnJFZeqUVyhQBtMsIq-171" value="" style="line;strokeWidth=1;fillColor=none;align=left;verticalAlign=middle;spacingTop=-1;spacingLeft=3;spacingRight=3;rotatable=0;labelPosition=right;points=[];portConstraint=eastwest;strokeColor=inherit;" vertex="1" parent="iHgnJFZeqUVyhQBtMsIq-170">
          <mxGeometry y="26" width="160" height="8" as="geometry" />
        </mxCell>
        <mxCell id="iHgnJFZeqUVyhQBtMsIq-172" value="&amp;lt;&amp;lt;Controller&amp;gt;&amp;gt;&lt;div&gt;SolverAccountController&lt;/div&gt;" style="swimlane;fontStyle=1;align=center;verticalAlign=top;childLayout=stackLayout;horizontal=1;startSize=42;horizontalStack=0;resizeParent=1;resizeParentMax=0;resizeLast=0;collapsible=1;marginBottom=0;whiteSpace=wrap;html=1;fillColor=#FF6666;" vertex="1" parent="1">
          <mxGeometry x="-5235" y="-2761" width="232" height="102" as="geometry" />
        </mxCell>
        <mxCell id="iHgnJFZeqUVyhQBtMsIq-173" value="" style="line;strokeWidth=1;fillColor=none;align=left;verticalAlign=middle;spacingTop=-1;spacingLeft=3;spacingRight=3;rotatable=0;labelPosition=right;points=[];portConstraint=eastwest;strokeColor=inherit;" vertex="1" parent="iHgnJFZeqUVyhQBtMsIq-172">
          <mxGeometry y="42" width="232" height="8" as="geometry" />
        </mxCell>
        <mxCell id="iHgnJFZeqUVyhQBtMsIq-174" value="+invite_solver(solver_id:int): Invitation" style="text;strokeColor=none;fillColor=none;align=left;verticalAlign=top;spacingLeft=4;spacingRight=4;overflow=hidden;rotatable=0;points=[[0,0.5],[1,0.5]];portConstraint=eastwest;whiteSpace=wrap;html=1;" vertex="1" parent="iHgnJFZeqUVyhQBtMsIq-172">
          <mxGeometry y="50" width="232" height="26" as="geometry" />
        </mxCell>
        <mxCell id="iHgnJFZeqUVyhQBtMsIq-175" value="+view_solver_answer(riddle:Riddle):void&lt;div&gt;&lt;br&gt;&lt;/div&gt;" style="text;strokeColor=none;fillColor=none;align=left;verticalAlign=top;spacingLeft=4;spacingRight=4;overflow=hidden;rotatable=0;points=[[0,0.5],[1,0.5]];portConstraint=eastwest;whiteSpace=wrap;html=1;" vertex="1" parent="iHgnJFZeqUVyhQBtMsIq-172">
          <mxGeometry y="76" width="232" height="26" as="geometry" />
        </mxCell>
        <mxCell id="iHgnJFZeqUVyhQBtMsIq-176" value="" style="endArrow=none;html=1;rounded=0;align=center;verticalAlign=top;endFill=0;labelBackgroundColor=none;entryX=0;entryY=0.5;entryDx=0;entryDy=0;exitX=1;exitY=0.5;exitDx=0;exitDy=0;" edge="1" parent="1" source="iHgnJFZeqUVyhQBtMsIq-9" target="iHgnJFZeqUVyhQBtMsIq-174">
          <mxGeometry relative="1" as="geometry">
            <mxPoint x="-5773" y="-2827" as="sourcePoint" />
            <mxPoint x="-5211" y="-2869" as="targetPoint" />
          </mxGeometry>
        </mxCell>
        <mxCell id="iHgnJFZeqUVyhQBtMsIq-177" value="solves" style="edgeLabel;html=1;align=center;verticalAlign=middle;resizable=0;points=[];" connectable="0" vertex="1" parent="iHgnJFZeqUVyhQBtMsIq-176">
          <mxGeometry x="-0.1536" y="4" relative="1" as="geometry">
            <mxPoint as="offset" />
          </mxGeometry>
        </mxCell>
        <mxCell id="iHgnJFZeqUVyhQBtMsIq-178" value="" style="html=1;verticalAlign=bottom;labelBackgroundColor=none;endArrow=none;endFill=0;endSize=6;align=left;rounded=0;entryX=0;entryY=0.5;entryDx=0;entryDy=0;exitX=0.5;exitY=0;exitDx=0;exitDy=0;" edge="1" parent="1" source="iHgnJFZeqUVyhQBtMsIq-129" target="iHgnJFZeqUVyhQBtMsIq-174">
          <mxGeometry x="-1" relative="1" as="geometry">
            <mxPoint x="-5833" y="-2477" as="sourcePoint" />
            <mxPoint x="-5211" y="-2869" as="targetPoint" />
          </mxGeometry>
        </mxCell>
        <mxCell id="iHgnJFZeqUVyhQBtMsIq-179" value="submits" style="edgeLabel;html=1;align=center;verticalAlign=middle;resizable=0;points=[];" connectable="0" vertex="1" parent="iHgnJFZeqUVyhQBtMsIq-178">
          <mxGeometry x="0.0276" y="4" relative="1" as="geometry">
            <mxPoint as="offset" />
          </mxGeometry>
        </mxCell>
        <mxCell id="iHgnJFZeqUVyhQBtMsIq-180" value="1" style="text;html=1;align=center;verticalAlign=middle;resizable=0;points=[];autosize=1;strokeColor=none;fillColor=none;" vertex="1" parent="1">
          <mxGeometry x="-5295" y="-2707" width="30" height="30" as="geometry" />
        </mxCell>
        <mxCell id="iHgnJFZeqUVyhQBtMsIq-181" value="&amp;lt;&amp;lt;Controller&amp;gt;&amp;gt;&lt;div&gt;HintController&lt;/div&gt;" style="swimlane;fontStyle=1;align=center;verticalAlign=top;childLayout=stackLayout;horizontal=1;startSize=42;horizontalStack=0;resizeParent=1;resizeParentMax=0;resizeLast=0;collapsible=1;marginBottom=0;whiteSpace=wrap;html=1;fillColor=#FF6666;" vertex="1" parent="1">
          <mxGeometry x="-5833" y="-2876" width="215" height="76" as="geometry" />
        </mxCell>
        <mxCell id="iHgnJFZeqUVyhQBtMsIq-182" value="" style="line;strokeWidth=1;fillColor=none;align=left;verticalAlign=middle;spacingTop=-1;spacingLeft=3;spacingRight=3;rotatable=0;labelPosition=right;points=[];portConstraint=eastwest;strokeColor=inherit;" vertex="1" parent="iHgnJFZeqUVyhQBtMsIq-181">
          <mxGeometry y="42" width="215" height="8" as="geometry" />
        </mxCell>
        <mxCell id="iHgnJFZeqUVyhQBtMsIq-183" value="+ show_hint_message(): void" style="text;strokeColor=none;fillColor=none;align=left;verticalAlign=top;spacingLeft=4;spacingRight=4;overflow=hidden;rotatable=0;points=[[0,0.5],[1,0.5]];portConstraint=eastwest;whiteSpace=wrap;html=1;" vertex="1" parent="iHgnJFZeqUVyhQBtMsIq-181">
          <mxGeometry y="50" width="215" height="26" as="geometry" />
        </mxCell>
        <mxCell id="iHgnJFZeqUVyhQBtMsIq-184" value="" style="endArrow=open;endFill=1;endSize=12;html=1;rounded=0;exitX=0;exitY=0.5;exitDx=0;exitDy=0;entryX=1;entryY=0.5;entryDx=0;entryDy=0;" edge="1" parent="1" source="iHgnJFZeqUVyhQBtMsIq-174" target="iHgnJFZeqUVyhQBtMsIq-181">
          <mxGeometry width="160" relative="1" as="geometry">
            <mxPoint x="-5101" y="-2832" as="sourcePoint" />
            <mxPoint x="-5095" y="-2659" as="targetPoint" />
            <Array as="points" />
          </mxGeometry>
        </mxCell>
        <mxCell id="iHgnJFZeqUVyhQBtMsIq-185" value="asks for" style="edgeLabel;html=1;align=center;verticalAlign=middle;resizable=0;points=[];" connectable="0" vertex="1" parent="iHgnJFZeqUVyhQBtMsIq-184">
          <mxGeometry x="-0.145" y="1" relative="1" as="geometry">
            <mxPoint as="offset" />
          </mxGeometry>
        </mxCell>
        <mxCell id="iHgnJFZeqUVyhQBtMsIq-186" value="1" style="text;html=1;align=center;verticalAlign=middle;resizable=0;points=[];autosize=1;strokeColor=none;fillColor=none;" vertex="1" parent="1">
          <mxGeometry x="-5263" y="-2689" width="30" height="30" as="geometry" />
        </mxCell>
        <mxCell id="iHgnJFZeqUVyhQBtMsIq-187" value="1" style="text;html=1;align=center;verticalAlign=middle;resizable=0;points=[];autosize=1;strokeColor=none;fillColor=none;" vertex="1" parent="1">
          <mxGeometry x="-5603" y="-2853" width="30" height="30" as="geometry" />
        </mxCell>
        <mxCell id="iHgnJFZeqUVyhQBtMsIq-188" value="" style="endArrow=open;endFill=1;endSize=12;html=1;rounded=0;entryX=0;entryY=0.25;entryDx=0;entryDy=0;" edge="1" parent="1" target="iHgnJFZeqUVyhQBtMsIq-181">
          <mxGeometry width="160" relative="1" as="geometry">
            <mxPoint x="-6050" y="-2700" as="sourcePoint" />
            <mxPoint x="-6191" y="-2828" as="targetPoint" />
            <Array as="points" />
          </mxGeometry>
        </mxCell>
        <mxCell id="iHgnJFZeqUVyhQBtMsIq-189" value="allows for" style="edgeLabel;html=1;align=center;verticalAlign=middle;resizable=0;points=[];" connectable="0" vertex="1" parent="iHgnJFZeqUVyhQBtMsIq-188">
          <mxGeometry x="0.1849" y="-4" relative="1" as="geometry">
            <mxPoint x="1" y="-1" as="offset" />
          </mxGeometry>
        </mxCell>
        <mxCell id="iHgnJFZeqUVyhQBtMsIq-190" value="1" style="edgeLabel;html=1;align=center;verticalAlign=middle;resizable=0;points=[];" connectable="0" vertex="1" parent="iHgnJFZeqUVyhQBtMsIq-188">
          <mxGeometry x="-0.6928" y="-3" relative="1" as="geometry">
            <mxPoint as="offset" />
          </mxGeometry>
        </mxCell>
        <mxCell id="iHgnJFZeqUVyhQBtMsIq-191" value="&amp;lt;&amp;lt;Entity&amp;gt;&amp;gt;&lt;div&gt;Hint&lt;/div&gt;" style="swimlane;fontStyle=1;align=center;verticalAlign=top;childLayout=stackLayout;horizontal=1;startSize=41;horizontalStack=0;resizeParent=1;resizeParentMax=0;resizeLast=0;collapsible=1;marginBottom=0;whiteSpace=wrap;html=1;fillColor=#9AC7BF;" vertex="1" parent="1">
          <mxGeometry x="-5703" y="-3340" width="240" height="386" as="geometry" />
        </mxCell>
        <mxCell id="iHgnJFZeqUVyhQBtMsIq-192" value="+riddle: Riddle" style="text;strokeColor=none;fillColor=none;align=left;verticalAlign=top;spacingLeft=4;spacingRight=4;overflow=hidden;rotatable=0;points=[[0,0.5],[1,0.5]];portConstraint=eastwest;whiteSpace=wrap;html=1;" vertex="1" parent="iHgnJFZeqUVyhQBtMsIq-191">
          <mxGeometry y="41" width="240" height="25" as="geometry" />
        </mxCell>
        <mxCell id="iHgnJFZeqUVyhQBtMsIq-193" value="+accepted: Boolean&lt;div&gt;&lt;br&gt;&lt;/div&gt;" style="text;strokeColor=none;fillColor=none;align=left;verticalAlign=top;spacingLeft=4;spacingRight=4;overflow=hidden;rotatable=0;points=[[0,0.5],[1,0.5]];portConstraint=eastwest;whiteSpace=wrap;html=1;" vertex="1" parent="iHgnJFZeqUVyhQBtMsIq-191">
          <mxGeometry y="66" width="240" height="26" as="geometry" />
        </mxCell>
        <mxCell id="iHgnJFZeqUVyhQBtMsIq-194" value="+hint_content: String&lt;div&gt;&lt;br&gt;&lt;/div&gt;" style="text;strokeColor=none;fillColor=none;align=left;verticalAlign=top;spacingLeft=4;spacingRight=4;overflow=hidden;rotatable=0;points=[[0,0.5],[1,0.5]];portConstraint=eastwest;whiteSpace=wrap;html=1;" vertex="1" parent="iHgnJFZeqUVyhQBtMsIq-191">
          <mxGeometry y="92" width="240" height="26" as="geometry" />
        </mxCell>
        <mxCell id="iHgnJFZeqUVyhQBtMsIq-195" value="+id: Integer" style="text;strokeColor=none;fillColor=none;align=left;verticalAlign=top;spacingLeft=4;spacingRight=4;overflow=hidden;rotatable=0;points=[[0,0.5],[1,0.5]];portConstraint=eastwest;whiteSpace=wrap;html=1;" vertex="1" parent="iHgnJFZeqUVyhQBtMsIq-191">
          <mxGeometry y="118" width="240" height="26" as="geometry" />
        </mxCell>
        <mxCell id="iHgnJFZeqUVyhQBtMsIq-196" value="" style="line;strokeWidth=1;fillColor=none;align=left;verticalAlign=middle;spacingTop=-1;spacingLeft=3;spacingRight=3;rotatable=0;labelPosition=right;points=[];portConstraint=eastwest;strokeColor=inherit;" vertex="1" parent="iHgnJFZeqUVyhQBtMsIq-191">
          <mxGeometry y="144" width="240" height="8" as="geometry" />
        </mxCell>
        <mxCell id="iHgnJFZeqUVyhQBtMsIq-197" value="+Hint(): void" style="text;strokeColor=none;fillColor=none;align=left;verticalAlign=top;spacingLeft=4;spacingRight=4;overflow=hidden;rotatable=0;points=[[0,0.5],[1,0.5]];portConstraint=eastwest;whiteSpace=wrap;html=1;" vertex="1" parent="iHgnJFZeqUVyhQBtMsIq-191">
          <mxGeometry y="152" width="240" height="26" as="geometry" />
        </mxCell>
        <mxCell id="iHgnJFZeqUVyhQBtMsIq-198" value="+getRiddle(): Riddle" style="text;strokeColor=none;fillColor=none;align=left;verticalAlign=top;spacingLeft=4;spacingRight=4;overflow=hidden;rotatable=0;points=[[0,0.5],[1,0.5]];portConstraint=eastwest;whiteSpace=wrap;html=1;" vertex="1" parent="iHgnJFZeqUVyhQBtMsIq-191">
          <mxGeometry y="178" width="240" height="26" as="geometry" />
        </mxCell>
        <mxCell id="iHgnJFZeqUVyhQBtMsIq-199" value="+setRiddle(riddle: Riddle): void" style="text;strokeColor=none;fillColor=none;align=left;verticalAlign=top;spacingLeft=4;spacingRight=4;overflow=hidden;rotatable=0;points=[[0,0.5],[1,0.5]];portConstraint=eastwest;whiteSpace=wrap;html=1;" vertex="1" parent="iHgnJFZeqUVyhQBtMsIq-191">
          <mxGeometry y="204" width="240" height="26" as="geometry" />
        </mxCell>
        <mxCell id="iHgnJFZeqUVyhQBtMsIq-200" value="+getAccepted(): Boolean" style="text;strokeColor=none;fillColor=none;align=left;verticalAlign=top;spacingLeft=4;spacingRight=4;overflow=hidden;rotatable=0;points=[[0,0.5],[1,0.5]];portConstraint=eastwest;whiteSpace=wrap;html=1;" vertex="1" parent="iHgnJFZeqUVyhQBtMsIq-191">
          <mxGeometry y="230" width="240" height="26" as="geometry" />
        </mxCell>
        <mxCell id="iHgnJFZeqUVyhQBtMsIq-201" value="+setAccepted(accepted:&amp;nbsp; Boolean): void" style="text;strokeColor=none;fillColor=none;align=left;verticalAlign=top;spacingLeft=4;spacingRight=4;overflow=hidden;rotatable=0;points=[[0,0.5],[1,0.5]];portConstraint=eastwest;whiteSpace=wrap;html=1;" vertex="1" parent="iHgnJFZeqUVyhQBtMsIq-191">
          <mxGeometry y="256" width="240" height="26" as="geometry" />
        </mxCell>
        <mxCell id="iHgnJFZeqUVyhQBtMsIq-202" value="+getHintContent(): String" style="text;strokeColor=none;fillColor=none;align=left;verticalAlign=top;spacingLeft=4;spacingRight=4;overflow=hidden;rotatable=0;points=[[0,0.5],[1,0.5]];portConstraint=eastwest;whiteSpace=wrap;html=1;" vertex="1" parent="iHgnJFZeqUVyhQBtMsIq-191">
          <mxGeometry y="282" width="240" height="26" as="geometry" />
        </mxCell>
        <mxCell id="iHgnJFZeqUVyhQBtMsIq-203" value="+setHintContent(hintContent: String): void" style="text;strokeColor=none;fillColor=none;align=left;verticalAlign=top;spacingLeft=4;spacingRight=4;overflow=hidden;rotatable=0;points=[[0,0.5],[1,0.5]];portConstraint=eastwest;whiteSpace=wrap;html=1;" vertex="1" parent="iHgnJFZeqUVyhQBtMsIq-191">
          <mxGeometry y="308" width="240" height="26" as="geometry" />
        </mxCell>
        <mxCell id="iHgnJFZeqUVyhQBtMsIq-204" value="+getId(): Integer" style="text;strokeColor=none;fillColor=none;align=left;verticalAlign=top;spacingLeft=4;spacingRight=4;overflow=hidden;rotatable=0;points=[[0,0.5],[1,0.5]];portConstraint=eastwest;whiteSpace=wrap;html=1;" vertex="1" parent="iHgnJFZeqUVyhQBtMsIq-191">
          <mxGeometry y="334" width="240" height="26" as="geometry" />
        </mxCell>
        <mxCell id="iHgnJFZeqUVyhQBtMsIq-205" value="+setId(id: Integer): void" style="text;strokeColor=none;fillColor=none;align=left;verticalAlign=top;spacingLeft=4;spacingRight=4;overflow=hidden;rotatable=0;points=[[0,0.5],[1,0.5]];portConstraint=eastwest;whiteSpace=wrap;html=1;" vertex="1" parent="iHgnJFZeqUVyhQBtMsIq-191">
          <mxGeometry y="360" width="240" height="26" as="geometry" />
        </mxCell>
        <mxCell id="iHgnJFZeqUVyhQBtMsIq-206" value="&amp;lt;&amp;lt;Boundary&amp;gt;&amp;gt;&lt;div&gt;HintPopUp&lt;/div&gt;" style="swimlane;fontStyle=1;align=center;verticalAlign=top;childLayout=stackLayout;horizontal=1;startSize=42;horizontalStack=0;resizeParent=1;resizeParentMax=0;resizeLast=0;collapsible=1;marginBottom=0;whiteSpace=wrap;html=1;fillColor=#CCCCFF;" vertex="1" parent="1">
          <mxGeometry x="-5893" y="-3152" width="170" height="206" as="geometry" />
        </mxCell>
        <mxCell id="iHgnJFZeqUVyhQBtMsIq-207" value="+lblHint: label" style="text;strokeColor=none;fillColor=none;align=left;verticalAlign=top;spacingLeft=4;spacingRight=4;overflow=hidden;rotatable=0;points=[[0,0.5],[1,0.5]];portConstraint=eastwest;whiteSpace=wrap;html=1;" vertex="1" parent="iHgnJFZeqUVyhQBtMsIq-206">
          <mxGeometry y="42" width="170" height="26" as="geometry" />
        </mxCell>
        <mxCell id="iHgnJFZeqUVyhQBtMsIq-208" value="+btnSrinkArrows: button" style="text;strokeColor=none;fillColor=none;align=left;verticalAlign=top;spacingLeft=4;spacingRight=4;overflow=hidden;rotatable=0;points=[[0,0.5],[1,0.5]];portConstraint=eastwest;whiteSpace=wrap;html=1;" vertex="1" parent="iHgnJFZeqUVyhQBtMsIq-206">
          <mxGeometry y="68" width="170" height="26" as="geometry" />
        </mxCell>
        <mxCell id="iHgnJFZeqUVyhQBtMsIq-209" value="+btnCancel: button" style="text;strokeColor=none;fillColor=none;align=left;verticalAlign=top;spacingLeft=4;spacingRight=4;overflow=hidden;rotatable=0;points=[[0,0.5],[1,0.5]];portConstraint=eastwest;whiteSpace=wrap;html=1;" vertex="1" parent="iHgnJFZeqUVyhQBtMsIq-206">
          <mxGeometry y="94" width="170" height="26" as="geometry" />
        </mxCell>
        <mxCell id="iHgnJFZeqUVyhQBtMsIq-210" value="+txtHintContent: text" style="text;strokeColor=none;fillColor=none;align=left;verticalAlign=top;spacingLeft=4;spacingRight=4;overflow=hidden;rotatable=0;points=[[0,0.5],[1,0.5]];portConstraint=eastwest;whiteSpace=wrap;html=1;" vertex="1" parent="iHgnJFZeqUVyhQBtMsIq-206">
          <mxGeometry y="120" width="170" height="26" as="geometry" />
        </mxCell>
        <mxCell id="iHgnJFZeqUVyhQBtMsIq-211" value="" style="line;strokeWidth=1;fillColor=none;align=left;verticalAlign=middle;spacingTop=-1;spacingLeft=3;spacingRight=3;rotatable=0;labelPosition=right;points=[];portConstraint=eastwest;strokeColor=inherit;" vertex="1" parent="iHgnJFZeqUVyhQBtMsIq-206">
          <mxGeometry y="146" width="170" height="8" as="geometry" />
        </mxCell>
        <mxCell id="iHgnJFZeqUVyhQBtMsIq-212" value="+btnCancelPress(): void" style="text;strokeColor=none;fillColor=none;align=left;verticalAlign=top;spacingLeft=4;spacingRight=4;overflow=hidden;rotatable=0;points=[[0,0.5],[1,0.5]];portConstraint=eastwest;whiteSpace=wrap;html=1;" vertex="1" parent="iHgnJFZeqUVyhQBtMsIq-206">
          <mxGeometry y="154" width="170" height="26" as="geometry" />
        </mxCell>
        <mxCell id="iHgnJFZeqUVyhQBtMsIq-213" value="+btnSrinkArrowsPress(): void" style="text;strokeColor=none;fillColor=none;align=left;verticalAlign=top;spacingLeft=4;spacingRight=4;overflow=hidden;rotatable=0;points=[[0,0.5],[1,0.5]];portConstraint=eastwest;whiteSpace=wrap;html=1;" vertex="1" parent="iHgnJFZeqUVyhQBtMsIq-206">
          <mxGeometry y="180" width="170" height="26" as="geometry" />
        </mxCell>
        <mxCell id="iHgnJFZeqUVyhQBtMsIq-214" value="" style="endArrow=open;endFill=1;endSize=12;html=1;rounded=0;entryX=0.667;entryY=1.183;entryDx=0;entryDy=0;entryPerimeter=0;exitX=0.529;exitY=1.038;exitDx=0;exitDy=0;exitPerimeter=0;" edge="1" parent="1" source="iHgnJFZeqUVyhQBtMsIq-213" target="iHgnJFZeqUVyhQBtMsIq-216">
          <mxGeometry width="160" relative="1" as="geometry">
            <mxPoint x="-5850" y="-2900" as="sourcePoint" />
            <mxPoint x="-5323" y="-3087" as="targetPoint" />
          </mxGeometry>
        </mxCell>
        <mxCell id="iHgnJFZeqUVyhQBtMsIq-215" value="" style="endArrow=open;endFill=1;endSize=12;html=1;rounded=0;exitX=0.792;exitY=1.162;exitDx=0;exitDy=0;exitPerimeter=0;entryX=0.476;entryY=0.997;entryDx=0;entryDy=0;entryPerimeter=0;" edge="1" parent="1" source="iHgnJFZeqUVyhQBtMsIq-216" target="iHgnJFZeqUVyhQBtMsIq-205">
          <mxGeometry width="160" relative="1" as="geometry">
            <mxPoint x="-5411" y="-3150" as="sourcePoint" />
            <mxPoint x="-5540" y="-2880" as="targetPoint" />
          </mxGeometry>
        </mxCell>
        <mxCell id="iHgnJFZeqUVyhQBtMsIq-216" value="1" style="text;html=1;align=center;verticalAlign=middle;resizable=0;points=[];autosize=1;strokeColor=none;fillColor=none;" vertex="1" parent="1">
          <mxGeometry x="-5738" y="-2909" width="30" height="30" as="geometry" />
        </mxCell>
        <mxCell id="iHgnJFZeqUVyhQBtMsIq-217" value="1..*" style="text;html=1;align=center;verticalAlign=middle;resizable=0;points=[];autosize=1;strokeColor=none;fillColor=none;" vertex="1" parent="1">
          <mxGeometry x="-5800" y="-2954" width="40" height="30" as="geometry" />
        </mxCell>
        <mxCell id="iHgnJFZeqUVyhQBtMsIq-218" value="1..*" style="text;html=1;align=center;verticalAlign=middle;resizable=0;points=[];autosize=1;strokeColor=none;fillColor=none;" vertex="1" parent="1">
          <mxGeometry x="-5603" y="-2959" width="40" height="30" as="geometry" />
        </mxCell>
        <mxCell id="iHgnJFZeqUVyhQBtMsIq-219" value="&amp;lt;&amp;lt;Controller&amp;gt;&amp;gt;&lt;div&gt;InvitationController&lt;/div&gt;" style="swimlane;fontStyle=1;align=center;verticalAlign=top;childLayout=stackLayout;horizontal=1;startSize=39;horizontalStack=0;resizeParent=1;resizeParentMax=0;resizeLast=0;collapsible=1;marginBottom=0;whiteSpace=wrap;html=1;fillColor=#FF6666;" vertex="1" parent="1">
          <mxGeometry x="-4766" y="-2819" width="200" height="112" as="geometry" />
        </mxCell>
        <mxCell id="iHgnJFZeqUVyhQBtMsIq-220" value="" style="line;strokeWidth=1;fillColor=none;align=left;verticalAlign=middle;spacingTop=-1;spacingLeft=3;spacingRight=3;rotatable=0;labelPosition=right;points=[];portConstraint=eastwest;strokeColor=inherit;" vertex="1" parent="iHgnJFZeqUVyhQBtMsIq-219">
          <mxGeometry y="39" width="200" height="8" as="geometry" />
        </mxCell>
        <mxCell id="iHgnJFZeqUVyhQBtMsIq-221" value="+ manage_invitation() :&amp;nbsp; boolean&lt;div&gt;&lt;br&gt;&lt;/div&gt;&lt;div&gt;+ show_invitation() : void&lt;div&gt;&lt;br&gt;&lt;/div&gt;&lt;div&gt;&lt;br&gt;&lt;/div&gt;&lt;/div&gt;" style="text;strokeColor=none;fillColor=none;align=left;verticalAlign=top;spacingLeft=4;spacingRight=4;overflow=hidden;rotatable=0;points=[[0,0.5],[1,0.5]];portConstraint=eastwest;whiteSpace=wrap;html=1;" vertex="1" parent="iHgnJFZeqUVyhQBtMsIq-219">
          <mxGeometry y="47" width="200" height="65" as="geometry" />
        </mxCell>
        <mxCell id="iHgnJFZeqUVyhQBtMsIq-222" value="&lt;div&gt;&amp;lt;&amp;lt;Entity&amp;gt;&amp;gt;&lt;/div&gt;SolverAccount" style="swimlane;fontStyle=1;align=center;verticalAlign=top;childLayout=stackLayout;horizontal=1;startSize=36;horizontalStack=0;resizeParent=1;resizeParentMax=0;resizeLast=0;collapsible=1;marginBottom=0;whiteSpace=wrap;html=1;fillColor=#9AC7BF;" vertex="1" parent="1">
          <mxGeometry x="-5235" y="-2570" width="308" height="201" as="geometry" />
        </mxCell>
        <mxCell id="iHgnJFZeqUVyhQBtMsIq-223" value="+invited: Boolean" style="text;strokeColor=none;fillColor=none;align=left;verticalAlign=top;spacingLeft=4;spacingRight=4;overflow=hidden;rotatable=0;points=[[0,0.5],[1,0.5]];portConstraint=eastwest;whiteSpace=wrap;html=1;" vertex="1" parent="iHgnJFZeqUVyhQBtMsIq-222">
          <mxGeometry y="36" width="308" height="26" as="geometry" />
        </mxCell>
        <mxCell id="iHgnJFZeqUVyhQBtMsIq-224" value="+used_hints: Integer&lt;div&gt;&lt;br&gt;&lt;/div&gt;" style="text;strokeColor=none;fillColor=none;align=left;verticalAlign=top;spacingLeft=4;spacingRight=4;overflow=hidden;rotatable=0;points=[[0,0.5],[1,0.5]];portConstraint=eastwest;whiteSpace=wrap;html=1;" vertex="1" parent="iHgnJFZeqUVyhQBtMsIq-222">
          <mxGeometry y="62" width="308" height="27" as="geometry" />
        </mxCell>
        <mxCell id="iHgnJFZeqUVyhQBtMsIq-225" value="" style="line;strokeWidth=1;fillColor=none;align=left;verticalAlign=middle;spacingTop=-1;spacingLeft=3;spacingRight=3;rotatable=0;labelPosition=right;points=[];portConstraint=eastwest;strokeColor=inherit;" vertex="1" parent="iHgnJFZeqUVyhQBtMsIq-222">
          <mxGeometry y="89" width="308" height="8" as="geometry" />
        </mxCell>
        <mxCell id="iHgnJFZeqUVyhQBtMsIq-226" value="+ getInvited(): boolean" style="text;strokeColor=none;fillColor=none;align=left;verticalAlign=top;spacingLeft=4;spacingRight=4;overflow=hidden;rotatable=0;points=[[0,0.5],[1,0.5]];portConstraint=eastwest;whiteSpace=wrap;html=1;" vertex="1" parent="iHgnJFZeqUVyhQBtMsIq-222">
          <mxGeometry y="97" width="308" height="26" as="geometry" />
        </mxCell>
        <mxCell id="iHgnJFZeqUVyhQBtMsIq-227" value="+ setInvited(invited: Boolean): void" style="text;strokeColor=none;fillColor=none;align=left;verticalAlign=top;spacingLeft=4;spacingRight=4;overflow=hidden;rotatable=0;points=[[0,0.5],[1,0.5]];portConstraint=eastwest;whiteSpace=wrap;html=1;" vertex="1" parent="iHgnJFZeqUVyhQBtMsIq-222">
          <mxGeometry y="123" width="308" height="26" as="geometry" />
        </mxCell>
        <mxCell id="iHgnJFZeqUVyhQBtMsIq-228" value="+ getUsedHints(): Integer" style="text;strokeColor=none;fillColor=none;align=left;verticalAlign=top;spacingLeft=4;spacingRight=4;overflow=hidden;rotatable=0;points=[[0,0.5],[1,0.5]];portConstraint=eastwest;whiteSpace=wrap;html=1;" vertex="1" parent="iHgnJFZeqUVyhQBtMsIq-222">
          <mxGeometry y="149" width="308" height="26" as="geometry" />
        </mxCell>
        <mxCell id="iHgnJFZeqUVyhQBtMsIq-229" value="+ setUsedHints(usedHints: Integer): void" style="text;strokeColor=none;fillColor=none;align=left;verticalAlign=top;spacingLeft=4;spacingRight=4;overflow=hidden;rotatable=0;points=[[0,0.5],[1,0.5]];portConstraint=eastwest;whiteSpace=wrap;html=1;" vertex="1" parent="iHgnJFZeqUVyhQBtMsIq-222">
          <mxGeometry y="175" width="308" height="26" as="geometry" />
        </mxCell>
        <mxCell id="iHgnJFZeqUVyhQBtMsIq-230" value="" style="endArrow=open;endFill=1;endSize=12;html=1;rounded=0;entryX=0.398;entryY=-0.002;entryDx=0;entryDy=0;entryPerimeter=0;exitX=0.527;exitY=1.017;exitDx=0;exitDy=0;exitPerimeter=0;" edge="1" parent="1" source="iHgnJFZeqUVyhQBtMsIq-175" target="iHgnJFZeqUVyhQBtMsIq-222">
          <mxGeometry width="160" relative="1" as="geometry">
            <mxPoint x="-5170" y="-2640" as="sourcePoint" />
            <mxPoint x="-5092" y="-3013" as="targetPoint" />
            <Array as="points" />
          </mxGeometry>
        </mxCell>
        <mxCell id="iHgnJFZeqUVyhQBtMsIq-231" value="1" style="text;html=1;align=center;verticalAlign=middle;resizable=0;points=[];autosize=1;strokeColor=none;fillColor=none;" vertex="1" parent="1">
          <mxGeometry x="-5118" y="-2660" width="30" height="30" as="geometry" />
        </mxCell>
        <mxCell id="iHgnJFZeqUVyhQBtMsIq-232" value="1..*" style="text;html=1;align=center;verticalAlign=middle;resizable=0;points=[];autosize=1;strokeColor=none;fillColor=none;" vertex="1" parent="1">
          <mxGeometry x="-5118" y="-2600" width="40" height="30" as="geometry" />
        </mxCell>
        <mxCell id="iHgnJFZeqUVyhQBtMsIq-233" value="" style="endArrow=open;endFill=1;endSize=12;html=1;rounded=0;exitX=0.997;exitY=-0.077;exitDx=0;exitDy=0;entryX=0;entryY=0.5;entryDx=0;entryDy=0;exitPerimeter=0;" edge="1" parent="1" source="iHgnJFZeqUVyhQBtMsIq-175" target="iHgnJFZeqUVyhQBtMsIq-221">
          <mxGeometry width="160" relative="1" as="geometry">
            <mxPoint x="-4953" y="-2797" as="sourcePoint" />
            <mxPoint x="-5163" y="-2817" as="targetPoint" />
            <Array as="points" />
          </mxGeometry>
        </mxCell>
        <mxCell id="iHgnJFZeqUVyhQBtMsIq-234" value="receives" style="edgeLabel;html=1;align=center;verticalAlign=middle;resizable=0;points=[];" connectable="0" vertex="1" parent="iHgnJFZeqUVyhQBtMsIq-233">
          <mxGeometry x="-0.0457" relative="1" as="geometry">
            <mxPoint as="offset" />
          </mxGeometry>
        </mxCell>
        <mxCell id="iHgnJFZeqUVyhQBtMsIq-235" value="1" style="text;html=1;align=center;verticalAlign=middle;resizable=0;points=[];autosize=1;strokeColor=none;fillColor=none;" vertex="1" parent="1">
          <mxGeometry x="-4805.5" y="-2747" width="30" height="30" as="geometry" />
        </mxCell>
        <mxCell id="iHgnJFZeqUVyhQBtMsIq-236" value="1" style="text;html=1;align=center;verticalAlign=middle;resizable=0;points=[];autosize=1;strokeColor=none;fillColor=none;" vertex="1" parent="1">
          <mxGeometry x="-4962" y="-2707" width="30" height="30" as="geometry" />
        </mxCell>
        <mxCell id="iHgnJFZeqUVyhQBtMsIq-237" value="&amp;lt;&amp;lt;Boundary&amp;gt;&amp;gt;&lt;div&gt;HomepageUI&lt;/div&gt;" style="swimlane;fontStyle=1;align=center;verticalAlign=top;childLayout=stackLayout;horizontal=1;startSize=47;horizontalStack=0;resizeParent=1;resizeParentMax=0;resizeLast=0;collapsible=1;marginBottom=0;whiteSpace=wrap;html=1;fillColor=#CCCCFF;" vertex="1" parent="1">
          <mxGeometry x="-4323" y="-2197" width="179" height="309" as="geometry" />
        </mxCell>
        <mxCell id="iHgnJFZeqUVyhQBtMsIq-238" value="+btnChooseStory: button" style="text;strokeColor=none;fillColor=none;align=left;verticalAlign=top;spacingLeft=4;spacingRight=4;overflow=hidden;rotatable=0;points=[[0,0.5],[1,0.5]];portConstraint=eastwest;whiteSpace=wrap;html=1;" vertex="1" parent="iHgnJFZeqUVyhQBtMsIq-237">
          <mxGeometry y="47" width="179" height="26" as="geometry" />
        </mxCell>
        <mxCell id="iHgnJFZeqUVyhQBtMsIq-239" value="+lblWelcomeBack: label" style="text;strokeColor=none;fillColor=none;align=left;verticalAlign=top;spacingLeft=4;spacingRight=4;overflow=hidden;rotatable=0;points=[[0,0.5],[1,0.5]];portConstraint=eastwest;whiteSpace=wrap;html=1;" vertex="1" parent="iHgnJFZeqUVyhQBtMsIq-237">
          <mxGeometry y="73" width="179" height="26" as="geometry" />
        </mxCell>
        <mxCell id="iHgnJFZeqUVyhQBtMsIq-240" value="+lblUsername: label&lt;span style=&quot;color: rgba(0, 0, 0, 0); font-family: monospace; font-size: 0px; text-wrap-mode: nowrap;&quot;&gt;%3CmxGraphModel%3E%3Croot%3E%3CmxCell%20id%3D%220%22%2F%3E%3CmxCell%20id%3D%221%22%20parent%3D%220%22%2F%3E%3CmxCell%20id%3D%222%22%20value%3D%22%2BbtnChooseStory%3A%20button%22%20style%3D%22text%3BstrokeColor%3Dnone%3BfillColor%3Dnone%3Balign%3Dleft%3BverticalAlign%3Dtop%3BspacingLeft%3D4%3BspacingRight%3D4%3Boverflow%3Dhidden%3Brotatable%3D0%3Bpoints%3D%5B%5B0%2C0.5%5D%2C%5B1%2C0.5%5D%5D%3BportConstraint%3Deastwest%3BwhiteSpace%3Dwrap%3Bhtml%3D1%3B%22%20vertex%3D%221%22%20parent%3D%221%22%3E%3CmxGeometry%20x%3D%22-3540%22%20y%3D%22-1824%22%20width%3D%22179%22%20height%3D%2226%22%20as%3D%22geometry%22%2F%3E%3C%2FmxCell%3E%3C%2Froot%3E%3C%2FmxGraphModel%3E&lt;/span&gt;" style="text;strokeColor=none;fillColor=none;align=left;verticalAlign=top;spacingLeft=4;spacingRight=4;overflow=hidden;rotatable=0;points=[[0,0.5],[1,0.5]];portConstraint=eastwest;whiteSpace=wrap;html=1;" vertex="1" parent="iHgnJFZeqUVyhQBtMsIq-237">
          <mxGeometry y="99" width="179" height="26" as="geometry" />
        </mxCell>
        <mxCell id="iHgnJFZeqUVyhQBtMsIq-241" value="+btnReturnHome: button" style="text;strokeColor=none;fillColor=none;align=left;verticalAlign=top;spacingLeft=4;spacingRight=4;overflow=hidden;rotatable=0;points=[[0,0.5],[1,0.5]];portConstraint=eastwest;whiteSpace=wrap;html=1;" vertex="1" parent="iHgnJFZeqUVyhQBtMsIq-237">
          <mxGeometry y="125" width="179" height="26" as="geometry" />
        </mxCell>
        <mxCell id="iHgnJFZeqUVyhQBtMsIq-242" value="+btnSettings: button" style="text;strokeColor=none;fillColor=none;align=left;verticalAlign=top;spacingLeft=4;spacingRight=4;overflow=hidden;rotatable=0;points=[[0,0.5],[1,0.5]];portConstraint=eastwest;whiteSpace=wrap;html=1;" vertex="1" parent="iHgnJFZeqUVyhQBtMsIq-237">
          <mxGeometry y="151" width="179" height="26" as="geometry" />
        </mxCell>
        <mxCell id="iHgnJFZeqUVyhQBtMsIq-243" value="+btnLogout: button" style="text;strokeColor=none;fillColor=none;align=left;verticalAlign=top;spacingLeft=4;spacingRight=4;overflow=hidden;rotatable=0;points=[[0,0.5],[1,0.5]];portConstraint=eastwest;whiteSpace=wrap;html=1;" vertex="1" parent="iHgnJFZeqUVyhQBtMsIq-237">
          <mxGeometry y="177" width="179" height="26" as="geometry" />
        </mxCell>
        <mxCell id="iHgnJFZeqUVyhQBtMsIq-244" value="" style="line;strokeWidth=1;fillColor=none;align=left;verticalAlign=middle;spacingTop=-1;spacingLeft=3;spacingRight=3;rotatable=0;labelPosition=right;points=[];portConstraint=eastwest;strokeColor=inherit;" vertex="1" parent="iHgnJFZeqUVyhQBtMsIq-237">
          <mxGeometry y="203" width="179" height="8" as="geometry" />
        </mxCell>
        <mxCell id="iHgnJFZeqUVyhQBtMsIq-245" value="+btnChooseStoryPress(): void" style="text;strokeColor=none;fillColor=none;align=left;verticalAlign=top;spacingLeft=4;spacingRight=4;overflow=hidden;rotatable=0;points=[[0,0.5],[1,0.5]];portConstraint=eastwest;whiteSpace=wrap;html=1;" vertex="1" parent="iHgnJFZeqUVyhQBtMsIq-237">
          <mxGeometry y="211" width="179" height="20" as="geometry" />
        </mxCell>
        <mxCell id="iHgnJFZeqUVyhQBtMsIq-246" value="+btnReturnHomePress(): void" style="text;strokeColor=none;fillColor=none;align=left;verticalAlign=top;spacingLeft=4;spacingRight=4;overflow=hidden;rotatable=0;points=[[0,0.5],[1,0.5]];portConstraint=eastwest;whiteSpace=wrap;html=1;" vertex="1" parent="iHgnJFZeqUVyhQBtMsIq-237">
          <mxGeometry y="231" width="179" height="26" as="geometry" />
        </mxCell>
        <mxCell id="iHgnJFZeqUVyhQBtMsIq-247" value="+btnSettingsPress(): void" style="text;strokeColor=none;fillColor=none;align=left;verticalAlign=top;spacingLeft=4;spacingRight=4;overflow=hidden;rotatable=0;points=[[0,0.5],[1,0.5]];portConstraint=eastwest;whiteSpace=wrap;html=1;" vertex="1" parent="iHgnJFZeqUVyhQBtMsIq-237">
          <mxGeometry y="257" width="179" height="26" as="geometry" />
        </mxCell>
        <mxCell id="iHgnJFZeqUVyhQBtMsIq-248" value="+btnLogoutPress(): void" style="text;strokeColor=none;fillColor=none;align=left;verticalAlign=top;spacingLeft=4;spacingRight=4;overflow=hidden;rotatable=0;points=[[0,0.5],[1,0.5]];portConstraint=eastwest;whiteSpace=wrap;html=1;" vertex="1" parent="iHgnJFZeqUVyhQBtMsIq-237">
          <mxGeometry y="283" width="179" height="26" as="geometry" />
        </mxCell>
        <mxCell id="iHgnJFZeqUVyhQBtMsIq-249" value="&lt;p style=&quot;font-weight: 400; margin: 4px 0px 0px;&quot;&gt;&lt;b&gt;&amp;lt;&amp;lt;Entity&amp;gt;&amp;gt;&lt;/b&gt;&lt;/p&gt;&lt;p style=&quot;font-weight: 400; margin: 4px 0px 0px;&quot;&gt;&lt;b&gt;GameMasterAccount&lt;/b&gt;&lt;/p&gt;&lt;div&gt;&lt;b&gt;&lt;br&gt;&lt;/b&gt;&lt;/div&gt;" style="swimlane;fontStyle=1;align=center;verticalAlign=top;childLayout=stackLayout;horizontal=1;startSize=47;horizontalStack=0;resizeParent=1;resizeParentMax=0;resizeLast=0;collapsible=1;marginBottom=0;whiteSpace=wrap;html=1;fillColor=#9AC7BF;" vertex="1" parent="1">
          <mxGeometry x="-4828" y="-2570" width="324" height="133" as="geometry" />
        </mxCell>
        <mxCell id="iHgnJFZeqUVyhQBtMsIq-250" value="+ invited_Solvers: List &amp;lt;Solvers&amp;gt;" style="text;strokeColor=none;fillColor=none;align=left;verticalAlign=top;spacingLeft=4;spacingRight=4;overflow=hidden;rotatable=0;points=[[0,0.5],[1,0.5]];portConstraint=eastwest;whiteSpace=wrap;html=1;" vertex="1" parent="iHgnJFZeqUVyhQBtMsIq-249">
          <mxGeometry y="47" width="324" height="26" as="geometry" />
        </mxCell>
        <mxCell id="iHgnJFZeqUVyhQBtMsIq-251" value="" style="line;strokeWidth=1;fillColor=none;align=left;verticalAlign=middle;spacingTop=-1;spacingLeft=3;spacingRight=3;rotatable=0;labelPosition=right;points=[];portConstraint=eastwest;strokeColor=inherit;" vertex="1" parent="iHgnJFZeqUVyhQBtMsIq-249">
          <mxGeometry y="73" width="324" height="8" as="geometry" />
        </mxCell>
        <mxCell id="iHgnJFZeqUVyhQBtMsIq-252" value="+ getInvitedSolvers(): List &amp;lt;Solver&amp;gt;" style="text;strokeColor=none;fillColor=none;align=left;verticalAlign=top;spacingLeft=4;spacingRight=4;overflow=hidden;rotatable=0;points=[[0,0.5],[1,0.5]];portConstraint=eastwest;whiteSpace=wrap;html=1;" vertex="1" parent="iHgnJFZeqUVyhQBtMsIq-249">
          <mxGeometry y="81" width="324" height="26" as="geometry" />
        </mxCell>
        <mxCell id="iHgnJFZeqUVyhQBtMsIq-253" value="+ setInvitedSolvers(invitedSolvers: List &amp;lt;Solvers&amp;gt;): void" style="text;strokeColor=none;fillColor=none;align=left;verticalAlign=top;spacingLeft=4;spacingRight=4;overflow=hidden;rotatable=0;points=[[0,0.5],[1,0.5]];portConstraint=eastwest;whiteSpace=wrap;html=1;" vertex="1" parent="iHgnJFZeqUVyhQBtMsIq-249">
          <mxGeometry y="107" width="324" height="26" as="geometry" />
        </mxCell>
        <mxCell id="iHgnJFZeqUVyhQBtMsIq-254" value="" style="endArrow=open;endFill=1;endSize=12;html=1;rounded=0;entryX=0.5;entryY=0;entryDx=0;entryDy=0;exitX=0.495;exitY=1.027;exitDx=0;exitDy=0;exitPerimeter=0;" edge="1" parent="1" source="iHgnJFZeqUVyhQBtMsIq-221" target="iHgnJFZeqUVyhQBtMsIq-249">
          <mxGeometry width="160" relative="1" as="geometry">
            <mxPoint x="-4563" y="-2657" as="sourcePoint" />
            <mxPoint x="-4665" y="-2753" as="targetPoint" />
          </mxGeometry>
        </mxCell>
        <mxCell id="iHgnJFZeqUVyhQBtMsIq-255" value="1" style="text;html=1;align=center;verticalAlign=middle;resizable=0;points=[];autosize=1;strokeColor=none;fillColor=none;" vertex="1" parent="1">
          <mxGeometry x="-4688" y="-2711" width="30" height="30" as="geometry" />
        </mxCell>
        <mxCell id="iHgnJFZeqUVyhQBtMsIq-256" value="1" style="text;html=1;align=center;verticalAlign=middle;resizable=0;points=[];autosize=1;strokeColor=none;fillColor=none;" vertex="1" parent="1">
          <mxGeometry x="-4670" y="-2600" width="30" height="30" as="geometry" />
        </mxCell>
        <mxCell id="iHgnJFZeqUVyhQBtMsIq-257" value="&amp;lt;&amp;lt;Entity&amp;gt;&amp;gt;&lt;div&gt;Invitation&lt;/div&gt;" style="swimlane;fontStyle=1;align=center;verticalAlign=top;childLayout=stackLayout;horizontal=1;startSize=36;horizontalStack=0;resizeParent=1;resizeParentMax=0;resizeLast=0;collapsible=1;marginBottom=0;whiteSpace=wrap;html=1;fillColor=#9AC7BF;" vertex="1" parent="1">
          <mxGeometry x="-4805.5" y="-3351" width="265" height="304" as="geometry" />
        </mxCell>
        <mxCell id="iHgnJFZeqUVyhQBtMsIq-258" value="+from: GameMasterAccount" style="text;whiteSpace=wrap;html=1;" vertex="1" parent="iHgnJFZeqUVyhQBtMsIq-257">
          <mxGeometry y="36" width="265" height="26" as="geometry" />
        </mxCell>
        <mxCell id="iHgnJFZeqUVyhQBtMsIq-259" value="+to: SolverAccount" style="text;whiteSpace=wrap;html=1;" vertex="1" parent="iHgnJFZeqUVyhQBtMsIq-257">
          <mxGeometry y="62" width="265" height="26" as="geometry" />
        </mxCell>
        <mxCell id="iHgnJFZeqUVyhQBtMsIq-260" value="+status: InvitationStatus" style="text;whiteSpace=wrap;html=1;" vertex="1" parent="iHgnJFZeqUVyhQBtMsIq-257">
          <mxGeometry y="88" width="265" height="26" as="geometry" />
        </mxCell>
        <mxCell id="iHgnJFZeqUVyhQBtMsIq-261" value="" style="line;strokeWidth=1;fillColor=none;align=left;verticalAlign=middle;spacingTop=-1;spacingLeft=3;spacingRight=3;rotatable=0;labelPosition=right;points=[];portConstraint=eastwest;strokeColor=inherit;" vertex="1" parent="iHgnJFZeqUVyhQBtMsIq-257">
          <mxGeometry y="114" width="265" height="8" as="geometry" />
        </mxCell>
        <mxCell id="iHgnJFZeqUVyhQBtMsIq-262" value="+Invitation(): void" style="text;whiteSpace=wrap;html=1;" vertex="1" parent="iHgnJFZeqUVyhQBtMsIq-257">
          <mxGeometry y="122" width="265" height="26" as="geometry" />
        </mxCell>
        <mxCell id="iHgnJFZeqUVyhQBtMsIq-263" value="+getFrom(): GameMasterAccount" style="text;whiteSpace=wrap;html=1;" vertex="1" parent="iHgnJFZeqUVyhQBtMsIq-257">
          <mxGeometry y="148" width="265" height="26" as="geometry" />
        </mxCell>
        <mxCell id="iHgnJFZeqUVyhQBtMsIq-264" value="+setFrom(from: GameMasterAccount): void" style="text;whiteSpace=wrap;html=1;" vertex="1" parent="iHgnJFZeqUVyhQBtMsIq-257">
          <mxGeometry y="174" width="265" height="26" as="geometry" />
        </mxCell>
        <mxCell id="iHgnJFZeqUVyhQBtMsIq-265" value="+getTo(): SolverAccount" style="text;whiteSpace=wrap;html=1;" vertex="1" parent="iHgnJFZeqUVyhQBtMsIq-257">
          <mxGeometry y="200" width="265" height="26" as="geometry" />
        </mxCell>
        <mxCell id="iHgnJFZeqUVyhQBtMsIq-266" value="+setTo(to: SolverAccount): void" style="text;whiteSpace=wrap;html=1;" vertex="1" parent="iHgnJFZeqUVyhQBtMsIq-257">
          <mxGeometry y="226" width="265" height="26" as="geometry" />
        </mxCell>
        <mxCell id="iHgnJFZeqUVyhQBtMsIq-267" value="+getInvitationStatus(): InvitationStatus" style="text;whiteSpace=wrap;html=1;" vertex="1" parent="iHgnJFZeqUVyhQBtMsIq-257">
          <mxGeometry y="252" width="265" height="26" as="geometry" />
        </mxCell>
        <mxCell id="iHgnJFZeqUVyhQBtMsIq-268" value="+setInvitationStatus(status: InvitationStatus): void" style="text;whiteSpace=wrap;html=1;" vertex="1" parent="iHgnJFZeqUVyhQBtMsIq-257">
          <mxGeometry y="278" width="265" height="26" as="geometry" />
        </mxCell>
        <mxCell id="iHgnJFZeqUVyhQBtMsIq-269" value="" style="endArrow=open;endFill=1;endSize=12;html=1;rounded=0;fontSize=12;curved=1;exitX=0.5;exitY=0;exitDx=0;exitDy=0;entryX=0.5;entryY=1;entryDx=0;entryDy=0;" edge="1" parent="1" source="iHgnJFZeqUVyhQBtMsIq-219" target="iHgnJFZeqUVyhQBtMsIq-268">
          <mxGeometry width="160" relative="1" as="geometry">
            <mxPoint x="-4725" y="-2565" as="sourcePoint" />
            <mxPoint x="-4873" y="-2887" as="targetPoint" />
          </mxGeometry>
        </mxCell>
        <mxCell id="iHgnJFZeqUVyhQBtMsIq-270" value="&amp;lt;&amp;lt;Boundary&amp;gt;&amp;gt;&lt;div&gt;InvitationPopUp&lt;/div&gt;" style="swimlane;fontStyle=1;align=center;verticalAlign=top;childLayout=stackLayout;horizontal=1;startSize=37;horizontalStack=0;resizeParent=1;resizeParentMax=0;resizeLast=0;collapsible=1;marginBottom=0;whiteSpace=wrap;html=1;fillColor=#CCCCFF;" vertex="1" parent="1">
          <mxGeometry x="-4653" y="-3027" width="179" height="175" as="geometry" />
        </mxCell>
        <mxCell id="iHgnJFZeqUVyhQBtMsIq-271" value="+btnAccept: button" style="text;strokeColor=none;fillColor=#FFFFFF;align=left;verticalAlign=top;spacingLeft=4;spacingRight=4;overflow=hidden;rotatable=0;points=[[0,0.5],[1,0.5]];portConstraint=eastwest;whiteSpace=wrap;html=1;" vertex="1" parent="iHgnJFZeqUVyhQBtMsIq-270">
          <mxGeometry y="37" width="179" height="26" as="geometry" />
        </mxCell>
        <mxCell id="iHgnJFZeqUVyhQBtMsIq-272" value="+btnDecline: button" style="text;strokeColor=none;fillColor=#FFFFFF;align=left;verticalAlign=top;spacingLeft=4;spacingRight=4;overflow=hidden;rotatable=0;points=[[0,0.5],[1,0.5]];portConstraint=eastwest;whiteSpace=wrap;html=1;" vertex="1" parent="iHgnJFZeqUVyhQBtMsIq-270">
          <mxGeometry y="63" width="179" height="26" as="geometry" />
        </mxCell>
        <mxCell id="iHgnJFZeqUVyhQBtMsIq-273" value="+lblYouHaveInvitation: label" style="text;strokeColor=none;fillColor=#FFFFFF;align=left;verticalAlign=top;spacingLeft=4;spacingRight=4;overflow=hidden;rotatable=0;points=[[0,0.5],[1,0.5]];portConstraint=eastwest;whiteSpace=wrap;html=1;" vertex="1" parent="iHgnJFZeqUVyhQBtMsIq-270">
          <mxGeometry y="89" width="179" height="26" as="geometry" />
        </mxCell>
        <mxCell id="iHgnJFZeqUVyhQBtMsIq-274" value="" style="line;strokeWidth=1;fillColor=none;align=left;verticalAlign=middle;spacingTop=-1;spacingLeft=3;spacingRight=3;rotatable=0;labelPosition=right;points=[];portConstraint=eastwest;strokeColor=inherit;" vertex="1" parent="iHgnJFZeqUVyhQBtMsIq-270">
          <mxGeometry y="115" width="179" height="8" as="geometry" />
        </mxCell>
        <mxCell id="iHgnJFZeqUVyhQBtMsIq-275" value="+btnAcceptPress(): void" style="text;strokeColor=none;fillColor=#FFFFFF;align=left;verticalAlign=top;spacingLeft=4;spacingRight=4;overflow=hidden;rotatable=0;points=[[0,0.5],[1,0.5]];portConstraint=eastwest;whiteSpace=wrap;html=1;" vertex="1" parent="iHgnJFZeqUVyhQBtMsIq-270">
          <mxGeometry y="123" width="179" height="26" as="geometry" />
        </mxCell>
        <mxCell id="iHgnJFZeqUVyhQBtMsIq-276" value="+btnDeclinePress(): void" style="text;strokeColor=none;fillColor=#FFFFFF;align=left;verticalAlign=top;spacingLeft=4;spacingRight=4;overflow=hidden;rotatable=0;points=[[0,0.5],[1,0.5]];portConstraint=eastwest;whiteSpace=wrap;html=1;" vertex="1" parent="iHgnJFZeqUVyhQBtMsIq-270">
          <mxGeometry y="149" width="179" height="26" as="geometry" />
        </mxCell>
        <mxCell id="iHgnJFZeqUVyhQBtMsIq-277" value="" style="endArrow=open;endFill=1;endSize=12;html=1;rounded=0;fontSize=12;curved=1;exitX=0.505;exitY=1.019;exitDx=0;exitDy=0;entryX=0.5;entryY=0;entryDx=0;entryDy=0;exitPerimeter=0;" edge="1" parent="1" source="iHgnJFZeqUVyhQBtMsIq-276" target="iHgnJFZeqUVyhQBtMsIq-219">
          <mxGeometry width="160" relative="1" as="geometry">
            <mxPoint x="-4711" y="-2985" as="sourcePoint" />
            <mxPoint x="-4711" y="-2779" as="targetPoint" />
          </mxGeometry>
        </mxCell>
        <mxCell id="iHgnJFZeqUVyhQBtMsIq-278" value="&lt;div&gt;&amp;lt;&amp;lt;Entity&amp;gt;&amp;gt;&lt;/div&gt;Account" style="swimlane;fontStyle=1;align=center;verticalAlign=top;childLayout=stackLayout;horizontal=1;startSize=37;horizontalStack=0;resizeParent=1;resizeParentMax=0;resizeLast=0;collapsible=1;marginBottom=0;whiteSpace=wrap;html=1;fillColor=#9AC7BF;" vertex="1" parent="1">
          <mxGeometry x="-4793" y="-2309" width="230" height="615" as="geometry" />
        </mxCell>
        <mxCell id="iHgnJFZeqUVyhQBtMsIq-279" value="+name: String&lt;div&gt;&lt;br&gt;&lt;/div&gt;" style="text;strokeColor=none;fillColor=none;align=left;verticalAlign=top;spacingLeft=4;spacingRight=4;overflow=hidden;rotatable=0;points=[[0,0.5],[1,0.5]];portConstraint=eastwest;whiteSpace=wrap;html=1;" vertex="1" parent="iHgnJFZeqUVyhQBtMsIq-278">
          <mxGeometry y="37" width="230" height="24" as="geometry" />
        </mxCell>
        <mxCell id="iHgnJFZeqUVyhQBtMsIq-280" value="+password: String&lt;div&gt;&lt;br&gt;&lt;/div&gt;&lt;div&gt;&lt;br&gt;&lt;/div&gt;" style="text;strokeColor=none;fillColor=none;align=left;verticalAlign=top;spacingLeft=4;spacingRight=4;overflow=hidden;rotatable=0;points=[[0,0.5],[1,0.5]];portConstraint=eastwest;whiteSpace=wrap;html=1;" vertex="1" parent="iHgnJFZeqUVyhQBtMsIq-278">
          <mxGeometry y="61" width="230" height="26" as="geometry" />
        </mxCell>
        <mxCell id="iHgnJFZeqUVyhQBtMsIq-281" value="+email: String&lt;div&gt;&lt;br&gt;&lt;/div&gt;&lt;div&gt;&lt;br&gt;&lt;/div&gt;" style="text;strokeColor=none;fillColor=none;align=left;verticalAlign=top;spacingLeft=4;spacingRight=4;overflow=hidden;rotatable=0;points=[[0,0.5],[1,0.5]];portConstraint=eastwest;whiteSpace=wrap;html=1;" vertex="1" parent="iHgnJFZeqUVyhQBtMsIq-278">
          <mxGeometry y="87" width="230" height="26" as="geometry" />
        </mxCell>
        <mxCell id="iHgnJFZeqUVyhQBtMsIq-282" value="+id: Integer&lt;div&gt;&lt;br&gt;&lt;/div&gt;" style="text;strokeColor=none;fillColor=none;align=left;verticalAlign=top;spacingLeft=4;spacingRight=4;overflow=hidden;rotatable=0;points=[[0,0.5],[1,0.5]];portConstraint=eastwest;whiteSpace=wrap;html=1;" vertex="1" parent="iHgnJFZeqUVyhQBtMsIq-278">
          <mxGeometry y="113" width="230" height="26" as="geometry" />
        </mxCell>
        <mxCell id="iHgnJFZeqUVyhQBtMsIq-283" value="+exists: boolean&lt;div&gt;&lt;br&gt;&lt;/div&gt;" style="text;strokeColor=none;fillColor=none;align=left;verticalAlign=top;spacingLeft=4;spacingRight=4;overflow=hidden;rotatable=0;points=[[0,0.5],[1,0.5]];portConstraint=eastwest;whiteSpace=wrap;html=1;" vertex="1" parent="iHgnJFZeqUVyhQBtMsIq-278">
          <mxGeometry y="139" width="230" height="26" as="geometry" />
        </mxCell>
        <mxCell id="iHgnJFZeqUVyhQBtMsIq-284" value="+role: String&lt;div&gt;&lt;br&gt;&lt;/div&gt;&lt;div&gt;&lt;br&gt;&lt;/div&gt;" style="text;strokeColor=none;fillColor=none;align=left;verticalAlign=top;spacingLeft=4;spacingRight=4;overflow=hidden;rotatable=0;points=[[0,0.5],[1,0.5]];portConstraint=eastwest;whiteSpace=wrap;html=1;" vertex="1" parent="iHgnJFZeqUVyhQBtMsIq-278">
          <mxGeometry y="165" width="230" height="26" as="geometry" />
        </mxCell>
        <mxCell id="iHgnJFZeqUVyhQBtMsIq-285" value="&lt;div&gt;+chosen_story: Story&lt;/div&gt;" style="text;strokeColor=none;fillColor=none;align=left;verticalAlign=top;spacingLeft=4;spacingRight=4;overflow=hidden;rotatable=0;points=[[0,0.5],[1,0.5]];portConstraint=eastwest;whiteSpace=wrap;html=1;" vertex="1" parent="iHgnJFZeqUVyhQBtMsIq-278">
          <mxGeometry y="191" width="230" height="26" as="geometry" />
        </mxCell>
        <mxCell id="iHgnJFZeqUVyhQBtMsIq-286" value="" style="line;strokeWidth=1;fillColor=none;align=left;verticalAlign=middle;spacingTop=-1;spacingLeft=3;spacingRight=3;rotatable=0;labelPosition=right;points=[];portConstraint=eastwest;strokeColor=inherit;" vertex="1" parent="iHgnJFZeqUVyhQBtMsIq-278">
          <mxGeometry y="217" width="230" height="8" as="geometry" />
        </mxCell>
        <mxCell id="iHgnJFZeqUVyhQBtMsIq-287" value="+Account(): void" style="text;strokeColor=none;fillColor=none;align=left;verticalAlign=top;spacingLeft=4;spacingRight=4;overflow=hidden;rotatable=0;points=[[0,0.5],[1,0.5]];portConstraint=eastwest;whiteSpace=wrap;html=1;" vertex="1" parent="iHgnJFZeqUVyhQBtMsIq-278">
          <mxGeometry y="225" width="230" height="26" as="geometry" />
        </mxCell>
        <mxCell id="iHgnJFZeqUVyhQBtMsIq-288" value="+getName(): String&lt;div&gt;&lt;br&gt;&lt;/div&gt;&lt;div&gt;&lt;br&gt;&lt;/div&gt;" style="text;strokeColor=none;fillColor=none;align=left;verticalAlign=top;spacingLeft=4;spacingRight=4;overflow=hidden;rotatable=0;points=[[0,0.5],[1,0.5]];portConstraint=eastwest;whiteSpace=wrap;html=1;" vertex="1" parent="iHgnJFZeqUVyhQBtMsIq-278">
          <mxGeometry y="251" width="230" height="26" as="geometry" />
        </mxCell>
        <mxCell id="iHgnJFZeqUVyhQBtMsIq-289" value="+setName(name : String): void" style="text;strokeColor=none;fillColor=none;align=left;verticalAlign=top;spacingLeft=4;spacingRight=4;overflow=hidden;rotatable=0;points=[[0,0.5],[1,0.5]];portConstraint=eastwest;whiteSpace=wrap;html=1;" vertex="1" parent="iHgnJFZeqUVyhQBtMsIq-278">
          <mxGeometry y="277" width="230" height="26" as="geometry" />
        </mxCell>
        <mxCell id="iHgnJFZeqUVyhQBtMsIq-290" value="+getPassword(): String" style="text;strokeColor=none;fillColor=none;align=left;verticalAlign=top;spacingLeft=4;spacingRight=4;overflow=hidden;rotatable=0;points=[[0,0.5],[1,0.5]];portConstraint=eastwest;whiteSpace=wrap;html=1;" vertex="1" parent="iHgnJFZeqUVyhQBtMsIq-278">
          <mxGeometry y="303" width="230" height="26" as="geometry" />
        </mxCell>
        <mxCell id="iHgnJFZeqUVyhQBtMsIq-291" value="+setPassword(password: String): void" style="text;strokeColor=none;fillColor=none;align=left;verticalAlign=top;spacingLeft=4;spacingRight=4;overflow=hidden;rotatable=0;points=[[0,0.5],[1,0.5]];portConstraint=eastwest;whiteSpace=wrap;html=1;" vertex="1" parent="iHgnJFZeqUVyhQBtMsIq-278">
          <mxGeometry y="329" width="230" height="26" as="geometry" />
        </mxCell>
        <mxCell id="iHgnJFZeqUVyhQBtMsIq-292" value="+getEmail(): String" style="text;strokeColor=none;fillColor=none;align=left;verticalAlign=top;spacingLeft=4;spacingRight=4;overflow=hidden;rotatable=0;points=[[0,0.5],[1,0.5]];portConstraint=eastwest;whiteSpace=wrap;html=1;" vertex="1" parent="iHgnJFZeqUVyhQBtMsIq-278">
          <mxGeometry y="355" width="230" height="26" as="geometry" />
        </mxCell>
        <mxCell id="iHgnJFZeqUVyhQBtMsIq-293" value="+setEmail(email: String): void" style="text;strokeColor=none;fillColor=none;align=left;verticalAlign=top;spacingLeft=4;spacingRight=4;overflow=hidden;rotatable=0;points=[[0,0.5],[1,0.5]];portConstraint=eastwest;whiteSpace=wrap;html=1;" vertex="1" parent="iHgnJFZeqUVyhQBtMsIq-278">
          <mxGeometry y="381" width="230" height="26" as="geometry" />
        </mxCell>
        <mxCell id="iHgnJFZeqUVyhQBtMsIq-294" value="+getId(): Integer" style="text;strokeColor=none;fillColor=none;align=left;verticalAlign=top;spacingLeft=4;spacingRight=4;overflow=hidden;rotatable=0;points=[[0,0.5],[1,0.5]];portConstraint=eastwest;whiteSpace=wrap;html=1;" vertex="1" parent="iHgnJFZeqUVyhQBtMsIq-278">
          <mxGeometry y="407" width="230" height="26" as="geometry" />
        </mxCell>
        <mxCell id="iHgnJFZeqUVyhQBtMsIq-295" value="+setId(id: Integer): void&lt;div&gt;&lt;br&gt;&lt;/div&gt;" style="text;strokeColor=none;fillColor=none;align=left;verticalAlign=top;spacingLeft=4;spacingRight=4;overflow=hidden;rotatable=0;points=[[0,0.5],[1,0.5]];portConstraint=eastwest;whiteSpace=wrap;html=1;" vertex="1" parent="iHgnJFZeqUVyhQBtMsIq-278">
          <mxGeometry y="433" width="230" height="26" as="geometry" />
        </mxCell>
        <mxCell id="iHgnJFZeqUVyhQBtMsIq-296" value="+getExists(): Boolean" style="text;strokeColor=none;fillColor=none;align=left;verticalAlign=top;spacingLeft=4;spacingRight=4;overflow=hidden;rotatable=0;points=[[0,0.5],[1,0.5]];portConstraint=eastwest;whiteSpace=wrap;html=1;" vertex="1" parent="iHgnJFZeqUVyhQBtMsIq-278">
          <mxGeometry y="459" width="230" height="26" as="geometry" />
        </mxCell>
        <mxCell id="iHgnJFZeqUVyhQBtMsIq-297" value="+setExists(exists: Boolean): void" style="text;strokeColor=none;fillColor=none;align=left;verticalAlign=top;spacingLeft=4;spacingRight=4;overflow=hidden;rotatable=0;points=[[0,0.5],[1,0.5]];portConstraint=eastwest;whiteSpace=wrap;html=1;" vertex="1" parent="iHgnJFZeqUVyhQBtMsIq-278">
          <mxGeometry y="485" width="230" height="26" as="geometry" />
        </mxCell>
        <mxCell id="iHgnJFZeqUVyhQBtMsIq-298" value="+getRole() : String" style="text;strokeColor=none;fillColor=none;align=left;verticalAlign=top;spacingLeft=4;spacingRight=4;overflow=hidden;rotatable=0;points=[[0,0.5],[1,0.5]];portConstraint=eastwest;whiteSpace=wrap;html=1;" vertex="1" parent="iHgnJFZeqUVyhQBtMsIq-278">
          <mxGeometry y="511" width="230" height="26" as="geometry" />
        </mxCell>
        <mxCell id="iHgnJFZeqUVyhQBtMsIq-299" value="+setRole(role String): void" style="text;strokeColor=none;fillColor=none;align=left;verticalAlign=top;spacingLeft=4;spacingRight=4;overflow=hidden;rotatable=0;points=[[0,0.5],[1,0.5]];portConstraint=eastwest;whiteSpace=wrap;html=1;" vertex="1" parent="iHgnJFZeqUVyhQBtMsIq-278">
          <mxGeometry y="537" width="230" height="26" as="geometry" />
        </mxCell>
        <mxCell id="iHgnJFZeqUVyhQBtMsIq-300" value="+getChosenStory(): Story:&amp;nbsp;" style="text;strokeColor=none;fillColor=none;align=left;verticalAlign=top;spacingLeft=4;spacingRight=4;overflow=hidden;rotatable=0;points=[[0,0.5],[1,0.5]];portConstraint=eastwest;whiteSpace=wrap;html=1;" vertex="1" parent="iHgnJFZeqUVyhQBtMsIq-278">
          <mxGeometry y="563" width="230" height="26" as="geometry" />
        </mxCell>
        <mxCell id="iHgnJFZeqUVyhQBtMsIq-301" value="+ method(type): type" style="text;strokeColor=none;fillColor=none;align=left;verticalAlign=top;spacingLeft=4;spacingRight=4;overflow=hidden;rotatable=0;points=[[0,0.5],[1,0.5]];portConstraint=eastwest;whiteSpace=wrap;html=1;" vertex="1" parent="iHgnJFZeqUVyhQBtMsIq-278">
          <mxGeometry y="589" width="230" height="26" as="geometry" />
        </mxCell>
        <mxCell id="iHgnJFZeqUVyhQBtMsIq-302" value="" style="endArrow=block;endSize=16;endFill=0;html=1;rounded=0;exitX=1;exitY=0.5;exitDx=0;exitDy=0;entryX=0.5;entryY=0;entryDx=0;entryDy=0;" edge="1" parent="1" source="iHgnJFZeqUVyhQBtMsIq-226" target="iHgnJFZeqUVyhQBtMsIq-278">
          <mxGeometry x="-0.4625" y="136" width="160" relative="1" as="geometry">
            <mxPoint x="-4923" y="-2067" as="sourcePoint" />
            <mxPoint x="-4830" y="-2166" as="targetPoint" />
            <mxPoint as="offset" />
            <Array as="points" />
          </mxGeometry>
        </mxCell>
        <mxCell id="iHgnJFZeqUVyhQBtMsIq-303" value="" style="endArrow=block;endSize=16;endFill=0;html=1;rounded=0;exitX=0.452;exitY=1.104;exitDx=0;exitDy=0;entryX=0.5;entryY=0;entryDx=0;entryDy=0;exitPerimeter=0;" edge="1" parent="1" source="iHgnJFZeqUVyhQBtMsIq-253" target="iHgnJFZeqUVyhQBtMsIq-278">
          <mxGeometry x="-0.4625" y="136" width="160" relative="1" as="geometry">
            <mxPoint x="-4621" y="-2644.5" as="sourcePoint" />
            <mxPoint x="-4528" y="-2743.5" as="targetPoint" />
            <mxPoint as="offset" />
            <Array as="points" />
          </mxGeometry>
        </mxCell>
        <mxCell id="iHgnJFZeqUVyhQBtMsIq-304" value="&amp;lt;&amp;lt;enumeration&amp;gt;&amp;gt;&lt;div&gt;InvitationStatus&lt;/div&gt;" style="swimlane;fontStyle=1;align=center;verticalAlign=top;childLayout=stackLayout;horizontal=1;startSize=42;horizontalStack=0;resizeParent=1;resizeParentMax=0;resizeLast=0;collapsible=1;marginBottom=0;whiteSpace=wrap;html=1;fillColor=#A9C4EB;" vertex="1" parent="1">
          <mxGeometry x="-4962" y="-3190" width="117" height="138" as="geometry" />
        </mxCell>
        <mxCell id="iHgnJFZeqUVyhQBtMsIq-305" value="PENDING&lt;div&gt;&lt;br&gt;&lt;/div&gt;&lt;div&gt;ACCEPTED&lt;/div&gt;&lt;div&gt;&lt;br&gt;&lt;/div&gt;&lt;div&gt;REJECTED&lt;/div&gt;" style="text;strokeColor=none;fillColor=none;align=left;verticalAlign=top;spacingLeft=4;spacingRight=4;overflow=hidden;rotatable=0;points=[[0,0.5],[1,0.5]];portConstraint=eastwest;whiteSpace=wrap;html=1;" vertex="1" parent="iHgnJFZeqUVyhQBtMsIq-304">
          <mxGeometry y="42" width="117" height="88" as="geometry" />
        </mxCell>
        <mxCell id="iHgnJFZeqUVyhQBtMsIq-306" value="" style="line;strokeWidth=1;fillColor=none;align=left;verticalAlign=middle;spacingTop=-1;spacingLeft=3;spacingRight=3;rotatable=0;labelPosition=right;points=[];portConstraint=eastwest;strokeColor=inherit;" vertex="1" parent="iHgnJFZeqUVyhQBtMsIq-304">
          <mxGeometry y="130" width="117" height="8" as="geometry" />
        </mxCell>
        <mxCell id="iHgnJFZeqUVyhQBtMsIq-307" value="" style="endArrow=none;html=1;rounded=0;entryX=0;entryY=0.75;entryDx=0;entryDy=0;exitX=1;exitY=0.5;exitDx=0;exitDy=0;" edge="1" parent="1" source="iHgnJFZeqUVyhQBtMsIq-305" target="iHgnJFZeqUVyhQBtMsIq-266">
          <mxGeometry relative="1" as="geometry">
            <mxPoint x="-4493" y="-3381" as="sourcePoint" />
            <mxPoint x="-4533" y="-3037" as="targetPoint" />
          </mxGeometry>
        </mxCell>
        <mxCell id="iHgnJFZeqUVyhQBtMsIq-308" value="&amp;lt;&amp;lt;Controller&amp;gt;&amp;gt;&lt;div&gt;AccountController&lt;/div&gt;" style="swimlane;fontStyle=1;align=center;verticalAlign=top;childLayout=stackLayout;horizontal=1;startSize=45;horizontalStack=0;resizeParent=1;resizeParentMax=0;resizeLast=0;collapsible=1;marginBottom=0;whiteSpace=wrap;html=1;fillColor=#FF6666;" vertex="1" parent="1">
          <mxGeometry x="-4243" y="-2559.5" width="170" height="131" as="geometry" />
        </mxCell>
        <mxCell id="iHgnJFZeqUVyhQBtMsIq-309" value="" style="line;strokeWidth=1;fillColor=none;align=left;verticalAlign=middle;spacingTop=-1;spacingLeft=3;spacingRight=3;rotatable=0;labelPosition=right;points=[];portConstraint=eastwest;strokeColor=inherit;" vertex="1" parent="iHgnJFZeqUVyhQBtMsIq-308">
          <mxGeometry y="45" width="170" height="8" as="geometry" />
        </mxCell>
        <mxCell id="iHgnJFZeqUVyhQBtMsIq-310" value="+create_account():void&amp;nbsp;" style="text;strokeColor=none;fillColor=none;align=left;verticalAlign=top;spacingLeft=4;spacingRight=4;overflow=hidden;rotatable=0;points=[[0,0.5],[1,0.5]];portConstraint=eastwest;whiteSpace=wrap;html=1;" vertex="1" parent="iHgnJFZeqUVyhQBtMsIq-308">
          <mxGeometry y="53" width="170" height="26" as="geometry" />
        </mxCell>
        <mxCell id="iHgnJFZeqUVyhQBtMsIq-311" value="+choose_role(): str" style="text;strokeColor=none;fillColor=none;align=left;verticalAlign=top;spacingLeft=4;spacingRight=4;overflow=hidden;rotatable=0;points=[[0,0.5],[1,0.5]];portConstraint=eastwest;whiteSpace=wrap;html=1;" vertex="1" parent="iHgnJFZeqUVyhQBtMsIq-308">
          <mxGeometry y="79" width="170" height="26" as="geometry" />
        </mxCell>
        <mxCell id="iHgnJFZeqUVyhQBtMsIq-312" value="+return_to_homepage(): void" style="text;strokeColor=none;fillColor=none;align=left;verticalAlign=top;spacingLeft=4;spacingRight=4;overflow=hidden;rotatable=0;points=[[0,0.5],[1,0.5]];portConstraint=eastwest;whiteSpace=wrap;html=1;" vertex="1" parent="iHgnJFZeqUVyhQBtMsIq-308">
          <mxGeometry y="105" width="170" height="26" as="geometry" />
        </mxCell>
        <mxCell id="iHgnJFZeqUVyhQBtMsIq-313" value="&amp;lt;&amp;lt;Controller&amp;gt;&amp;gt;&lt;div&gt;StoryController&lt;/div&gt;" style="swimlane;fontStyle=1;align=center;verticalAlign=top;childLayout=stackLayout;horizontal=1;startSize=38;horizontalStack=0;resizeParent=1;resizeParentMax=0;resizeLast=0;collapsible=1;marginBottom=0;whiteSpace=wrap;html=1;fillColor=#FF6666;" vertex="1" parent="1">
          <mxGeometry x="-5468" y="-2037" width="160" height="98" as="geometry" />
        </mxCell>
        <mxCell id="iHgnJFZeqUVyhQBtMsIq-314" value="" style="line;strokeWidth=1;fillColor=none;align=left;verticalAlign=middle;spacingTop=-1;spacingLeft=3;spacingRight=3;rotatable=0;labelPosition=right;points=[];portConstraint=eastwest;strokeColor=inherit;" vertex="1" parent="iHgnJFZeqUVyhQBtMsIq-313">
          <mxGeometry y="38" width="160" height="8" as="geometry" />
        </mxCell>
        <mxCell id="iHgnJFZeqUVyhQBtMsIq-315" value="+ choose_story(): Story" style="text;strokeColor=none;fillColor=none;align=left;verticalAlign=top;spacingLeft=4;spacingRight=4;overflow=hidden;rotatable=0;points=[[0,0.5],[1,0.5]];portConstraint=eastwest;whiteSpace=wrap;html=1;" vertex="1" parent="iHgnJFZeqUVyhQBtMsIq-313">
          <mxGeometry y="46" width="160" height="26" as="geometry" />
        </mxCell>
        <mxCell id="iHgnJFZeqUVyhQBtMsIq-316" value="+browse_panels(): Panel" style="text;strokeColor=none;fillColor=none;align=left;verticalAlign=top;spacingLeft=4;spacingRight=4;overflow=hidden;rotatable=0;points=[[0,0.5],[1,0.5]];portConstraint=eastwest;whiteSpace=wrap;html=1;" vertex="1" parent="iHgnJFZeqUVyhQBtMsIq-313">
          <mxGeometry y="72" width="160" height="26" as="geometry" />
        </mxCell>
        <mxCell id="iHgnJFZeqUVyhQBtMsIq-317" value="" style="endArrow=open;endFill=1;endSize=12;html=1;rounded=0;entryX=0.5;entryY=0;entryDx=0;entryDy=0;exitX=0;exitY=0.5;exitDx=0;exitDy=0;" edge="1" parent="1" source="iHgnJFZeqUVyhQBtMsIq-311" target="iHgnJFZeqUVyhQBtMsIq-278">
          <mxGeometry width="160" relative="1" as="geometry">
            <mxPoint x="-4333" y="-2427" as="sourcePoint" />
            <mxPoint x="-4707" y="-2663" as="targetPoint" />
          </mxGeometry>
        </mxCell>
        <mxCell id="iHgnJFZeqUVyhQBtMsIq-318" value="&amp;lt;&amp;lt; Boundary&amp;gt;&amp;gt;&lt;div&gt;ChooseRoleDialog&lt;/div&gt;" style="swimlane;fontStyle=1;align=center;verticalAlign=top;childLayout=stackLayout;horizontal=1;startSize=45;horizontalStack=0;resizeParent=1;resizeParentMax=0;resizeLast=0;collapsible=1;marginBottom=0;whiteSpace=wrap;html=1;fillColor=#CCCCFF;" vertex="1" parent="1">
          <mxGeometry x="-4543" y="-2309" width="210" height="183" as="geometry" />
        </mxCell>
        <mxCell id="iHgnJFZeqUVyhQBtMsIq-319" value="+btnSolver: button" style="text;strokeColor=none;fillColor=none;align=left;verticalAlign=top;spacingLeft=4;spacingRight=4;overflow=hidden;rotatable=0;points=[[0,0.5],[1,0.5]];portConstraint=eastwest;whiteSpace=wrap;html=1;" vertex="1" parent="iHgnJFZeqUVyhQBtMsIq-318">
          <mxGeometry y="45" width="210" height="26" as="geometry" />
        </mxCell>
        <mxCell id="iHgnJFZeqUVyhQBtMsIq-320" value="+btnGamemaster: button" style="text;strokeColor=none;fillColor=none;align=left;verticalAlign=top;spacingLeft=4;spacingRight=4;overflow=hidden;rotatable=0;points=[[0,0.5],[1,0.5]];portConstraint=eastwest;whiteSpace=wrap;html=1;" vertex="1" parent="iHgnJFZeqUVyhQBtMsIq-318">
          <mxGeometry y="71" width="210" height="26" as="geometry" />
        </mxCell>
        <mxCell id="iHgnJFZeqUVyhQBtMsIq-321" value="+lblChooseRole: label" style="text;strokeColor=none;fillColor=none;align=left;verticalAlign=top;spacingLeft=4;spacingRight=4;overflow=hidden;rotatable=0;points=[[0,0.5],[1,0.5]];portConstraint=eastwest;whiteSpace=wrap;html=1;" vertex="1" parent="iHgnJFZeqUVyhQBtMsIq-318">
          <mxGeometry y="97" width="210" height="26" as="geometry" />
        </mxCell>
        <mxCell id="iHgnJFZeqUVyhQBtMsIq-322" value="" style="line;strokeWidth=1;fillColor=none;align=left;verticalAlign=middle;spacingTop=-1;spacingLeft=3;spacingRight=3;rotatable=0;labelPosition=right;points=[];portConstraint=eastwest;strokeColor=inherit;" vertex="1" parent="iHgnJFZeqUVyhQBtMsIq-318">
          <mxGeometry y="123" width="210" height="8" as="geometry" />
        </mxCell>
        <mxCell id="iHgnJFZeqUVyhQBtMsIq-323" value="+btnSolverPress(): void" style="text;strokeColor=none;fillColor=none;align=left;verticalAlign=top;spacingLeft=4;spacingRight=4;overflow=hidden;rotatable=0;points=[[0,0.5],[1,0.5]];portConstraint=eastwest;whiteSpace=wrap;html=1;" vertex="1" parent="iHgnJFZeqUVyhQBtMsIq-318">
          <mxGeometry y="131" width="210" height="26" as="geometry" />
        </mxCell>
        <mxCell id="iHgnJFZeqUVyhQBtMsIq-324" value="+btnGamemasterPress(): void" style="text;strokeColor=none;fillColor=none;align=left;verticalAlign=top;spacingLeft=4;spacingRight=4;overflow=hidden;rotatable=0;points=[[0,0.5],[1,0.5]];portConstraint=eastwest;whiteSpace=wrap;html=1;" vertex="1" parent="iHgnJFZeqUVyhQBtMsIq-318">
          <mxGeometry y="157" width="210" height="26" as="geometry" />
        </mxCell>
        <mxCell id="iHgnJFZeqUVyhQBtMsIq-325" value="" style="endArrow=open;endFill=1;endSize=12;html=1;rounded=0;entryX=0;entryY=0.5;entryDx=0;entryDy=0;exitX=0.5;exitY=0;exitDx=0;exitDy=0;" edge="1" parent="1" source="iHgnJFZeqUVyhQBtMsIq-318" target="iHgnJFZeqUVyhQBtMsIq-311">
          <mxGeometry width="160" relative="1" as="geometry">
            <mxPoint x="-4668" y="-2299" as="sourcePoint" />
            <mxPoint x="-4373" y="-2445" as="targetPoint" />
          </mxGeometry>
        </mxCell>
        <mxCell id="iHgnJFZeqUVyhQBtMsIq-326" value="&amp;lt;&amp;lt; Boundary&amp;gt;&amp;gt;&lt;div&gt;HomepageGamemasterUI&lt;/div&gt;" style="swimlane;fontStyle=1;align=center;verticalAlign=top;childLayout=stackLayout;horizontal=1;startSize=45;horizontalStack=0;resizeParent=1;resizeParentMax=0;resizeLast=0;collapsible=1;marginBottom=0;whiteSpace=wrap;html=1;fillColor=#CCCCFF;" vertex="1" parent="1">
          <mxGeometry x="-4099" y="-2215" width="210" height="105" as="geometry" />
        </mxCell>
        <mxCell id="iHgnJFZeqUVyhQBtMsIq-327" value="+btnManageInvitations: button" style="text;strokeColor=none;fillColor=none;align=left;verticalAlign=top;spacingLeft=4;spacingRight=4;overflow=hidden;rotatable=0;points=[[0,0.5],[1,0.5]];portConstraint=eastwest;whiteSpace=wrap;html=1;" vertex="1" parent="iHgnJFZeqUVyhQBtMsIq-326">
          <mxGeometry y="45" width="210" height="26" as="geometry" />
        </mxCell>
        <mxCell id="iHgnJFZeqUVyhQBtMsIq-328" value="" style="line;strokeWidth=1;fillColor=none;align=left;verticalAlign=middle;spacingTop=-1;spacingLeft=3;spacingRight=3;rotatable=0;labelPosition=right;points=[];portConstraint=eastwest;strokeColor=inherit;" vertex="1" parent="iHgnJFZeqUVyhQBtMsIq-326">
          <mxGeometry y="71" width="210" height="8" as="geometry" />
        </mxCell>
        <mxCell id="iHgnJFZeqUVyhQBtMsIq-329" value="+btnManageInvitationsPress(): void" style="text;strokeColor=none;fillColor=none;align=left;verticalAlign=top;spacingLeft=4;spacingRight=4;overflow=hidden;rotatable=0;points=[[0,0.5],[1,0.5]];portConstraint=eastwest;whiteSpace=wrap;html=1;" vertex="1" parent="iHgnJFZeqUVyhQBtMsIq-326">
          <mxGeometry y="79" width="210" height="26" as="geometry" />
        </mxCell>
        <mxCell id="iHgnJFZeqUVyhQBtMsIq-330" value="" style="endArrow=open;endFill=1;endSize=12;html=1;rounded=0;exitX=0.5;exitY=0;exitDx=0;exitDy=0;entryX=0.5;entryY=1.082;entryDx=0;entryDy=0;entryPerimeter=0;" edge="1" parent="1" source="iHgnJFZeqUVyhQBtMsIq-326" target="iHgnJFZeqUVyhQBtMsIq-312">
          <mxGeometry width="160" relative="1" as="geometry">
            <mxPoint x="-3933" y="-3128" as="sourcePoint" />
            <mxPoint x="-4123" y="-2407" as="targetPoint" />
          </mxGeometry>
        </mxCell>
        <mxCell id="iHgnJFZeqUVyhQBtMsIq-331" value="" style="endArrow=block;endSize=16;endFill=0;html=1;rounded=0;entryX=1;entryY=0.5;entryDx=0;entryDy=0;exitX=0;exitY=0.5;exitDx=0;exitDy=0;" edge="1" parent="1" source="iHgnJFZeqUVyhQBtMsIq-327" target="iHgnJFZeqUVyhQBtMsIq-238">
          <mxGeometry width="160" relative="1" as="geometry">
            <mxPoint x="-4003" y="-2214" as="sourcePoint" />
            <mxPoint x="-3948" y="-2110" as="targetPoint" />
          </mxGeometry>
        </mxCell>
        <mxCell id="iHgnJFZeqUVyhQBtMsIq-332" value="" style="endArrow=open;endFill=1;endSize=12;html=1;rounded=0;exitX=0.25;exitY=0;exitDx=0;exitDy=0;entryX=0.504;entryY=1.055;entryDx=0;entryDy=0;entryPerimeter=0;" edge="1" parent="1" source="iHgnJFZeqUVyhQBtMsIq-237" target="iHgnJFZeqUVyhQBtMsIq-312">
          <mxGeometry width="160" relative="1" as="geometry">
            <mxPoint x="-4118" y="-2307" as="sourcePoint" />
            <mxPoint x="-4224" y="-2372" as="targetPoint" />
          </mxGeometry>
        </mxCell>
        <mxCell id="iHgnJFZeqUVyhQBtMsIq-333" style="edgeStyle=orthogonalEdgeStyle;rounded=0;orthogonalLoop=1;jettySize=auto;html=1;entryX=0.996;entryY=-0.082;entryDx=0;entryDy=0;exitX=0.25;exitY=0;exitDx=0;exitDy=0;entryPerimeter=0;" edge="1" parent="1" source="iHgnJFZeqUVyhQBtMsIq-237" target="iHgnJFZeqUVyhQBtMsIq-175">
          <mxGeometry relative="1" as="geometry">
            <mxPoint x="-4820" y="-2660" as="sourcePoint" />
          </mxGeometry>
        </mxCell>
        <mxCell id="iHgnJFZeqUVyhQBtMsIq-334" value="1" style="edgeLabel;html=1;align=center;verticalAlign=middle;resizable=0;points=[];" connectable="0" vertex="1" parent="iHgnJFZeqUVyhQBtMsIq-333">
          <mxGeometry x="0.9326" y="8" relative="1" as="geometry">
            <mxPoint x="693" y="449" as="offset" />
          </mxGeometry>
        </mxCell>
        <mxCell id="iHgnJFZeqUVyhQBtMsIq-335" value="" style="endArrow=open;endFill=1;endSize=12;html=1;rounded=0;exitX=1;exitY=0.5;exitDx=0;exitDy=0;entryX=0;entryY=0.5;entryDx=0;entryDy=0;" edge="1" parent="1" source="iHgnJFZeqUVyhQBtMsIq-315" target="iHgnJFZeqUVyhQBtMsIq-290">
          <mxGeometry width="160" relative="1" as="geometry">
            <mxPoint x="-4873" y="-2823" as="sourcePoint" />
            <mxPoint x="-3811" y="-2263" as="targetPoint" />
          </mxGeometry>
        </mxCell>
        <mxCell id="iHgnJFZeqUVyhQBtMsIq-336" style="edgeStyle=orthogonalEdgeStyle;rounded=0;orthogonalLoop=1;jettySize=auto;html=1;exitX=0.577;exitY=1.136;exitDx=0;exitDy=0;exitPerimeter=0;entryX=0.75;entryY=0;entryDx=0;entryDy=0;" edge="1" parent="1" source="iHgnJFZeqUVyhQBtMsIq-169" target="iHgnJFZeqUVyhQBtMsIq-313">
          <mxGeometry relative="1" as="geometry">
            <mxPoint x="-5343" y="-2267" as="targetPoint" />
            <Array as="points">
              <mxPoint x="-5999" y="-2517" />
              <mxPoint x="-5348" y="-2517" />
            </Array>
          </mxGeometry>
        </mxCell>
        <mxCell id="iHgnJFZeqUVyhQBtMsIq-337" style="edgeStyle=orthogonalEdgeStyle;rounded=0;orthogonalLoop=1;jettySize=auto;html=1;exitX=0.75;exitY=0;exitDx=0;exitDy=0;entryX=0;entryY=0.5;entryDx=0;entryDy=0;" edge="1" parent="1" source="iHgnJFZeqUVyhQBtMsIq-313" target="iHgnJFZeqUVyhQBtMsIq-260">
          <mxGeometry relative="1" as="geometry">
            <mxPoint x="-5190" y="-2110" as="targetPoint" />
          </mxGeometry>
        </mxCell>
        <mxCell id="iHgnJFZeqUVyhQBtMsIq-338" value="&amp;lt;&amp;lt;Boundary&amp;gt;&amp;gt;&lt;div&gt;StoryOptionsUI&lt;/div&gt;" style="swimlane;fontStyle=1;align=center;verticalAlign=top;childLayout=stackLayout;horizontal=1;startSize=37;horizontalStack=0;resizeParent=1;resizeParentMax=0;resizeLast=0;collapsible=1;marginBottom=0;whiteSpace=wrap;html=1;fillColor=#CCCCFF;" vertex="1" parent="1">
          <mxGeometry x="-5463" y="-1797" width="174" height="569" as="geometry" />
        </mxCell>
        <mxCell id="iHgnJFZeqUVyhQBtMsIq-339" value="+lblStories: label" style="text;strokeColor=none;fillColor=none;align=left;verticalAlign=top;spacingLeft=4;spacingRight=4;overflow=hidden;rotatable=0;points=[[0,0.5],[1,0.5]];portConstraint=eastwest;whiteSpace=wrap;html=1;" vertex="1" parent="iHgnJFZeqUVyhQBtMsIq-338">
          <mxGeometry y="37" width="174" height="26" as="geometry" />
        </mxCell>
        <mxCell id="iHgnJFZeqUVyhQBtMsIq-340" value="+btnSettings: button" style="text;strokeColor=none;fillColor=none;align=left;verticalAlign=top;spacingLeft=4;spacingRight=4;overflow=hidden;rotatable=0;points=[[0,0.5],[1,0.5]];portConstraint=eastwest;whiteSpace=wrap;html=1;" vertex="1" parent="iHgnJFZeqUVyhQBtMsIq-338">
          <mxGeometry y="63" width="174" height="26" as="geometry" />
        </mxCell>
        <mxCell id="iHgnJFZeqUVyhQBtMsIq-341" value="+btnLogout: button" style="text;strokeColor=none;fillColor=none;align=left;verticalAlign=top;spacingLeft=4;spacingRight=4;overflow=hidden;rotatable=0;points=[[0,0.5],[1,0.5]];portConstraint=eastwest;whiteSpace=wrap;html=1;" vertex="1" parent="iHgnJFZeqUVyhQBtMsIq-338">
          <mxGeometry y="89" width="174" height="26" as="geometry" />
        </mxCell>
        <mxCell id="iHgnJFZeqUVyhQBtMsIq-342" value="+lblStoryName1: label" style="text;strokeColor=none;fillColor=none;align=left;verticalAlign=top;spacingLeft=4;spacingRight=4;overflow=hidden;rotatable=0;points=[[0,0.5],[1,0.5]];portConstraint=eastwest;whiteSpace=wrap;html=1;" vertex="1" parent="iHgnJFZeqUVyhQBtMsIq-338">
          <mxGeometry y="115" width="174" height="26" as="geometry" />
        </mxCell>
        <mxCell id="iHgnJFZeqUVyhQBtMsIq-343" value="+lblStoryName2: label" style="text;strokeColor=none;fillColor=none;align=left;verticalAlign=top;spacingLeft=4;spacingRight=4;overflow=hidden;rotatable=0;points=[[0,0.5],[1,0.5]];portConstraint=eastwest;whiteSpace=wrap;html=1;" vertex="1" parent="iHgnJFZeqUVyhQBtMsIq-338">
          <mxGeometry y="141" width="174" height="26" as="geometry" />
        </mxCell>
        <mxCell id="iHgnJFZeqUVyhQBtMsIq-344" value="+lblStoryName3: label" style="text;strokeColor=none;fillColor=none;align=left;verticalAlign=top;spacingLeft=4;spacingRight=4;overflow=hidden;rotatable=0;points=[[0,0.5],[1,0.5]];portConstraint=eastwest;whiteSpace=wrap;html=1;" vertex="1" parent="iHgnJFZeqUVyhQBtMsIq-338">
          <mxGeometry y="167" width="174" height="26" as="geometry" />
        </mxCell>
        <mxCell id="iHgnJFZeqUVyhQBtMsIq-345" value="+imgStoryCover1: image" style="text;strokeColor=none;fillColor=none;align=left;verticalAlign=top;spacingLeft=4;spacingRight=4;overflow=hidden;rotatable=0;points=[[0,0.5],[1,0.5]];portConstraint=eastwest;whiteSpace=wrap;html=1;" vertex="1" parent="iHgnJFZeqUVyhQBtMsIq-338">
          <mxGeometry y="193" width="174" height="26" as="geometry" />
        </mxCell>
        <mxCell id="iHgnJFZeqUVyhQBtMsIq-346" value="+imgStoryCover2: image" style="text;strokeColor=none;fillColor=none;align=left;verticalAlign=top;spacingLeft=4;spacingRight=4;overflow=hidden;rotatable=0;points=[[0,0.5],[1,0.5]];portConstraint=eastwest;whiteSpace=wrap;html=1;" vertex="1" parent="iHgnJFZeqUVyhQBtMsIq-338">
          <mxGeometry y="219" width="174" height="26" as="geometry" />
        </mxCell>
        <mxCell id="iHgnJFZeqUVyhQBtMsIq-347" value="+imgStoryCover3: image" style="text;strokeColor=none;fillColor=none;align=left;verticalAlign=top;spacingLeft=4;spacingRight=4;overflow=hidden;rotatable=0;points=[[0,0.5],[1,0.5]];portConstraint=eastwest;whiteSpace=wrap;html=1;" vertex="1" parent="iHgnJFZeqUVyhQBtMsIq-338">
          <mxGeometry y="245" width="174" height="26" as="geometry" />
        </mxCell>
        <mxCell id="iHgnJFZeqUVyhQBtMsIq-348" value="+txtStoryContent1: text" style="text;strokeColor=none;fillColor=none;align=left;verticalAlign=top;spacingLeft=4;spacingRight=4;overflow=hidden;rotatable=0;points=[[0,0.5],[1,0.5]];portConstraint=eastwest;whiteSpace=wrap;html=1;" vertex="1" parent="iHgnJFZeqUVyhQBtMsIq-338">
          <mxGeometry y="271" width="174" height="26" as="geometry" />
        </mxCell>
        <mxCell id="iHgnJFZeqUVyhQBtMsIq-349" value="+txtStoryContent2: text" style="text;strokeColor=none;fillColor=none;align=left;verticalAlign=top;spacingLeft=4;spacingRight=4;overflow=hidden;rotatable=0;points=[[0,0.5],[1,0.5]];portConstraint=eastwest;whiteSpace=wrap;html=1;" vertex="1" parent="iHgnJFZeqUVyhQBtMsIq-338">
          <mxGeometry y="297" width="174" height="26" as="geometry" />
        </mxCell>
        <mxCell id="iHgnJFZeqUVyhQBtMsIq-350" value="+txtStoryContent1: text" style="text;strokeColor=none;fillColor=none;align=left;verticalAlign=top;spacingLeft=4;spacingRight=4;overflow=hidden;rotatable=0;points=[[0,0.5],[1,0.5]];portConstraint=eastwest;whiteSpace=wrap;html=1;" vertex="1" parent="iHgnJFZeqUVyhQBtMsIq-338">
          <mxGeometry y="323" width="174" height="26" as="geometry" />
        </mxCell>
        <mxCell id="iHgnJFZeqUVyhQBtMsIq-351" value="+btnDownArrow: button" style="text;strokeColor=none;fillColor=none;align=left;verticalAlign=top;spacingLeft=4;spacingRight=4;overflow=hidden;rotatable=0;points=[[0,0.5],[1,0.5]];portConstraint=eastwest;whiteSpace=wrap;html=1;" vertex="1" parent="iHgnJFZeqUVyhQBtMsIq-338">
          <mxGeometry y="349" width="174" height="26" as="geometry" />
        </mxCell>
        <mxCell id="iHgnJFZeqUVyhQBtMsIq-352" value="+btnRightArrow1: button" style="text;strokeColor=none;fillColor=none;align=left;verticalAlign=top;spacingLeft=4;spacingRight=4;overflow=hidden;rotatable=0;points=[[0,0.5],[1,0.5]];portConstraint=eastwest;whiteSpace=wrap;html=1;" vertex="1" parent="iHgnJFZeqUVyhQBtMsIq-338">
          <mxGeometry y="375" width="174" height="26" as="geometry" />
        </mxCell>
        <mxCell id="iHgnJFZeqUVyhQBtMsIq-353" value="+btnRightArrow2: button" style="text;strokeColor=none;fillColor=none;align=left;verticalAlign=top;spacingLeft=4;spacingRight=4;overflow=hidden;rotatable=0;points=[[0,0.5],[1,0.5]];portConstraint=eastwest;whiteSpace=wrap;html=1;" vertex="1" parent="iHgnJFZeqUVyhQBtMsIq-338">
          <mxGeometry y="401" width="174" height="26" as="geometry" />
        </mxCell>
        <mxCell id="iHgnJFZeqUVyhQBtMsIq-354" value="+btnRightArrow3: button" style="text;strokeColor=none;fillColor=none;align=left;verticalAlign=top;spacingLeft=4;spacingRight=4;overflow=hidden;rotatable=0;points=[[0,0.5],[1,0.5]];portConstraint=eastwest;whiteSpace=wrap;html=1;" vertex="1" parent="iHgnJFZeqUVyhQBtMsIq-338">
          <mxGeometry y="427" width="174" height="26" as="geometry" />
        </mxCell>
        <mxCell id="iHgnJFZeqUVyhQBtMsIq-355" value="" style="line;strokeWidth=1;fillColor=none;align=left;verticalAlign=middle;spacingTop=-1;spacingLeft=3;spacingRight=3;rotatable=0;labelPosition=right;points=[];portConstraint=eastwest;strokeColor=inherit;" vertex="1" parent="iHgnJFZeqUVyhQBtMsIq-338">
          <mxGeometry y="453" width="174" height="8" as="geometry" />
        </mxCell>
        <mxCell id="iHgnJFZeqUVyhQBtMsIq-356" value="+btnRightArrow1Press(): void" style="text;strokeColor=none;fillColor=none;align=left;verticalAlign=top;spacingLeft=4;spacingRight=4;overflow=hidden;rotatable=0;points=[[0,0.5],[1,0.5]];portConstraint=eastwest;whiteSpace=wrap;html=1;" vertex="1" parent="iHgnJFZeqUVyhQBtMsIq-338">
          <mxGeometry y="461" width="174" height="30" as="geometry" />
        </mxCell>
        <mxCell id="iHgnJFZeqUVyhQBtMsIq-357" value="+btnRightArrow2Press(): void" style="text;strokeColor=none;fillColor=none;align=left;verticalAlign=top;spacingLeft=4;spacingRight=4;overflow=hidden;rotatable=0;points=[[0,0.5],[1,0.5]];portConstraint=eastwest;whiteSpace=wrap;html=1;" vertex="1" parent="iHgnJFZeqUVyhQBtMsIq-338">
          <mxGeometry y="491" width="174" height="26" as="geometry" />
        </mxCell>
        <mxCell id="iHgnJFZeqUVyhQBtMsIq-358" value="+btnRightArr&lt;span style=&quot;color: rgba(0, 0, 0, 0); font-family: monospace; font-size: 0px; text-wrap-mode: nowrap;&quot;&gt;%3CmxGraphModel%3E%3Croot%3E%3CmxCell%20id%3D%220%22%2F%3E%3CmxCell%20id%3D%221%22%20parent%3D%220%22%2F%3E%3CmxCell%20id%3D%222%22%20value%3D%22%2BbtnRightArrow1Press()%3A%20void%22%20style%3D%22text%3BstrokeColor%3Dnone%3BfillColor%3Dnone%3Balign%3Dleft%3BverticalAlign%3Dtop%3BspacingLeft%3D4%3BspacingRight%3D4%3Boverflow%3Dhidden%3Brotatable%3D0%3Bpoints%3D%5B%5B0%2C0.5%5D%2C%5B1%2C0.5%5D%5D%3BportConstraint%3Deastwest%3BwhiteSpace%3Dwrap%3Bhtml%3D1%3B%22%20vertex%3D%221%22%20parent%3D%221%22%3E%3CmxGeometry%20x%3D%22-3084%22%20y%3D%22-1960%22%20width%3D%22174%22%20height%3D%2226%22%20as%3D%22geometry%22%2F%3E%3C%2FmxCell%3E%3C%2Froot%3E%3C%2FmxGraphModel%3E&lt;/span&gt;ow3Press(): void" style="text;strokeColor=none;fillColor=none;align=left;verticalAlign=top;spacingLeft=4;spacingRight=4;overflow=hidden;rotatable=0;points=[[0,0.5],[1,0.5]];portConstraint=eastwest;whiteSpace=wrap;html=1;" vertex="1" parent="iHgnJFZeqUVyhQBtMsIq-338">
          <mxGeometry y="517" width="174" height="26" as="geometry" />
        </mxCell>
        <mxCell id="iHgnJFZeqUVyhQBtMsIq-359" value="+btnDownArrowPress(): void" style="text;strokeColor=none;fillColor=none;align=left;verticalAlign=top;spacingLeft=4;spacingRight=4;overflow=hidden;rotatable=0;points=[[0,0.5],[1,0.5]];portConstraint=eastwest;whiteSpace=wrap;html=1;" vertex="1" parent="iHgnJFZeqUVyhQBtMsIq-338">
          <mxGeometry y="543" width="174" height="26" as="geometry" />
        </mxCell>
        <mxCell id="iHgnJFZeqUVyhQBtMsIq-360" value="" style="endArrow=open;endFill=1;endSize=12;html=1;rounded=0;entryX=0.575;entryY=0.827;entryDx=0;entryDy=0;entryPerimeter=0;exitX=0.5;exitY=0;exitDx=0;exitDy=0;" edge="1" parent="1" source="iHgnJFZeqUVyhQBtMsIq-338" target="iHgnJFZeqUVyhQBtMsIq-316">
          <mxGeometry width="160" relative="1" as="geometry">
            <mxPoint x="-5106" y="-2558" as="sourcePoint" />
            <mxPoint x="-5106" y="-2644" as="targetPoint" />
            <Array as="points" />
          </mxGeometry>
        </mxCell>
        <mxCell id="iHgnJFZeqUVyhQBtMsIq-361" value="&amp;lt;&amp;lt;Entity&amp;gt;&amp;gt;&lt;div&gt;Story&lt;/div&gt;" style="swimlane;fontStyle=1;align=center;verticalAlign=top;childLayout=stackLayout;horizontal=1;startSize=39;horizontalStack=0;resizeParent=1;resizeParentMax=0;resizeLast=0;collapsible=1;marginBottom=0;whiteSpace=wrap;html=1;fillColor=#9AC7BF;" vertex="1" parent="1">
          <mxGeometry x="-5738" y="-2044.5" width="220" height="463" as="geometry" />
        </mxCell>
        <mxCell id="iHgnJFZeqUVyhQBtMsIq-362" value="+chosen: Boolean" style="text;strokeColor=none;fillColor=none;align=left;verticalAlign=top;spacingLeft=4;spacingRight=4;overflow=hidden;rotatable=0;points=[[0,0.5],[1,0.5]];portConstraint=eastwest;whiteSpace=wrap;html=1;" vertex="1" parent="iHgnJFZeqUVyhQBtMsIq-361">
          <mxGeometry y="39" width="220" height="26" as="geometry" />
        </mxCell>
        <mxCell id="iHgnJFZeqUVyhQBtMsIq-363" value="+id: Integer" style="text;strokeColor=none;fillColor=none;align=left;verticalAlign=top;spacingLeft=4;spacingRight=4;overflow=hidden;rotatable=0;points=[[0,0.5],[1,0.5]];portConstraint=eastwest;whiteSpace=wrap;html=1;" vertex="1" parent="iHgnJFZeqUVyhQBtMsIq-361">
          <mxGeometry y="65" width="220" height="26" as="geometry" />
        </mxCell>
        <mxCell id="iHgnJFZeqUVyhQBtMsIq-364" value="&lt;div&gt;+title: String&lt;/div&gt;" style="text;strokeColor=none;fillColor=none;align=left;verticalAlign=top;spacingLeft=4;spacingRight=4;overflow=hidden;rotatable=0;points=[[0,0.5],[1,0.5]];portConstraint=eastwest;whiteSpace=wrap;html=1;" vertex="1" parent="iHgnJFZeqUVyhQBtMsIq-361">
          <mxGeometry y="91" width="220" height="26" as="geometry" />
        </mxCell>
        <mxCell id="iHgnJFZeqUVyhQBtMsIq-365" value="&lt;div&gt;+panels: List&amp;lt;Panel&amp;gt;&lt;/div&gt;" style="text;strokeColor=none;fillColor=none;align=left;verticalAlign=top;spacingLeft=4;spacingRight=4;overflow=hidden;rotatable=0;points=[[0,0.5],[1,0.5]];portConstraint=eastwest;whiteSpace=wrap;html=1;" vertex="1" parent="iHgnJFZeqUVyhQBtMsIq-361">
          <mxGeometry y="117" width="220" height="26" as="geometry" />
        </mxCell>
        <mxCell id="iHgnJFZeqUVyhQBtMsIq-366" value="&lt;div&gt;+riddles: List&amp;lt;Riddle&amp;gt;&lt;/div&gt;" style="text;strokeColor=none;fillColor=none;align=left;verticalAlign=top;spacingLeft=4;spacingRight=4;overflow=hidden;rotatable=0;points=[[0,0.5],[1,0.5]];portConstraint=eastwest;whiteSpace=wrap;html=1;" vertex="1" parent="iHgnJFZeqUVyhQBtMsIq-361">
          <mxGeometry y="143" width="220" height="26" as="geometry" />
        </mxCell>
        <mxCell id="iHgnJFZeqUVyhQBtMsIq-367" value="" style="line;strokeWidth=1;fillColor=none;align=left;verticalAlign=middle;spacingTop=-1;spacingLeft=3;spacingRight=3;rotatable=0;labelPosition=right;points=[];portConstraint=eastwest;strokeColor=inherit;" vertex="1" parent="iHgnJFZeqUVyhQBtMsIq-361">
          <mxGeometry y="169" width="220" height="8" as="geometry" />
        </mxCell>
        <mxCell id="iHgnJFZeqUVyhQBtMsIq-368" value="+Story(): void" style="text;strokeColor=none;fillColor=none;align=left;verticalAlign=top;spacingLeft=4;spacingRight=4;overflow=hidden;rotatable=0;points=[[0,0.5],[1,0.5]];portConstraint=eastwest;whiteSpace=wrap;html=1;" vertex="1" parent="iHgnJFZeqUVyhQBtMsIq-361">
          <mxGeometry y="177" width="220" height="26" as="geometry" />
        </mxCell>
        <mxCell id="iHgnJFZeqUVyhQBtMsIq-369" value="+getChosen(): Boolean" style="text;strokeColor=none;fillColor=none;align=left;verticalAlign=top;spacingLeft=4;spacingRight=4;overflow=hidden;rotatable=0;points=[[0,0.5],[1,0.5]];portConstraint=eastwest;whiteSpace=wrap;html=1;" vertex="1" parent="iHgnJFZeqUVyhQBtMsIq-361">
          <mxGeometry y="203" width="220" height="26" as="geometry" />
        </mxCell>
        <mxCell id="iHgnJFZeqUVyhQBtMsIq-370" value="+setChosen(chosen: Boolean): void" style="text;strokeColor=none;fillColor=none;align=left;verticalAlign=top;spacingLeft=4;spacingRight=4;overflow=hidden;rotatable=0;points=[[0,0.5],[1,0.5]];portConstraint=eastwest;whiteSpace=wrap;html=1;" vertex="1" parent="iHgnJFZeqUVyhQBtMsIq-361">
          <mxGeometry y="229" width="220" height="26" as="geometry" />
        </mxCell>
        <mxCell id="iHgnJFZeqUVyhQBtMsIq-371" value="+getId(): Integer" style="text;strokeColor=none;fillColor=none;align=left;verticalAlign=top;spacingLeft=4;spacingRight=4;overflow=hidden;rotatable=0;points=[[0,0.5],[1,0.5]];portConstraint=eastwest;whiteSpace=wrap;html=1;" vertex="1" parent="iHgnJFZeqUVyhQBtMsIq-361">
          <mxGeometry y="255" width="220" height="26" as="geometry" />
        </mxCell>
        <mxCell id="iHgnJFZeqUVyhQBtMsIq-372" value="+setId(id: Integer): void" style="text;strokeColor=none;fillColor=none;align=left;verticalAlign=top;spacingLeft=4;spacingRight=4;overflow=hidden;rotatable=0;points=[[0,0.5],[1,0.5]];portConstraint=eastwest;whiteSpace=wrap;html=1;" vertex="1" parent="iHgnJFZeqUVyhQBtMsIq-361">
          <mxGeometry y="281" width="220" height="26" as="geometry" />
        </mxCell>
        <mxCell id="iHgnJFZeqUVyhQBtMsIq-373" value="+getTitle(): String" style="text;strokeColor=none;fillColor=none;align=left;verticalAlign=top;spacingLeft=4;spacingRight=4;overflow=hidden;rotatable=0;points=[[0,0.5],[1,0.5]];portConstraint=eastwest;whiteSpace=wrap;html=1;" vertex="1" parent="iHgnJFZeqUVyhQBtMsIq-361">
          <mxGeometry y="307" width="220" height="26" as="geometry" />
        </mxCell>
        <mxCell id="iHgnJFZeqUVyhQBtMsIq-374" value="+setTitle(title: String): void" style="text;strokeColor=none;fillColor=none;align=left;verticalAlign=top;spacingLeft=4;spacingRight=4;overflow=hidden;rotatable=0;points=[[0,0.5],[1,0.5]];portConstraint=eastwest;whiteSpace=wrap;html=1;" vertex="1" parent="iHgnJFZeqUVyhQBtMsIq-361">
          <mxGeometry y="333" width="220" height="26" as="geometry" />
        </mxCell>
        <mxCell id="iHgnJFZeqUVyhQBtMsIq-375" value="+getPanels(): List&amp;lt;Panel&amp;gt;" style="text;strokeColor=none;fillColor=none;align=left;verticalAlign=top;spacingLeft=4;spacingRight=4;overflow=hidden;rotatable=0;points=[[0,0.5],[1,0.5]];portConstraint=eastwest;whiteSpace=wrap;html=1;" vertex="1" parent="iHgnJFZeqUVyhQBtMsIq-361">
          <mxGeometry y="359" width="220" height="26" as="geometry" />
        </mxCell>
        <mxCell id="iHgnJFZeqUVyhQBtMsIq-376" value="+setPanels(panels: List&amp;lt;Panel&amp;gt;): void" style="text;strokeColor=none;fillColor=none;align=left;verticalAlign=top;spacingLeft=4;spacingRight=4;overflow=hidden;rotatable=0;points=[[0,0.5],[1,0.5]];portConstraint=eastwest;whiteSpace=wrap;html=1;" vertex="1" parent="iHgnJFZeqUVyhQBtMsIq-361">
          <mxGeometry y="385" width="220" height="26" as="geometry" />
        </mxCell>
        <mxCell id="iHgnJFZeqUVyhQBtMsIq-377" value="+getRiddles(): List&amp;lt;Riddle&amp;gt;" style="text;strokeColor=none;fillColor=none;align=left;verticalAlign=top;spacingLeft=4;spacingRight=4;overflow=hidden;rotatable=0;points=[[0,0.5],[1,0.5]];portConstraint=eastwest;whiteSpace=wrap;html=1;" vertex="1" parent="iHgnJFZeqUVyhQBtMsIq-361">
          <mxGeometry y="411" width="220" height="26" as="geometry" />
        </mxCell>
        <mxCell id="iHgnJFZeqUVyhQBtMsIq-378" value="+setRiddles(riddle: List&amp;lt;Riddle&amp;gt;): void" style="text;strokeColor=none;fillColor=none;align=left;verticalAlign=top;spacingLeft=4;spacingRight=4;overflow=hidden;rotatable=0;points=[[0,0.5],[1,0.5]];portConstraint=eastwest;whiteSpace=wrap;html=1;" vertex="1" parent="iHgnJFZeqUVyhQBtMsIq-361">
          <mxGeometry y="437" width="220" height="26" as="geometry" />
        </mxCell>
        <mxCell id="iHgnJFZeqUVyhQBtMsIq-379" value="" style="endArrow=open;endFill=1;endSize=12;html=1;rounded=0;entryX=1;entryY=0.5;entryDx=0;entryDy=0;exitX=0.57;exitY=1.011;exitDx=0;exitDy=0;exitPerimeter=0;" edge="1" parent="1" source="iHgnJFZeqUVyhQBtMsIq-316" target="iHgnJFZeqUVyhQBtMsIq-365">
          <mxGeometry width="160" relative="1" as="geometry">
            <mxPoint x="-5366" y="-2067" as="sourcePoint" />
            <mxPoint x="-5366" y="-2163" as="targetPoint" />
            <Array as="points" />
          </mxGeometry>
        </mxCell>
        <mxCell id="iHgnJFZeqUVyhQBtMsIq-380" value="&lt;div&gt;&amp;lt;&amp;lt;Boundary&amp;gt;&amp;gt;&lt;/div&gt;StoryPanelUI" style="swimlane;fontStyle=1;align=center;verticalAlign=top;childLayout=stackLayout;horizontal=1;startSize=39;horizontalStack=0;resizeParent=1;resizeParentMax=0;resizeLast=0;collapsible=1;marginBottom=0;whiteSpace=wrap;html=1;fillColor=#CCCCFF;" vertex="1" parent="1">
          <mxGeometry x="-5263" y="-1797" width="204" height="255" as="geometry" />
        </mxCell>
        <mxCell id="iHgnJFZeqUVyhQBtMsIq-381" value="+btnLeftArrow: button" style="text;strokeColor=none;fillColor=none;align=left;verticalAlign=top;spacingLeft=4;spacingRight=4;overflow=hidden;rotatable=0;points=[[0,0.5],[1,0.5]];portConstraint=eastwest;whiteSpace=wrap;html=1;" vertex="1" parent="iHgnJFZeqUVyhQBtMsIq-380">
          <mxGeometry y="39" width="204" height="26" as="geometry" />
        </mxCell>
        <mxCell id="iHgnJFZeqUVyhQBtMsIq-382" value="+btnRightArrow: button" style="text;strokeColor=none;fillColor=none;align=left;verticalAlign=top;spacingLeft=4;spacingRight=4;overflow=hidden;rotatable=0;points=[[0,0.5],[1,0.5]];portConstraint=eastwest;whiteSpace=wrap;html=1;" vertex="1" parent="iHgnJFZeqUVyhQBtMsIq-380">
          <mxGeometry y="65" width="204" height="26" as="geometry" />
        </mxCell>
        <mxCell id="iHgnJFZeqUVyhQBtMsIq-383" value="+btnReturnHome: button" style="text;strokeColor=none;fillColor=none;align=left;verticalAlign=top;spacingLeft=4;spacingRight=4;overflow=hidden;rotatable=0;points=[[0,0.5],[1,0.5]];portConstraint=eastwest;whiteSpace=wrap;html=1;" vertex="1" parent="iHgnJFZeqUVyhQBtMsIq-380">
          <mxGeometry y="91" width="204" height="26" as="geometry" />
        </mxCell>
        <mxCell id="iHgnJFZeqUVyhQBtMsIq-384" value="+imgRightPanel: image" style="text;strokeColor=none;fillColor=none;align=left;verticalAlign=top;spacingLeft=4;spacingRight=4;overflow=hidden;rotatable=0;points=[[0,0.5],[1,0.5]];portConstraint=eastwest;whiteSpace=wrap;html=1;" vertex="1" parent="iHgnJFZeqUVyhQBtMsIq-380">
          <mxGeometry y="117" width="204" height="26" as="geometry" />
        </mxCell>
        <mxCell id="iHgnJFZeqUVyhQBtMsIq-385" value="+imgLeftPanel: image" style="text;strokeColor=none;fillColor=none;align=left;verticalAlign=top;spacingLeft=4;spacingRight=4;overflow=hidden;rotatable=0;points=[[0,0.5],[1,0.5]];portConstraint=eastwest;whiteSpace=wrap;html=1;" vertex="1" parent="iHgnJFZeqUVyhQBtMsIq-380">
          <mxGeometry y="143" width="204" height="26" as="geometry" />
        </mxCell>
        <mxCell id="iHgnJFZeqUVyhQBtMsIq-386" value="" style="line;strokeWidth=1;fillColor=none;align=left;verticalAlign=middle;spacingTop=-1;spacingLeft=3;spacingRight=3;rotatable=0;labelPosition=right;points=[];portConstraint=eastwest;strokeColor=inherit;" vertex="1" parent="iHgnJFZeqUVyhQBtMsIq-380">
          <mxGeometry y="169" width="204" height="8" as="geometry" />
        </mxCell>
        <mxCell id="iHgnJFZeqUVyhQBtMsIq-387" value="+btnLeftArrowPress(): void" style="text;strokeColor=none;fillColor=none;align=left;verticalAlign=top;spacingLeft=4;spacingRight=4;overflow=hidden;rotatable=0;points=[[0,0.5],[1,0.5]];portConstraint=eastwest;whiteSpace=wrap;html=1;" vertex="1" parent="iHgnJFZeqUVyhQBtMsIq-380">
          <mxGeometry y="177" width="204" height="26" as="geometry" />
        </mxCell>
        <mxCell id="iHgnJFZeqUVyhQBtMsIq-388" value="+btnRightArrowPress(): void" style="text;strokeColor=none;fillColor=none;align=left;verticalAlign=top;spacingLeft=4;spacingRight=4;overflow=hidden;rotatable=0;points=[[0,0.5],[1,0.5]];portConstraint=eastwest;whiteSpace=wrap;html=1;" vertex="1" parent="iHgnJFZeqUVyhQBtMsIq-380">
          <mxGeometry y="203" width="204" height="26" as="geometry" />
        </mxCell>
        <mxCell id="iHgnJFZeqUVyhQBtMsIq-389" value="+btnReturnHomePress(): void" style="text;strokeColor=none;fillColor=none;align=left;verticalAlign=top;spacingLeft=4;spacingRight=4;overflow=hidden;rotatable=0;points=[[0,0.5],[1,0.5]];portConstraint=eastwest;whiteSpace=wrap;html=1;" vertex="1" parent="iHgnJFZeqUVyhQBtMsIq-380">
          <mxGeometry y="229" width="204" height="26" as="geometry" />
        </mxCell>
        <mxCell id="iHgnJFZeqUVyhQBtMsIq-390" value="" style="endArrow=open;endFill=1;endSize=12;html=1;rounded=0;exitX=0.5;exitY=0;exitDx=0;exitDy=0;entryX=0.571;entryY=0.971;entryDx=0;entryDy=0;entryPerimeter=0;" edge="1" parent="1" source="iHgnJFZeqUVyhQBtMsIq-380" target="iHgnJFZeqUVyhQBtMsIq-316">
          <mxGeometry width="160" relative="1" as="geometry">
            <mxPoint x="-5364" y="-2154" as="sourcePoint" />
            <mxPoint x="-5643" y="-2237" as="targetPoint" />
            <Array as="points" />
          </mxGeometry>
        </mxCell>
        <mxCell id="iHgnJFZeqUVyhQBtMsIq-391" style="edgeStyle=orthogonalEdgeStyle;rounded=0;orthogonalLoop=1;jettySize=auto;html=1;exitX=1;exitY=0.5;exitDx=0;exitDy=0;entryX=0.5;entryY=0;entryDx=0;entryDy=0;" edge="1" parent="1" source="iHgnJFZeqUVyhQBtMsIq-16" target="iHgnJFZeqUVyhQBtMsIq-361">
          <mxGeometry relative="1" as="geometry">
            <mxPoint x="-6053" y="-2516" as="sourcePoint" />
            <mxPoint x="-5623" y="-2177" as="targetPoint" />
            <Array as="points">
              <mxPoint x="-5628" y="-2517" />
            </Array>
          </mxGeometry>
        </mxCell>
        <mxCell id="iHgnJFZeqUVyhQBtMsIq-392" value="&lt;div&gt;&amp;lt;&amp;lt;Entity&amp;gt;&amp;gt;&lt;/div&gt;Panel" style="swimlane;fontStyle=1;align=center;verticalAlign=top;childLayout=stackLayout;horizontal=1;startSize=39;horizontalStack=0;resizeParent=1;resizeParentMax=0;resizeLast=0;collapsible=1;marginBottom=0;whiteSpace=wrap;html=1;fillColor=#9AC7BF;" vertex="1" parent="1">
          <mxGeometry x="-5718" y="-1447" width="204" height="229" as="geometry" />
        </mxCell>
        <mxCell id="iHgnJFZeqUVyhQBtMsIq-393" value="+id: Integer" style="text;strokeColor=none;fillColor=none;align=left;verticalAlign=top;spacingLeft=4;spacingRight=4;overflow=hidden;rotatable=0;points=[[0,0.5],[1,0.5]];portConstraint=eastwest;whiteSpace=wrap;html=1;" vertex="1" parent="iHgnJFZeqUVyhQBtMsIq-392">
          <mxGeometry y="39" width="204" height="26" as="geometry" />
        </mxCell>
        <mxCell id="iHgnJFZeqUVyhQBtMsIq-394" value="+content: Image" style="text;strokeColor=none;fillColor=none;align=left;verticalAlign=top;spacingLeft=4;spacingRight=4;overflow=hidden;rotatable=0;points=[[0,0.5],[1,0.5]];portConstraint=eastwest;whiteSpace=wrap;html=1;" vertex="1" parent="iHgnJFZeqUVyhQBtMsIq-392">
          <mxGeometry y="65" width="204" height="26" as="geometry" />
        </mxCell>
        <mxCell id="iHgnJFZeqUVyhQBtMsIq-395" value="" style="line;strokeWidth=1;fillColor=none;align=left;verticalAlign=middle;spacingTop=-1;spacingLeft=3;spacingRight=3;rotatable=0;labelPosition=right;points=[];portConstraint=eastwest;strokeColor=inherit;" vertex="1" parent="iHgnJFZeqUVyhQBtMsIq-392">
          <mxGeometry y="91" width="204" height="8" as="geometry" />
        </mxCell>
        <mxCell id="iHgnJFZeqUVyhQBtMsIq-396" value="+Panel(): void" style="text;strokeColor=none;fillColor=none;align=left;verticalAlign=top;spacingLeft=4;spacingRight=4;overflow=hidden;rotatable=0;points=[[0,0.5],[1,0.5]];portConstraint=eastwest;whiteSpace=wrap;html=1;" vertex="1" parent="iHgnJFZeqUVyhQBtMsIq-392">
          <mxGeometry y="99" width="204" height="26" as="geometry" />
        </mxCell>
        <mxCell id="iHgnJFZeqUVyhQBtMsIq-397" value="+getId(): Integer" style="text;strokeColor=none;fillColor=none;align=left;verticalAlign=top;spacingLeft=4;spacingRight=4;overflow=hidden;rotatable=0;points=[[0,0.5],[1,0.5]];portConstraint=eastwest;whiteSpace=wrap;html=1;" vertex="1" parent="iHgnJFZeqUVyhQBtMsIq-392">
          <mxGeometry y="125" width="204" height="26" as="geometry" />
        </mxCell>
        <mxCell id="iHgnJFZeqUVyhQBtMsIq-398" value="+setId(id: Integer): void" style="text;strokeColor=none;fillColor=none;align=left;verticalAlign=top;spacingLeft=4;spacingRight=4;overflow=hidden;rotatable=0;points=[[0,0.5],[1,0.5]];portConstraint=eastwest;whiteSpace=wrap;html=1;" vertex="1" parent="iHgnJFZeqUVyhQBtMsIq-392">
          <mxGeometry y="151" width="204" height="26" as="geometry" />
        </mxCell>
        <mxCell id="iHgnJFZeqUVyhQBtMsIq-399" value="+setContent(content: Image): void" style="text;strokeColor=none;fillColor=none;align=left;verticalAlign=top;spacingLeft=4;spacingRight=4;overflow=hidden;rotatable=0;points=[[0,0.5],[1,0.5]];portConstraint=eastwest;whiteSpace=wrap;html=1;" vertex="1" parent="iHgnJFZeqUVyhQBtMsIq-392">
          <mxGeometry y="177" width="204" height="26" as="geometry" />
        </mxCell>
        <mxCell id="iHgnJFZeqUVyhQBtMsIq-400" value="+getContent(): Image" style="text;strokeColor=none;fillColor=none;align=left;verticalAlign=top;spacingLeft=4;spacingRight=4;overflow=hidden;rotatable=0;points=[[0,0.5],[1,0.5]];portConstraint=eastwest;whiteSpace=wrap;html=1;" vertex="1" parent="iHgnJFZeqUVyhQBtMsIq-392">
          <mxGeometry y="203" width="204" height="26" as="geometry" />
        </mxCell>
        <mxCell id="iHgnJFZeqUVyhQBtMsIq-401" value="" style="endArrow=diamondThin;endFill=1;endSize=24;html=1;rounded=0;entryX=0.546;entryY=1.123;entryDx=0;entryDy=0;entryPerimeter=0;exitX=0.5;exitY=0;exitDx=0;exitDy=0;" edge="1" parent="1" source="iHgnJFZeqUVyhQBtMsIq-392" target="iHgnJFZeqUVyhQBtMsIq-378">
          <mxGeometry width="160" relative="1" as="geometry">
            <mxPoint x="-5023" y="-1627" as="sourcePoint" />
            <mxPoint x="-4901" y="-1727" as="targetPoint" />
          </mxGeometry>
        </mxCell>
        <mxCell id="iHgnJFZeqUVyhQBtMsIq-402" value="has" style="edgeLabel;html=1;align=center;verticalAlign=middle;resizable=0;points=[];" connectable="0" vertex="1" parent="iHgnJFZeqUVyhQBtMsIq-401">
          <mxGeometry x="-0.1174" y="-4" relative="1" as="geometry">
            <mxPoint as="offset" />
          </mxGeometry>
        </mxCell>
        <mxCell id="iHgnJFZeqUVyhQBtMsIq-403" value="1" style="text;html=1;align=center;verticalAlign=middle;resizable=0;points=[];autosize=1;strokeColor=none;fillColor=none;" vertex="1" parent="1">
          <mxGeometry x="-6455" y="-2812" width="30" height="30" as="geometry" />
        </mxCell>
        <mxCell id="iHgnJFZeqUVyhQBtMsIq-404" value="1" style="text;html=1;align=center;verticalAlign=middle;resizable=0;points=[];autosize=1;strokeColor=none;fillColor=none;" vertex="1" parent="1">
          <mxGeometry x="-6935" y="-3152" width="30" height="30" as="geometry" />
        </mxCell>
        <mxCell id="iHgnJFZeqUVyhQBtMsIq-405" value="1" style="text;html=1;align=center;verticalAlign=middle;resizable=0;points=[];autosize=1;strokeColor=none;fillColor=none;" vertex="1" parent="1">
          <mxGeometry x="-7235" y="-2802" width="30" height="30" as="geometry" />
        </mxCell>
        <mxCell id="iHgnJFZeqUVyhQBtMsIq-406" value="1" style="text;html=1;align=center;verticalAlign=middle;resizable=0;points=[];autosize=1;strokeColor=none;fillColor=none;" vertex="1" parent="1">
          <mxGeometry x="-6875" y="-2712" width="30" height="30" as="geometry" />
        </mxCell>
        <mxCell id="iHgnJFZeqUVyhQBtMsIq-407" value="1" style="text;html=1;align=center;verticalAlign=middle;resizable=0;points=[];autosize=1;strokeColor=none;fillColor=none;" vertex="1" parent="1">
          <mxGeometry x="-6955" y="-2542" width="30" height="30" as="geometry" />
        </mxCell>
        <mxCell id="iHgnJFZeqUVyhQBtMsIq-408" value="1" style="text;html=1;align=center;verticalAlign=middle;resizable=0;points=[];autosize=1;strokeColor=none;fillColor=none;" vertex="1" parent="1">
          <mxGeometry x="-6675" y="-2392" width="30" height="30" as="geometry" />
        </mxCell>
        <mxCell id="iHgnJFZeqUVyhQBtMsIq-409" value="1..*" style="text;html=1;align=center;verticalAlign=middle;resizable=0;points=[];autosize=1;strokeColor=none;fillColor=none;" vertex="1" parent="1">
          <mxGeometry x="-6210" y="-2347" width="40" height="30" as="geometry" />
        </mxCell>
        <mxCell id="iHgnJFZeqUVyhQBtMsIq-410" value="1" style="text;html=1;align=center;verticalAlign=middle;resizable=0;points=[];autosize=1;strokeColor=none;fillColor=none;" vertex="1" parent="1">
          <mxGeometry x="-6340" y="-2412" width="30" height="30" as="geometry" />
        </mxCell>
        <mxCell id="iHgnJFZeqUVyhQBtMsIq-411" value="1..*" style="text;html=1;align=center;verticalAlign=middle;resizable=0;points=[];autosize=1;strokeColor=none;fillColor=none;" vertex="1" parent="1">
          <mxGeometry x="-6233" y="-2962" width="40" height="30" as="geometry" />
        </mxCell>
        <mxCell id="iHgnJFZeqUVyhQBtMsIq-412" value="1" style="text;html=1;align=center;verticalAlign=middle;resizable=0;points=[];autosize=1;strokeColor=none;fillColor=none;" vertex="1" parent="1">
          <mxGeometry x="-6210" y="-2883" width="30" height="30" as="geometry" />
        </mxCell>
        <mxCell id="iHgnJFZeqUVyhQBtMsIq-413" value="1" style="text;html=1;align=center;verticalAlign=middle;resizable=0;points=[];autosize=1;strokeColor=none;fillColor=none;" vertex="1" parent="1">
          <mxGeometry x="-6025" y="-3102" width="30" height="30" as="geometry" />
        </mxCell>
        <mxCell id="iHgnJFZeqUVyhQBtMsIq-414" value="1..*" style="text;html=1;align=center;verticalAlign=middle;resizable=0;points=[];autosize=1;strokeColor=none;fillColor=none;" vertex="1" parent="1">
          <mxGeometry x="-6040" y="-2700.5" width="40" height="30" as="geometry" />
        </mxCell>
        <mxCell id="iHgnJFZeqUVyhQBtMsIq-415" value="1" style="text;html=1;align=center;verticalAlign=middle;resizable=0;points=[];autosize=1;strokeColor=none;fillColor=none;" vertex="1" parent="1">
          <mxGeometry x="-5875" y="-2872" width="30" height="30" as="geometry" />
        </mxCell>
        <mxCell id="iHgnJFZeqUVyhQBtMsIq-416" value="1" style="text;html=1;align=center;verticalAlign=middle;resizable=0;points=[];autosize=1;strokeColor=none;fillColor=none;" vertex="1" parent="1">
          <mxGeometry x="-5648" y="-2074.5" width="30" height="30" as="geometry" />
        </mxCell>
        <mxCell id="iHgnJFZeqUVyhQBtMsIq-417" value="1" style="text;html=1;align=center;verticalAlign=middle;resizable=0;points=[];autosize=1;strokeColor=none;fillColor=none;" vertex="1" parent="1">
          <mxGeometry x="-5385" y="-2072" width="30" height="30" as="geometry" />
        </mxCell>
        <mxCell id="iHgnJFZeqUVyhQBtMsIq-418" value="1" style="text;html=1;align=center;verticalAlign=middle;resizable=0;points=[];autosize=1;strokeColor=none;fillColor=none;" vertex="1" parent="1">
          <mxGeometry x="-5385" y="-1930" width="30" height="30" as="geometry" />
        </mxCell>
        <mxCell id="iHgnJFZeqUVyhQBtMsIq-419" value="1..*" style="text;html=1;align=center;verticalAlign=middle;resizable=0;points=[];autosize=1;strokeColor=none;fillColor=none;" vertex="1" parent="1">
          <mxGeometry x="-5520" y="-1922" width="40" height="30" as="geometry" />
        </mxCell>
        <mxCell id="iHgnJFZeqUVyhQBtMsIq-420" value="1..*" style="text;html=1;align=center;verticalAlign=middle;resizable=0;points=[];autosize=1;strokeColor=none;fillColor=none;" vertex="1" parent="1">
          <mxGeometry x="-5658" y="-1477" width="40" height="30" as="geometry" />
        </mxCell>
        <mxCell id="iHgnJFZeqUVyhQBtMsIq-421" value="1" style="text;html=1;align=center;verticalAlign=middle;resizable=0;points=[];autosize=1;strokeColor=none;fillColor=none;" vertex="1" parent="1">
          <mxGeometry x="-5375" y="-1822" width="30" height="30" as="geometry" />
        </mxCell>
        <mxCell id="iHgnJFZeqUVyhQBtMsIq-422" value="1..*" style="text;html=1;align=center;verticalAlign=middle;resizable=0;points=[];autosize=1;strokeColor=none;fillColor=none;" vertex="1" parent="1">
          <mxGeometry x="-5180" y="-1832" width="40" height="30" as="geometry" />
        </mxCell>
        <mxCell id="iHgnJFZeqUVyhQBtMsIq-423" value="1" style="text;html=1;align=center;verticalAlign=middle;resizable=0;points=[];autosize=1;strokeColor=none;fillColor=none;" vertex="1" parent="1">
          <mxGeometry x="-5308" y="-2003" width="30" height="30" as="geometry" />
        </mxCell>
        <mxCell id="iHgnJFZeqUVyhQBtMsIq-424" value="1" style="text;html=1;align=center;verticalAlign=middle;resizable=0;points=[];autosize=1;strokeColor=none;fillColor=none;" vertex="1" parent="1">
          <mxGeometry x="-4825" y="-2022" width="30" height="30" as="geometry" />
        </mxCell>
        <mxCell id="iHgnJFZeqUVyhQBtMsIq-425" value="1" style="text;html=1;align=center;verticalAlign=middle;resizable=0;points=[];autosize=1;strokeColor=none;fillColor=none;" vertex="1" parent="1">
          <mxGeometry x="-4280" y="-2489" width="30" height="30" as="geometry" />
        </mxCell>
        <mxCell id="iHgnJFZeqUVyhQBtMsIq-426" value="1" style="text;html=1;align=center;verticalAlign=middle;resizable=0;points=[];autosize=1;strokeColor=none;fillColor=none;" vertex="1" parent="1">
          <mxGeometry x="-4455" y="-2342" width="30" height="30" as="geometry" />
        </mxCell>
        <mxCell id="iHgnJFZeqUVyhQBtMsIq-427" value="1" style="text;html=1;align=center;verticalAlign=middle;resizable=0;points=[];autosize=1;strokeColor=none;fillColor=none;" vertex="1" parent="1">
          <mxGeometry x="-4165" y="-2412" width="30" height="30" as="geometry" />
        </mxCell>
        <mxCell id="iHgnJFZeqUVyhQBtMsIq-428" value="1" style="text;html=1;align=center;verticalAlign=middle;resizable=0;points=[];autosize=1;strokeColor=none;fillColor=none;" vertex="1" parent="1">
          <mxGeometry x="-4009" y="-2245" width="30" height="30" as="geometry" />
        </mxCell>
        <mxCell id="iHgnJFZeqUVyhQBtMsIq-429" value="1..*" style="text;html=1;align=center;verticalAlign=middle;resizable=0;points=[];autosize=1;strokeColor=none;fillColor=none;" vertex="1" parent="1">
          <mxGeometry x="-5850" y="-2462" width="40" height="30" as="geometry" />
        </mxCell>
        <mxCell id="iHgnJFZeqUVyhQBtMsIq-430" value="" style="endArrow=open;endFill=1;endSize=12;html=1;rounded=0;entryX=0.5;entryY=0;entryDx=0;entryDy=0;exitX=1;exitY=0.5;exitDx=0;exitDy=0;" edge="1" parent="1" source="iHgnJFZeqUVyhQBtMsIq-9" target="iHgnJFZeqUVyhQBtMsIq-249">
          <mxGeometry width="160" relative="1" as="geometry">
            <mxPoint x="-5670" y="-2610" as="sourcePoint" />
            <mxPoint x="-5106" y="-2644" as="targetPoint" />
            <Array as="points" />
          </mxGeometry>
        </mxCell>
        <mxCell id="iHgnJFZeqUVyhQBtMsIq-431" value="chooses" style="edgeLabel;html=1;align=center;verticalAlign=middle;resizable=0;points=[];" connectable="0" vertex="1" parent="iHgnJFZeqUVyhQBtMsIq-430">
          <mxGeometry x="-0.2903" y="-5" relative="1" as="geometry">
            <mxPoint x="1" as="offset" />
          </mxGeometry>
        </mxCell>
        <mxCell id="iHgnJFZeqUVyhQBtMsIq-432" value="1" style="endArrow=open;html=1;endSize=12;startArrow=diamondThin;startSize=14;startFill=0;edgeStyle=orthogonalEdgeStyle;align=left;verticalAlign=bottom;rounded=0;exitX=0;exitY=0.5;exitDx=0;exitDy=0;" edge="1" parent="1" source="iHgnJFZeqUVyhQBtMsIq-369">
          <mxGeometry x="-0.8258" y="-1" relative="1" as="geometry">
            <mxPoint x="-5750" y="-1830" as="sourcePoint" />
            <mxPoint x="-6050" y="-1884" as="targetPoint" />
            <Array as="points">
              <mxPoint x="-5786" y="-1828" />
              <mxPoint x="-5786" y="-1884" />
            </Array>
            <mxPoint as="offset" />
          </mxGeometry>
        </mxCell>
        <mxCell id="iHgnJFZeqUVyhQBtMsIq-433" value="1" style="text;html=1;align=center;verticalAlign=middle;resizable=0;points=[];autosize=1;strokeColor=none;fillColor=none;" vertex="1" parent="1">
          <mxGeometry x="-4695" y="-2842" width="30" height="30" as="geometry" />
        </mxCell>
        <mxCell id="iHgnJFZeqUVyhQBtMsIq-434" value="1..*" style="text;html=1;align=center;verticalAlign=middle;resizable=0;points=[];autosize=1;strokeColor=none;fillColor=none;" vertex="1" parent="1">
          <mxGeometry x="-4720" y="-3052" width="40" height="30" as="geometry" />
        </mxCell>
        <mxCell id="iHgnJFZeqUVyhQBtMsIq-435" value="1..*" style="text;html=1;align=center;verticalAlign=middle;resizable=0;points=[];autosize=1;strokeColor=none;fillColor=none;fontSize=16;" vertex="1" parent="1">
          <mxGeometry x="-6051" y="-1879" width="50" height="30" as="geometry" />
        </mxCell>
        <mxCell id="iHgnJFZeqUVyhQBtMsIq-436" value="1" style="text;html=1;align=center;verticalAlign=middle;resizable=0;points=[];autosize=1;strokeColor=none;fillColor=none;fontSize=16;" vertex="1" parent="1">
          <mxGeometry x="-5655" y="-1581.5" width="30" height="30" as="geometry" />
        </mxCell>
        <mxCell id="iHgnJFZeqUVyhQBtMsIq-437" value="1..*" style="text;html=1;align=center;verticalAlign=middle;resizable=0;points=[];autosize=1;strokeColor=none;fillColor=none;fontSize=16;" vertex="1" parent="1">
          <mxGeometry x="-5611" y="-1479" width="50" height="30" as="geometry" />
        </mxCell>
        <mxCell id="iHgnJFZeqUVyhQBtMsIq-438" value="1..*" style="text;html=1;align=center;verticalAlign=middle;resizable=0;points=[];autosize=1;strokeColor=none;fillColor=none;" vertex="1" parent="1">
          <mxGeometry x="-4670" y="-2342" width="40" height="30" as="geometry" />
        </mxCell>
        <mxCell id="iHgnJFZeqUVyhQBtMsIq-439" value="1..*" style="text;html=1;align=center;verticalAlign=middle;resizable=0;points=[];autosize=1;strokeColor=none;fillColor=none;" vertex="1" parent="1">
          <mxGeometry x="-4570" y="-2872" width="40" height="30" as="geometry" />
        </mxCell>
        <mxCell id="iHgnJFZeqUVyhQBtMsIq-440" value="1..*" style="text;html=1;align=center;verticalAlign=middle;resizable=0;points=[];autosize=1;strokeColor=none;fillColor=none;" vertex="1" parent="1">
          <mxGeometry x="-5873" y="-2842" width="40" height="30" as="geometry" />
        </mxCell>
        <mxCell id="iHgnJFZeqUVyhQBtMsIq-441" value="1" style="text;html=1;align=center;verticalAlign=middle;resizable=0;points=[];autosize=1;strokeColor=none;fillColor=none;" vertex="1" parent="1">
          <mxGeometry x="-5265" y="-2732" width="30" height="30" as="geometry" />
        </mxCell>
      </root>
    </mxGraphModel>
  </diagram>
</mxfile>
